NotoSerifTamilSlanted-SemiCondensed.ufo
<glyph name="exclam" format="2">
  <advance width="313.56666666666666"/>
  <unicode hex="0021"/>
  <outline>
    <contour>
      <point x="118.33333333333333" y="202.83333333333334" type="line"/>
      <point x="169.4" y="202.83333333333334" type="line"/>
      <point x="309.4" y="714.0" type="line"/>
      <point x="197.06666666666666" y="714.0" type="line"/>
    </contour>
    <contour>
      <point x="111.96666666666667" y="-8.0" type="curve" smooth="yes"/>
      <point x="146.03333333333333" y="-8.0"/>
      <point x="179.56666666666666" y="15.533333333333333"/>
      <point x="179.56666666666666" y="74.16666666666667" type="curve" smooth="yes"/>
      <point x="179.56666666666666" y="109.26666666666667"/>
      <point x="157.3" y="128.26666666666668"/>
      <point x="125.4" y="128.26666666666668" type="curve" smooth="yes"/>
      <point x="91.3" y="128.26666666666668"/>
      <point x="57.43333333333334" y="100.7"/>
      <point x="57.43333333333334" y="47.36666666666667" type="curve" smooth="yes"/>
      <point x="57.43333333333334" y="11.633333333333333"/>
      <point x="79.7" y="-8.0"/>
    </contour>
  </outline>
</glyph>
<glyph name="quotedbl" format="2">
  <advance width="382.3333333333333"/>
  <unicode hex="0022"/>
  <outline>
    <contour>
      <point x="127.33333333333333" y="480.46666666666664" type="line"/>
      <point x="171.5" y="480.46666666666664" type="line"/>
      <point x="251.86666666666667" y="714.0" type="line"/>
      <point x="149.53333333333333" y="714.0" type="line"/>
    </contour>
    <contour>
      <point x="303.6" y="480.46666666666664" type="line"/>
      <point x="347.76666666666665" y="480.46666666666664" type="line"/>
      <point x="428.1333333333333" y="714.0" type="line"/>
      <point x="326.1666666666667" y="714.0" type="line"/>
    </contour>
  </outline>
</glyph>
<glyph name="numbersign" format="2">
  <advance width="517.9333333333334"/>
  <unicode hex="0023"/>
  <outline>
    <contour>
      <point x="50.86666666666667" y="0.0" type="line"/>
      <point x="107.56666666666666" y="0.0" type="line"/>
      <point x="165.46666666666667" y="203.0" type="line"/>
      <point x="294.2" y="203.0" type="line"/>
      <point x="236.66666666666666" y="0.0" type="line"/>
      <point x="293.0" y="0.0" type="line"/>
      <point x="350.53333333333336" y="203.0" type="line"/>
      <point x="462.3666666666667" y="203.0" type="line"/>
      <point x="469.73333333333335" y="262.0" type="line"/>
      <point x="369.53333333333336" y="262.0" type="line"/>
      <point x="425.06666666666666" y="458.3666666666667" type="line"/>
      <point x="520.0" y="458.3666666666667" type="line"/>
      <point x="526.7333333333333" y="517.0" type="line"/>
      <point x="442.06666666666666" y="517.0" type="line"/>
      <point x="498.6" y="714.0" type="line"/>
      <point x="441.9" y="714.0" type="line"/>
      <point x="385.3666666666667" y="517.0" type="line"/>
      <point x="256.6333333333333" y="517.0" type="line"/>
      <point x="313.1666666666667" y="714.0" type="line"/>
      <point x="255.83333333333334" y="714.0" type="line"/>
      <point x="200.3" y="517.0" type="line"/>
      <point x="89.83333333333333" y="517.0" type="line"/>
      <point x="83.46666666666667" y="458.3666666666667" type="line"/>
      <point x="183.3" y="458.3666666666667" type="line"/>
      <point x="126.76666666666667" y="262.0" type="line"/>
      <point x="32.2" y="262.0" type="line"/>
      <point x="24.833333333333332" y="203.0" type="line"/>
      <point x="109.13333333333334" y="203.0" type="line"/>
    </contour>
    <contour>
      <point x="183.73333333333335" y="262.0" type="line"/>
      <point x="239.63333333333333" y="458.3666666666667" type="line"/>
      <point x="368.3666666666667" y="458.3666666666667" type="line"/>
      <point x="312.8333333333333" y="262.0" type="line"/>
    </contour>
  </outline>
</glyph>
<glyph name="percent" format="2">
  <advance width="834.0333333333333"/>
  <unicode hex="0025"/>
  <outline>
    <contour>
      <point x="157.1" y="0.0" type="line"/>
      <point x="226.33333333333334" y="0.0" type="line"/>
      <point x="698.6666666666666" y="714.0" type="line"/>
      <point x="633.4333333333334" y="714.0" type="line"/>
    </contour>
    <contour>
      <point x="186.2" y="281.0" type="curve" smooth="yes"/>
      <point x="327.1333333333333" y="281.0"/>
      <point x="391.03333333333336" y="464.03333333333336"/>
      <point x="391.03333333333336" y="568.7666666666667" type="curve" smooth="yes"/>
      <point x="391.03333333333336" y="661.2"/>
      <point x="354.3333333333333" y="723.0"/>
      <point x="269.03333333333336" y="723.0" type="curve" smooth="yes"/>
      <point x="130.73333333333332" y="723.0"/>
      <point x="68.2" y="546.9666666666667"/>
      <point x="68.2" y="435.23333333333335" type="curve"/>
      <point x="68.2" y="330.53333333333336"/>
      <point x="113.8" y="281.0"/>
    </contour>
    <contour>
      <point x="191.3" y="321.6333333333333" type="curve" smooth="yes"/>
      <point x="156.06666666666666" y="321.6333333333333"/>
      <point x="143.53333333333333" y="357.43333333333334"/>
      <point x="143.53333333333333" y="418.4" type="curve" smooth="yes"/>
      <point x="143.53333333333333" y="508.6"/>
      <point x="186.16666666666666" y="683.3666666666667"/>
      <point x="264.6666666666667" y="683.3666666666667" type="curve" smooth="yes"/>
      <point x="299.9" y="683.3666666666667"/>
      <point x="312.43333333333334" y="647.9333333333333"/>
      <point x="312.43333333333334" y="586.6" type="curve" smooth="yes"/>
      <point x="312.43333333333334" y="496.4"/>
      <point x="269.8" y="321.6333333333333"/>
    </contour>
    <contour>
      <point x="593.0" y="-8.0" type="curve" smooth="yes"/>
      <point x="733.9333333333334" y="-8.0"/>
      <point x="797.4666666666667" y="175.4"/>
      <point x="797.4666666666667" y="279.76666666666665" type="curve" smooth="yes"/>
      <point x="797.4666666666667" y="372.2"/>
      <point x="760.7666666666667" y="434.0"/>
      <point x="675.4666666666667" y="434.0" type="curve" smooth="yes"/>
      <point x="537.1666666666666" y="434.0"/>
      <point x="475.0" y="257.96666666666664"/>
      <point x="475.0" y="146.23333333333332" type="curve"/>
      <point x="475.0" y="41.53333333333333"/>
      <point x="520.6" y="-8.0"/>
    </contour>
    <contour>
      <point x="598.1" y="32.63333333333333" type="curve" smooth="yes"/>
      <point x="562.5" y="32.63333333333333"/>
      <point x="549.9666666666667" y="68.43333333333334"/>
      <point x="549.9666666666667" y="130.13333333333333" type="curve" smooth="yes"/>
      <point x="549.9666666666667" y="219.6"/>
      <point x="592.9666666666667" y="394.3666666666667"/>
      <point x="671.1" y="394.3666666666667" type="curve" smooth="yes"/>
      <point x="706.7" y="394.3666666666667"/>
      <point x="719.2333333333333" y="358.56666666666666"/>
      <point x="719.2333333333333" y="297.6" type="curve" smooth="yes"/>
      <point x="719.2333333333333" y="207.4"/>
      <point x="676.6" y="32.63333333333333"/>
    </contour>
  </outline>
</glyph>
<glyph name="quotesingle" format="2">
  <advance width="207.53333333333333"/>
  <unicode hex="0027"/>
  <outline>
    <contour>
      <point x="125.16666666666667" y="480.46666666666664" type="line"/>
      <point x="169.33333333333334" y="480.46666666666664" type="line"/>
      <point x="248.96666666666667" y="714.0" type="line"/>
      <point x="147.0" y="714.0" type="line"/>
    </contour>
  </outline>
</glyph>
<glyph name="parenleft" format="2">
  <advance width="324.73333333333335"/>
  <unicode hex="0028"/>
  <outline>
    <contour>
      <point x="204.7" y="-127.63333333333334" type="curve"/>
      <point x="215.06666666666666" y="-82.36666666666666" type="line"/>
      <point x="153.13333333333333" y="-35.2"/>
      <point x="132.7" y="55.833333333333336"/>
      <point x="132.7" y="139.0" type="curve" smooth="yes"/>
      <point x="132.7" y="274.06666666666666"/>
      <point x="183.33333333333334" y="598.8"/>
      <point x="384.06666666666666" y="715.3666666666667" type="curve"/>
      <point x="393.7" y="759.2666666666667" type="line"/>
      <point x="157.33333333333334" y="690.2333333333333"/>
      <point x="41.266666666666666" y="418.0"/>
      <point x="41.266666666666666" y="177.56666666666666" type="curve" smooth="yes"/>
      <point x="41.266666666666666" y="42.6"/>
      <point x="89.6" y="-75.1"/>
    </contour>
  </outline>
</glyph>
<glyph name="parenright" format="2">
  <advance width="324.73333333333335"/>
  <unicode hex="0029"/>
  <outline>
    <contour>
      <point x="-47.166666666666664" y="-136.0" type="line"/>
      <point x="189.56666666666666" y="-66.6"/>
      <point x="304.9" y="205.63333333333333"/>
      <point x="304.9" y="446.06666666666666" type="curve" smooth="yes"/>
      <point x="304.9" y="581.0333333333333"/>
      <point x="257.3" y="698.3666666666667"/>
      <point x="141.83333333333334" y="750.9" type="curve"/>
      <point x="131.83333333333334" y="706.0" type="line"/>
      <point x="193.4" y="658.8333333333334"/>
      <point x="213.83333333333334" y="567.8"/>
      <point x="213.83333333333334" y="484.6333333333333" type="curve" smooth="yes"/>
      <point x="213.83333333333334" y="349.93333333333334"/>
      <point x="163.56666666666666" y="25.2"/>
      <point x="-37.166666666666664" y="-91.73333333333333" type="curve"/>
    </contour>
  </outline>
</glyph>
<glyph name="asterisk" format="2">
  <advance width="467.73333333333335"/>
  <unicode hex="002A"/>
  <outline>
    <contour>
      <point x="313.4" y="373.73333333333335" type="line"/>
      <point x="320.5" y="533.3666666666667" type="line"/>
      <point x="440.76666666666665" y="411.1" type="line"/>
      <point x="488.93333333333334" y="478.0" type="line"/>
      <point x="347.8666666666667" y="561.3666666666667" type="line"/>
      <point x="509.93333333333334" y="574.7333333333333" type="line"/>
      <point x="494.1333333333333" y="658.0" type="line"/>
      <point x="334.8666666666667" y="598.3666666666667" type="line"/>
      <point x="393.4" y="747.0" type="line"/>
      <point x="313.1666666666667" y="765.0" type="line"/>
      <point x="303.7" y="604.0" type="line"/>
      <point x="185.43333333333334" y="731.0" type="line"/>
      <point x="136.26666666666668" y="661.7333333333333" type="line"/>
      <point x="277.06666666666666" y="577.0" type="line"/>
      <point x="115.63333333333334" y="562.6333333333333" type="line"/>
      <point x="131.43333333333334" y="479.73333333333335" type="line"/>
      <point x="289.7" y="540.3666666666667" type="line"/>
      <point x="232.8" y="391.3666666666667" type="line"/>
    </contour>
  </outline>
</glyph>
<glyph name="plus" format="2">
  <advance width="509.8666666666667"/>
  <unicode hex="002B"/>
  <outline>
    <contour>
      <point x="230.3" y="143.0" type="line"/>
      <point x="289.56666666666666" y="143.0" type="line"/>
      <point x="289.56666666666666" y="328.3666666666667" type="line"/>
      <point x="458.43333333333334" y="328.3666666666667" type="line"/>
      <point x="458.43333333333334" y="386.6333333333333" type="line"/>
      <point x="289.56666666666666" y="386.6333333333333" type="line"/>
      <point x="289.56666666666666" y="572.0" type="line"/>
      <point x="230.3" y="572.0" type="line"/>
      <point x="230.3" y="386.6333333333333" type="line"/>
      <point x="62.43333333333334" y="386.6333333333333" type="line"/>
      <point x="62.43333333333334" y="328.3666666666667" type="line"/>
      <point x="230.3" y="328.3666666666667" type="line"/>
    </contour>
  </outline>
</glyph>
<glyph name="comma" format="2">
  <advance width="235.7"/>
  <unicode hex="002C"/>
  <outline>
    <contour>
      <point x="-27.266666666666666" y="-146.0" type="line"/>
      <point x="91.23333333333333" y="-121.0"/>
      <point x="146.4" y="-45.36666666666667"/>
      <point x="146.4" y="44.53333333333333" type="curve" smooth="yes"/>
      <point x="146.4" y="96.9"/>
      <point x="113.33333333333333" y="126.9"/>
      <point x="74.63333333333334" y="126.9" type="curve" smooth="yes"/>
      <point x="42.1" y="126.9"/>
      <point x="15.566666666666666" y="106.53333333333333"/>
      <point x="15.566666666666666" y="67.53333333333333" type="curve" smooth="yes"/>
      <point x="15.566666666666666" y="16.0"/>
      <point x="73.23333333333333" y="15.266666666666667"/>
      <point x="73.23333333333333" y="-19.633333333333333" type="curve" smooth="yes"/>
      <point x="73.23333333333333" y="-60.0"/>
      <point x="40.8" y="-89.0"/>
      <point x="-22.533333333333335" y="-104.36666666666666" type="curve"/>
    </contour>
  </outline>
</glyph>
<glyph name="hyphen" format="2">
  <advance width="287.26666666666665"/>
  <unicode hex="002D"/>
  <outline>
    <contour>
      <point x="16.566666666666666" y="235.73333333333332" type="line"/>
      <point x="257.5" y="235.73333333333332" type="line"/>
      <point x="273.8666666666667" y="309.26666666666665" type="line"/>
      <point x="32.93333333333333" y="309.26666666666665" type="line"/>
    </contour>
  </outline>
</glyph>
<glyph name="period" format="2">
  <advance width="235.7"/>
  <unicode hex="002E"/>
  <outline>
    <contour>
      <point x="79.8" y="-8.0" type="curve" smooth="yes"/>
      <point x="113.86666666666667" y="-8.0"/>
      <point x="147.76666666666668" y="15.533333333333333"/>
      <point x="147.76666666666668" y="76.7" type="curve" smooth="yes"/>
      <point x="147.76666666666668" y="109.26666666666667"/>
      <point x="125.13333333333334" y="128.26666666666668"/>
      <point x="93.23333333333333" y="128.26666666666668" type="curve" smooth="yes"/>
      <point x="59.13333333333333" y="128.26666666666668"/>
      <point x="25.266666666666666" y="100.7"/>
      <point x="25.266666666666666" y="44.833333333333336" type="curve" smooth="yes"/>
      <point x="25.266666666666666" y="11.633333333333333"/>
      <point x="47.53333333333333" y="-8.0"/>
    </contour>
  </outline>
</glyph>
<glyph name="slash" format="2">
  <advance width="267.1"/>
  <unicode hex="002F"/>
  <outline>
    <contour>
      <point x="-88.96666666666667" y="-121.0" type="line"/>
      <point x="-29.633333333333333" y="-121.0" type="line"/>
      <point x="366.7" y="760.0" type="line"/>
      <point x="306.6333333333333" y="760.0" type="line"/>
    </contour>
  </outline>
</glyph>
<glyph name="zero" format="2">
  <advance width="523.0666666666667"/>
  <unicode hex="0030"/>
  <outline>
    <contour>
      <point x="218.33333333333334" y="-11.0" type="curve" smooth="yes"/>
      <point x="417.6333333333333" y="-11.0"/>
      <point x="503.9666666666667" y="305.0"/>
      <point x="503.9666666666667" y="502.96666666666664" type="curve" smooth="yes"/>
      <point x="503.9666666666667" y="656.8333333333334"/>
      <point x="427.3" y="724.6333333333333"/>
      <point x="329.73333333333335" y="724.6333333333333" type="curve" smooth="yes"/>
      <point x="131.8" y="724.6333333333333"/>
      <point x="42.2" y="427.73333333333335"/>
      <point x="42.2" y="223.3" type="curve" smooth="yes"/>
      <point x="42.2" y="70.8"/>
      <point x="112.86666666666667" y="-11.0"/>
    </contour>
    <contour>
      <point x="226.33333333333334" y="43.63333333333333" type="curve" smooth="yes"/>
      <point x="169.66666666666666" y="43.63333333333333"/>
      <point x="135.16666666666666" y="91.0"/>
      <point x="135.16666666666666" y="197.23333333333332" type="curve" smooth="yes"/>
      <point x="135.16666666666666" y="367.8333333333333"/>
      <point x="191.0" y="671.0"/>
      <point x="320.46666666666664" y="671.0" type="curve" smooth="yes"/>
      <point x="379.1333333333333" y="671.0"/>
      <point x="411.3666666666667" y="623.6333333333333"/>
      <point x="411.3666666666667" y="519.7666666666667" type="curve" smooth="yes"/>
      <point x="411.3666666666667" y="348.9"/>
      <point x="357.53333333333336" y="43.63333333333333"/>
    </contour>
  </outline>
</glyph>
<glyph name="one" format="2">
  <advance width="523.0666666666667"/>
  <unicode hex="0031"/>
  <outline>
    <contour>
      <point x="37.266666666666666" y="0.0" type="line"/>
      <point x="384.3333333333333" y="0.0" type="line"/>
      <point x="393.3333333333333" y="41.63333333333333" type="line"/>
      <point x="343.73333333333335" y="41.63333333333333" type="line" smooth="yes"/>
      <point x="305.4" y="41.63333333333333"/>
      <point x="277.6" y="47.63333333333333"/>
      <point x="277.6" y="80.9" type="curve" smooth="yes"/>
      <point x="277.6" y="87.26666666666667"/>
      <point x="279.6" y="100.9"/>
      <point x="282.7" y="114.4" type="curve" smooth="yes"/>
      <point x="410.6" y="718.0" type="line"/>
      <point x="348.06666666666666" y="718.0" type="line"/>
      <point x="272.56666666666666" y="666.0" type="line" smooth="yes"/>
      <point x="201.33333333333334" y="617.0"/>
      <point x="161.53333333333333" y="601.0"/>
      <point x="118.83333333333333" y="589.0" type="curve"/>
      <point x="118.46666666666667" y="558.7333333333333"/>
      <point x="130.1" y="536.1"/>
      <point x="155.9" y="536.1" type="curve" smooth="yes"/>
      <point x="195.6" y="536.1"/>
      <point x="234.4" y="574.7333333333333"/>
      <point x="297.73333333333335" y="640.1" type="curve"/>
      <point x="301.0" y="640.1" type="line"/>
      <point x="289.1" y="595.8"/>
      <point x="276.8333333333333" y="543.5333333333333"/>
      <point x="264.3666666666667" y="483.8333333333333" type="curve" smooth="yes"/>
      <point x="186.0" y="113.63333333333334" type="line" smooth="yes"/>
      <point x="172.63333333333333" y="50.266666666666666"/>
      <point x="136.66666666666666" y="41.63333333333333"/>
      <point x="94.96666666666667" y="41.63333333333333" type="curve" smooth="yes"/>
      <point x="45.266666666666666" y="41.63333333333333" type="line"/>
    </contour>
  </outline>
</glyph>
<glyph name="two" format="2">
  <advance width="523.0666666666667"/>
  <unicode hex="0032"/>
  <outline>
    <contour>
      <point x="-12.966666666666667" y="0.0" type="line"/>
      <point x="391.06666666666666" y="0.0" type="line"/>
      <point x="431.8" y="169.16666666666666" type="line"/>
      <point x="391.26666666666665" y="169.16666666666666" type="line"/>
      <point x="384.6333333333333" y="153.53333333333333" type="line" smooth="yes"/>
      <point x="368.0" y="115.53333333333333"/>
      <point x="348.1" y="78.53333333333333"/>
      <point x="291.5" y="78.53333333333333" type="curve" smooth="yes"/>
      <point x="76.73333333333333" y="78.53333333333333" type="line"/>
      <point x="282.6666666666667" y="275.03333333333336" type="line" smooth="yes"/>
      <point x="420.9666666666667" y="403.26666666666665"/>
      <point x="487.3666666666667" y="483.53333333333336"/>
      <point x="487.3666666666667" y="580.5666666666667" type="curve" smooth="yes"/>
      <point x="487.3666666666667" y="668.7333333333333"/>
      <point x="428.1333333333333" y="724.0"/>
      <point x="312.6666666666667" y="724.0" type="curve" smooth="yes"/>
      <point x="181.73333333333332" y="724.0"/>
      <point x="107.13333333333333" y="654.9"/>
      <point x="107.13333333333333" y="586.2666666666667" type="curve" smooth="yes"/>
      <point x="107.13333333333333" y="542.7333333333333"/>
      <point x="136.4" y="524.4666666666667"/>
      <point x="176.66666666666666" y="524.4666666666667" type="curve"/>
      <point x="188.93333333333334" y="603.7333333333333"/>
      <point x="229.36666666666667" y="674.7333333333333"/>
      <point x="306.93333333333334" y="674.7333333333333" type="curve" smooth="yes"/>
      <point x="359.3333333333333" y="674.7333333333333"/>
      <point x="388.6666666666667" y="634.8333333333334"/>
      <point x="388.6666666666667" y="576.3" type="curve" smooth="yes"/>
      <point x="388.6666666666667" y="490.6666666666667"/>
      <point x="359.3333333333333" y="419.1333333333333"/>
      <point x="229.1" y="293.73333333333335" type="curve" smooth="yes"/>
      <point x="6.933333333333334" y="79.9" type="line"/>
    </contour>
  </outline>
</glyph>
<glyph name="three" format="2">
  <advance width="523.0666666666667"/>
  <unicode hex="0033"/>
  <outline>
    <contour>
      <point x="179.26666666666668" y="-10.0" type="curve" smooth="yes"/>
      <point x="296.3" y="-10.0"/>
      <point x="439.9666666666667" y="49.1"/>
      <point x="439.9666666666667" y="227.93333333333334" type="curve" smooth="yes"/>
      <point x="439.9666666666667" y="311.73333333333335"/>
      <point x="387.1" y="365.6333333333333"/>
      <point x="303.1666666666667" y="375.26666666666665" type="curve"/>
      <point x="429.1" y="399.6333333333333"/>
      <point x="492.8" y="489.46666666666664"/>
      <point x="492.8" y="583.2" type="curve" smooth="yes"/>
      <point x="492.8" y="672.7333333333333"/>
      <point x="423.56666666666666" y="724.0"/>
      <point x="321.6333333333333" y="724.0" type="curve" smooth="yes"/>
      <point x="206.6" y="724.0"/>
      <point x="114.83333333333333" y="667.3333333333334"/>
      <point x="114.83333333333333" y="585.3333333333334" type="curve" smooth="yes"/>
      <point x="114.83333333333333" y="539.6333333333333"/>
      <point x="145.36666666666667" y="525.3666666666667"/>
      <point x="185.53333333333333" y="525.3666666666667" type="curve"/>
      <point x="202.53333333333333" y="604.7333333333333"/>
      <point x="232.86666666666667" y="674.7333333333333"/>
      <point x="316.1666666666667" y="674.7333333333333" type="curve" smooth="yes"/>
      <point x="369.3" y="674.7333333333333"/>
      <point x="393.8333333333333" y="637.1"/>
      <point x="393.8333333333333" y="584.1" type="curve" smooth="yes"/>
      <point x="393.8333333333333" y="470.3666666666667"/>
      <point x="314.8666666666667" y="395.0"/>
      <point x="209.46666666666667" y="395.0" type="curve" smooth="yes"/>
      <point x="179.66666666666666" y="395.0" type="line"/>
      <point x="170.03333333333333" y="344.3666666666667" type="line"/>
      <point x="209.73333333333335" y="344.3666666666667" type="line" smooth="yes"/>
      <point x="291.76666666666665" y="344.3666666666667"/>
      <point x="339.0" y="296.73333333333335"/>
      <point x="339.0" y="218.76666666666668" type="curve" smooth="yes"/>
      <point x="339.0" y="102.36666666666666"/>
      <point x="268.6666666666667" y="44.266666666666666"/>
      <point x="187.0" y="44.266666666666666" type="curve" smooth="yes"/>
      <point x="104.33333333333333" y="44.266666666666666"/>
      <point x="73.0" y="107.63333333333334"/>
      <point x="74.1" y="167.9" type="curve"/>
      <point x="32.46666666666667" y="167.9"/>
      <point x="-0.06666666666666687" y="142.0"/>
      <point x="-0.06666666666666687" y="95.0" type="curve" smooth="yes"/>
      <point x="-0.06666666666666687" y="40.733333333333334"/>
      <point x="46.9" y="-10.0"/>
    </contour>
  </outline>
</glyph>
<glyph name="four" format="2">
  <advance width="523.0666666666667"/>
  <unicode hex="0034"/>
  <outline>
    <contour>
      <point x="120.66666666666667" y="0.0" type="line"/>
      <point x="425.3" y="0.0" type="line"/>
      <point x="434.6666666666667" y="41.63333333333333" type="line"/>
      <point x="413.5" y="41.63333333333333" type="line" smooth="yes"/>
      <point x="375.53333333333336" y="41.63333333333333"/>
      <point x="348.1" y="47.63333333333333"/>
      <point x="348.1" y="80.53333333333333" type="curve" smooth="yes"/>
      <point x="348.1" y="86.9"/>
      <point x="350.1" y="101.26666666666667"/>
      <point x="352.1" y="109.26666666666667" type="curve" smooth="yes"/>
      <point x="480.1" y="714.0" type="line"/>
      <point x="386.6666666666667" y="714.0" type="line"/>
      <point x="3.4333333333333336" y="236.63333333333333" type="line"/>
      <point x="-5.566666666666666" y="197.46666666666667" type="line"/>
      <point x="482.4666666666667" y="197.46666666666667" type="line"/>
      <point x="494.4666666666667" y="251.26666666666668" type="line"/>
      <point x="41.333333333333336" y="251.26666666666668" type="line"/>
      <point x="54.5" y="221.76666666666668" type="line"/>
      <point x="293.53333333333336" y="517.6333333333333" type="line" smooth="yes"/>
      <point x="313.8" y="542.3666666666667"/>
      <point x="355.1333333333333" y="598.6333333333333"/>
      <point x="375.6666666666667" y="633.7333333333333" type="curve"/>
      <point x="357.03333333333336" y="571.7333333333333"/>
      <point x="339.4" y="498.1"/>
      <point x="327.4" y="439.73333333333335" type="curve" smooth="yes"/>
      <point x="260.03333333333336" y="113.63333333333334" type="line" smooth="yes"/>
      <point x="247.03333333333333" y="50.63333333333333"/>
      <point x="209.6" y="41.63333333333333"/>
      <point x="168.26666666666668" y="41.63333333333333" type="curve" smooth="yes"/>
      <point x="128.66666666666666" y="41.63333333333333" type="line"/>
    </contour>
  </outline>
</glyph>
<glyph name="five" format="2">
  <advance width="523.0666666666667"/>
  <unicode hex="0035"/>
  <outline>
    <contour>
      <point x="174.2" y="-10.0" type="curve" smooth="yes"/>
      <point x="340.56666666666666" y="-10.0"/>
      <point x="441.3333333333333" y="101.56666666666666"/>
      <point x="441.3333333333333" y="246.66666666666666" type="curve" smooth="yes"/>
      <point x="441.3333333333333" y="363.1"/>
      <point x="366.3" y="426.6333333333333"/>
      <point x="248.2" y="426.6333333333333" type="curve" smooth="yes"/>
      <point x="206.5" y="426.6333333333333"/>
      <point x="179.33333333333334" y="418.0"/>
      <point x="159.16666666666666" y="411.0" type="curve"/>
      <point x="222.96666666666667" y="635.1" type="line"/>
      <point x="403.03333333333336" y="635.1" type="line" smooth="yes"/>
      <point x="436.1" y="635.1"/>
      <point x="445.3666666666667" y="625.4666666666667"/>
      <point x="445.3666666666667" y="611.8333333333334" type="curve" smooth="yes"/>
      <point x="445.3666666666667" y="604.5666666666667"/>
      <point x="443.0" y="582.2"/>
      <point x="441.6333333333333" y="564.4666666666667" type="curve"/>
      <point x="482.1666666666667" y="564.4666666666667" type="line"/>
      <point x="509.9" y="714.0" type="line"/>
      <point x="196.8" y="714.0" type="line"/>
      <point x="93.1" y="359.56666666666666" type="line"/>
      <point x="124.53333333333333" y="350.3666666666667" type="line"/>
      <point x="150.33333333333334" y="361.3666666666667"/>
      <point x="178.5" y="372.3666666666667"/>
      <point x="225.46666666666667" y="372.3666666666667" type="curve" smooth="yes"/>
      <point x="291.8666666666667" y="372.3666666666667"/>
      <point x="341.3666666666667" y="328.1"/>
      <point x="341.3666666666667" y="239.3" type="curve" smooth="yes"/>
      <point x="341.3666666666667" y="110.46666666666667"/>
      <point x="277.1333333333333" y="44.266666666666666"/>
      <point x="183.2" y="44.266666666666666" type="curve" smooth="yes"/>
      <point x="102.33333333333333" y="44.266666666666666"/>
      <point x="82.9" y="105.4"/>
      <point x="82.63333333333334" y="156.03333333333333" type="curve"/>
      <point x="32.833333333333336" y="156.03333333333333"/>
      <point x="10.933333333333334" y="129.93333333333334"/>
      <point x="10.933333333333334" y="91.83333333333333" type="curve" smooth="yes"/>
      <point x="10.933333333333334" y="37.93333333333333"/>
      <point x="54.36666666666667" y="-10.0"/>
    </contour>
  </outline>
</glyph>
<glyph name="six" format="2">
  <advance width="523.0666666666667"/>
  <unicode hex="0036"/>
  <outline>
    <contour>
      <point x="232.96666666666667" y="-10.0" type="curve" smooth="yes"/>
      <point x="389.53333333333336" y="-10.0"/>
      <point x="465.23333333333335" y="123.66666666666667"/>
      <point x="465.23333333333335" y="263.03333333333336" type="curve" smooth="yes"/>
      <point x="465.23333333333335" y="355.8333333333333"/>
      <point x="417.0" y="433.6333333333333"/>
      <point x="312.3666666666667" y="433.6333333333333" type="curve" smooth="yes"/>
      <point x="251.3" y="433.6333333333333"/>
      <point x="202.33333333333334" y="402.6333333333333"/>
      <point x="174.16666666666666" y="381.6333333333333" type="curve"/>
      <point x="221.06666666666666" y="575.0"/>
      <point x="292.3" y="676.3666666666667"/>
      <point x="383.8666666666667" y="676.3666666666667" type="curve" smooth="yes"/>
      <point x="439.73333333333335" y="676.3666666666667"/>
      <point x="445.6333333333333" y="619.1"/>
      <point x="444.53333333333336" y="560.1" type="curve"/>
      <point x="497.7" y="560.1"/>
      <point x="529.3333333333334" y="588.4666666666667"/>
      <point x="529.3333333333334" y="634.3666666666667" type="curve" smooth="yes"/>
      <point x="529.3333333333334" y="683.1"/>
      <point x="481.73333333333335" y="724.0"/>
      <point x="389.1666666666667" y="724.0" type="curve" smooth="yes"/>
      <point x="187.06666666666666" y="724.0"/>
      <point x="60.0" y="472.56666666666666"/>
      <point x="60.0" y="223.2" type="curve" smooth="yes"/>
      <point x="60.0" y="63.03333333333333"/>
      <point x="137.03333333333333" y="-10.0"/>
    </contour>
    <contour>
      <point x="239.7" y="43.53333333333333" type="curve" smooth="yes"/>
      <point x="183.66666666666666" y="43.53333333333333"/>
      <point x="148.8" y="91.36666666666666"/>
      <point x="148.8" y="192.43333333333334" type="curve" smooth="yes"/>
      <point x="148.8" y="233.0"/>
      <point x="153.43333333333334" y="272.53333333333336"/>
      <point x="163.16666666666666" y="325.0" type="curve"/>
      <point x="193.23333333333332" y="353.0"/>
      <point x="242.2" y="383.3666666666667"/>
      <point x="289.8" y="383.3666666666667" type="curve" smooth="yes"/>
      <point x="342.2" y="383.3666666666667"/>
      <point x="370.26666666666665" y="339.2"/>
      <point x="370.26666666666665" y="258.8666666666667" type="curve" smooth="yes"/>
      <point x="370.26666666666665" y="137.56666666666666"/>
      <point x="316.8333333333333" y="43.53333333333333"/>
    </contour>
  </outline>
</glyph>
<glyph name="seven" format="2">
  <advance width="523.0666666666667"/>
  <unicode hex="0037"/>
  <outline>
    <contour>
      <point x="102.13333333333334" y="0.0" type="line"/>
      <point x="173.1" y="0.0" type="line"/>
      <point x="546.8666666666667" y="686.4666666666667" type="line"/>
      <point x="552.5" y="714.0" type="line"/>
      <point x="137.4" y="714.0" type="line"/>
      <point x="94.4" y="534.1" type="line"/>
      <point x="134.93333333333334" y="534.1" type="line"/>
      <point x="148.56666666666666" y="584.1" type="line" smooth="yes"/>
      <point x="157.56666666666666" y="617.1"/>
      <point x="179.36666666666667" y="635.4666666666667"/>
      <point x="212.8" y="635.4666666666667" type="curve" smooth="yes"/>
      <point x="456.73333333333335" y="635.4666666666667" type="line"/>
    </contour>
  </outline>
</glyph>
<glyph name="eight" format="2">
  <advance width="523.0666666666667"/>
  <unicode hex="0038"/>
  <outline>
    <contour>
      <point x="219.53333333333333" y="-10.0" type="curve" smooth="yes"/>
      <point x="350.73333333333335" y="-10.0"/>
      <point x="458.1333333333333" y="57.46666666666667"/>
      <point x="458.1333333333333" y="205.3" type="curve" smooth="yes"/>
      <point x="458.1333333333333" y="284.1"/>
      <point x="411.26666666666665" y="337.73333333333335"/>
      <point x="343.23333333333335" y="380.6333333333333" type="curve"/>
      <point x="443.3666666666667" y="425.73333333333335"/>
      <point x="507.7" y="478.1"/>
      <point x="507.7" y="580.2" type="curve" smooth="yes"/>
      <point x="507.7" y="663.1"/>
      <point x="446.4666666666667" y="724.0"/>
      <point x="336.9" y="724.0" type="curve" smooth="yes"/>
      <point x="176.8" y="724.0"/>
      <point x="112.2" y="636.4333333333333"/>
      <point x="112.2" y="527.7" type="curve" smooth="yes"/>
      <point x="112.2" y="466.1666666666667"/>
      <point x="145.9" y="407.6333333333333"/>
      <point x="200.66666666666666" y="365.0" type="curve"/>
      <point x="91.63333333333334" y="321.6333333333333"/>
      <point x="14.033333333333333" y="271.43333333333334"/>
      <point x="14.033333333333333" y="157.96666666666667" type="curve" smooth="yes"/>
      <point x="14.033333333333333" y="60.166666666666664"/>
      <point x="88.8" y="-10.0"/>
    </contour>
    <contour>
      <point x="221.8" y="38.63333333333333" type="curve" smooth="yes"/>
      <point x="148.5" y="38.63333333333333"/>
      <point x="105.63333333333334" y="84.53333333333333"/>
      <point x="105.63333333333334" y="157.06666666666666" type="curve" smooth="yes"/>
      <point x="105.63333333333334" y="249.9"/>
      <point x="158.96666666666667" y="305.0"/>
      <point x="243.73333333333335" y="339.73333333333335" type="curve"/>
      <point x="325.2" y="294.46666666666664"/>
      <point x="366.8" y="251.83333333333334"/>
      <point x="366.8" y="181.3" type="curve" smooth="yes"/>
      <point x="366.8" y="86.1"/>
      <point x="300.56666666666666" y="38.63333333333333"/>
    </contour>
    <contour>
      <point x="298.53333333333336" y="404.6333333333333" type="curve"/>
      <point x="235.23333333333332" y="442.26666666666665"/>
      <point x="204.9" y="483.1666666666667"/>
      <point x="204.9" y="539.4333333333333" type="curve" smooth="yes"/>
      <point x="204.9" y="621.9"/>
      <point x="254.86666666666667" y="674.3666666666667"/>
      <point x="330.0" y="674.3666666666667" type="curve" smooth="yes"/>
      <point x="392.6666666666667" y="674.3666666666667"/>
      <point x="422.3666666666667" y="631.4666666666667"/>
      <point x="422.3666666666667" y="573.5666666666667" type="curve" smooth="yes"/>
      <point x="422.3666666666667" y="502.8333333333333"/>
      <point x="391.93333333333334" y="448.73333333333335"/>
    </contour>
  </outline>
</glyph>
<glyph name="nine" format="2">
  <advance width="523.0666666666667"/>
  <unicode hex="0039"/>
  <outline>
    <contour>
      <point x="164.73333333333335" y="-10.0" type="curve" smooth="yes"/>
      <point x="406.8" y="-10.0"/>
      <point x="495.06666666666666" y="354.8333333333333"/>
      <point x="495.06666666666666" y="534.7" type="curve" smooth="yes"/>
      <point x="495.06666666666666" y="655.9333333333333"/>
      <point x="429.56666666666666" y="724.0"/>
      <point x="326.3666666666667" y="724.0" type="curve" smooth="yes"/>
      <point x="191.8" y="724.0"/>
      <point x="76.66666666666667" y="605.8"/>
      <point x="76.66666666666667" y="436.96666666666664" type="curve" smooth="yes"/>
      <point x="76.66666666666667" y="342.1666666666667"/>
      <point x="132.16666666666666" y="275.0"/>
      <point x="230.63333333333333" y="275.0" type="curve" smooth="yes"/>
      <point x="295.5" y="275.0"/>
      <point x="341.56666666666666" y="308.0"/>
      <point x="373.3666666666667" y="343.0" type="curve"/>
      <point x="322.93333333333334" y="153.5"/>
      <point x="267.1333333333333" y="38.63333333333333"/>
      <point x="173.83333333333334" y="38.63333333333333" type="curve" smooth="yes"/>
      <point x="116.33333333333333" y="38.63333333333333"/>
      <point x="94.63333333333334" y="92.73333333333333"/>
      <point x="94.73333333333333" y="139.83333333333334" type="curve"/>
      <point x="57.36666666666667" y="139.83333333333334"/>
      <point x="35.0" y="112.63333333333334"/>
      <point x="35.0" y="78.16666666666667" type="curve" smooth="yes"/>
      <point x="35.0" y="34.9"/>
      <point x="65.9" y="-10.0"/>
    </contour>
    <contour>
      <point x="256.3666666666667" y="328.9" type="curve" smooth="yes"/>
      <point x="205.6" y="328.9"/>
      <point x="172.63333333333333" y="365.1666666666667"/>
      <point x="172.63333333333333" y="433.96666666666664" type="curve" smooth="yes"/>
      <point x="172.63333333333333" y="546.9666666666667"/>
      <point x="234.13333333333333" y="670.4666666666667"/>
      <point x="322.26666666666665" y="670.4666666666667" type="curve" smooth="yes"/>
      <point x="370.76666666666665" y="670.4666666666667"/>
      <point x="405.73333333333335" y="632.5666666666667"/>
      <point x="405.73333333333335" y="539.2333333333333" type="curve" smooth="yes"/>
      <point x="405.73333333333335" y="506.93333333333334"/>
      <point x="398.3666666666667" y="450.73333333333335"/>
      <point x="389.0" y="414.6333333333333" type="curve"/>
      <point x="361.2" y="373.26666666666665"/>
      <point x="315.8666666666667" y="328.9"/>
    </contour>
  </outline>
</glyph>
<glyph name="colon" format="2">
  <advance width="270.9666666666667"/>
  <unicode hex="003A"/>
  <outline>
    <contour>
      <point x="175.43333333333334" y="404.1" type="curve" smooth="yes"/>
      <point x="209.5" y="404.1"/>
      <point x="243.03333333333333" y="427.6333333333333"/>
      <point x="243.03333333333333" y="486.26666666666665" type="curve" smooth="yes"/>
      <point x="243.03333333333333" y="521.3666666666667"/>
      <point x="220.76666666666668" y="540.3666666666667"/>
      <point x="188.86666666666667" y="540.3666666666667" type="curve" smooth="yes"/>
      <point x="154.76666666666668" y="540.3666666666667"/>
      <point x="121.26666666666667" y="512.4333333333333"/>
      <point x="121.26666666666667" y="459.1" type="curve" smooth="yes"/>
      <point x="121.26666666666667" y="423.73333333333335"/>
      <point x="143.16666666666666" y="404.1"/>
    </contour>
    <contour>
      <point x="85.43333333333334" y="-8.0" type="curve" smooth="yes"/>
      <point x="119.5" y="-8.0"/>
      <point x="153.4" y="15.533333333333333"/>
      <point x="153.4" y="74.16666666666667" type="curve" smooth="yes"/>
      <point x="153.4" y="109.26666666666667"/>
      <point x="130.76666666666668" y="128.26666666666668"/>
      <point x="99.23333333333333" y="128.26666666666668" type="curve" smooth="yes"/>
      <point x="64.76666666666667" y="128.26666666666668"/>
      <point x="31.266666666666666" y="100.7"/>
      <point x="31.266666666666666" y="47.36666666666667" type="curve" smooth="yes"/>
      <point x="31.266666666666666" y="11.633333333333333"/>
      <point x="53.53333333333333" y="-8.0"/>
    </contour>
  </outline>
</glyph>
<glyph name="semicolon" format="2">
  <advance width="270.6"/>
  <unicode hex="003B"/>
  <outline>
    <contour>
      <point x="-9.833333333333334" y="-146.0" type="line"/>
      <point x="108.3" y="-121.0"/>
      <point x="163.83333333333334" y="-45.36666666666667"/>
      <point x="163.83333333333334" y="44.53333333333333" type="curve" smooth="yes"/>
      <point x="163.83333333333334" y="96.9"/>
      <point x="130.76666666666668" y="126.9"/>
      <point x="92.06666666666666" y="126.9" type="curve" smooth="yes"/>
      <point x="59.9" y="126.9"/>
      <point x="32.63333333333333" y="106.9"/>
      <point x="32.63333333333333" y="67.53333333333333" type="curve" smooth="yes"/>
      <point x="32.63333333333333" y="16.0"/>
      <point x="90.66666666666667" y="15.266666666666667"/>
      <point x="90.66666666666667" y="-19.633333333333333" type="curve" smooth="yes"/>
      <point x="90.66666666666667" y="-60.0"/>
      <point x="58.233333333333334" y="-89.0"/>
      <point x="-5.1" y="-104.36666666666666" type="curve"/>
    </contour>
    <contour>
      <point x="175.43333333333334" y="404.1" type="curve" smooth="yes"/>
      <point x="209.13333333333333" y="404.1"/>
      <point x="243.03333333333333" y="427.6333333333333"/>
      <point x="243.03333333333333" y="486.26666666666665" type="curve" smooth="yes"/>
      <point x="243.03333333333333" y="521.3666666666667"/>
      <point x="220.4" y="540.3666666666667"/>
      <point x="188.86666666666667" y="540.3666666666667" type="curve" smooth="yes"/>
      <point x="154.76666666666668" y="540.3666666666667"/>
      <point x="121.26666666666667" y="512.4333333333333"/>
      <point x="121.26666666666667" y="459.1" type="curve" smooth="yes"/>
      <point x="121.26666666666667" y="423.73333333333335"/>
      <point x="143.16666666666666" y="404.1"/>
    </contour>
  </outline>
</glyph>
<glyph name="equal" format="2">
  <advance width="509.8666666666667"/>
  <unicode hex="003D"/>
  <outline>
    <contour>
      <point x="62.43333333333334" y="424.9" type="line"/>
      <point x="458.8" y="424.9" type="line"/>
      <point x="458.8" y="483.53333333333336" type="line"/>
      <point x="62.43333333333334" y="483.53333333333336" type="line"/>
    </contour>
    <contour>
      <point x="62.43333333333334" y="230.46666666666667" type="line"/>
      <point x="458.8" y="230.46666666666667" type="line"/>
      <point x="458.8" y="289.1" type="line"/>
      <point x="62.43333333333334" y="289.1" type="line"/>
    </contour>
  </outline>
</glyph>
<glyph name="greater" format="2">
  <advance width="509.8666666666667"/>
  <unicode hex="003E"/>
  <outline>
    <contour>
      <point x="62.43333333333334" y="110.36666666666666" type="line"/>
      <point x="458.43333333333334" y="340.0" type="line"/>
      <point x="458.43333333333334" y="375.0" type="line"/>
      <point x="62.43333333333334" y="605.6333333333333" type="line"/>
      <point x="62.43333333333334" y="539.3666666666667" type="line"/>
      <point x="371.6666666666667" y="357.0" type="line"/>
      <point x="62.43333333333334" y="177.0" type="line"/>
    </contour>
  </outline>
</glyph>
<glyph name="question" format="2">
  <advance width="465.1666666666667"/>
  <unicode hex="003F"/>
  <outline>
    <contour>
      <point x="181.63333333333333" y="202.83333333333334" type="line"/>
      <point x="233.33333333333334" y="202.83333333333334" type="line"/>
      <point x="261.7" y="317.0" type="line"/>
      <point x="393.26666666666665" y="369.8333333333333"/>
      <point x="493.76666666666665" y="444.56666666666666"/>
      <point x="493.76666666666665" y="565.7" type="curve" smooth="yes"/>
      <point x="493.76666666666665" y="673.3666666666667"/>
      <point x="426.26666666666665" y="724.0"/>
      <point x="318.7" y="724.0" type="curve" smooth="yes"/>
      <point x="198.66666666666666" y="724.0"/>
      <point x="126.6" y="660.9"/>
      <point x="126.6" y="591.2666666666667" type="curve" smooth="yes"/>
      <point x="126.6" y="554.3666666666667"/>
      <point x="150.86666666666667" y="532.7333333333333"/>
      <point x="196.76666666666668" y="532.7333333333333" type="curve"/>
      <point x="209.13333333333333" y="608.7333333333333"/>
      <point x="235.66666666666666" y="674.3666666666667"/>
      <point x="311.9666666666667" y="674.3666666666667" type="curve" smooth="yes"/>
      <point x="361.73333333333335" y="674.3666666666667"/>
      <point x="397.9666666666667" y="636.4666666666667"/>
      <point x="397.9666666666667" y="569.6666666666666" type="curve" smooth="yes"/>
      <point x="397.9666666666667" y="461.8333333333333"/>
      <point x="321.3666666666667" y="394.73333333333335"/>
      <point x="205.6" y="349.0" type="curve"/>
    </contour>
    <contour>
      <point x="178.8" y="-8.0" type="curve" smooth="yes"/>
      <point x="213.23333333333335" y="-8.0"/>
      <point x="246.76666666666668" y="15.533333333333333"/>
      <point x="246.76666666666668" y="74.16666666666667" type="curve" smooth="yes"/>
      <point x="246.76666666666668" y="109.26666666666667"/>
      <point x="224.5" y="128.26666666666668"/>
      <point x="192.6" y="128.26666666666668" type="curve" smooth="yes"/>
      <point x="158.5" y="128.26666666666668"/>
      <point x="125.0" y="100.7"/>
      <point x="125.0" y="47.36666666666667" type="curve" smooth="yes"/>
      <point x="125.0" y="11.633333333333333"/>
      <point x="146.9" y="-8.0"/>
    </contour>
  </outline>
</glyph>
<glyph name="bracketleft" format="2">
  <advance width="337.6333333333333"/>
  <unicode hex="005B"/>
  <outline>
    <contour>
      <point x="3.9000000000000004" y="-128.0" type="line"/>
      <point x="214.8" y="-128.0" type="line"/>
      <point x="223.8" y="-86.36666666666666" type="line"/>
      <point x="183.73333333333335" y="-86.36666666666666" type="line" smooth="yes"/>
      <point x="145.4" y="-86.36666666666666"/>
      <point x="118.33333333333333" y="-80.36666666666666"/>
      <point x="118.33333333333333" y="-47.46666666666667" type="curve" smooth="yes"/>
      <point x="118.33333333333333" y="-41.46666666666667"/>
      <point x="119.96666666666667" y="-26.733333333333334"/>
      <point x="121.96666666666667" y="-18.733333333333334" type="curve"/>
      <point x="263.6" y="646.3666666666667" type="line"/>
      <point x="276.6" y="709.3666666666667"/>
      <point x="313.03333333333336" y="718.3666666666667"/>
      <point x="354.73333333333335" y="718.3666666666667" type="curve" smooth="yes"/>
      <point x="394.43333333333334" y="718.3666666666667" type="line"/>
      <point x="403.8" y="760.0" type="line"/>
      <point x="192.9" y="760.0" type="line"/>
    </contour>
  </outline>
</glyph>
<glyph name="backslash" format="2">
  <advance width="267.1"/>
  <unicode hex="005C"/>
  <outline>
    <contour>
      <point x="150.23333333333332" y="-121.0" type="line"/>
      <point x="205.56666666666666" y="-121.0" type="line"/>
      <point x="165.5" y="760.0" type="line"/>
      <point x="110.8" y="760.0" type="line"/>
    </contour>
  </outline>
</glyph>
<glyph name="bracketright" format="2">
  <advance width="337.6333333333333"/>
  <unicode hex="005D"/>
  <outline>
    <contour>
      <point x="-46.266666666666666" y="-128.0" type="line"/>
      <point x="164.0" y="-128.0" type="line"/>
      <point x="352.6333333333333" y="760.0" type="line"/>
      <point x="142.1" y="760.0" type="line"/>
      <point x="132.73333333333332" y="718.3666666666667" type="line"/>
      <point x="172.8" y="718.3666666666667" type="line" smooth="yes"/>
      <point x="210.76666666666668" y="718.3666666666667"/>
      <point x="238.56666666666666" y="712.3666666666667"/>
      <point x="238.56666666666666" y="679.4666666666667" type="curve" smooth="yes"/>
      <point x="238.56666666666666" y="673.1"/>
      <point x="236.56666666666666" y="659.1"/>
      <point x="234.56666666666666" y="650.7333333333333" type="curve" smooth="yes"/>
      <point x="92.93333333333334" y="-14.366666666666667" type="line"/>
      <point x="79.93333333333334" y="-77.36666666666666"/>
      <point x="43.5" y="-86.36666666666666"/>
      <point x="2.8000000000000003" y="-86.36666666666666" type="curve" smooth="yes"/>
      <point x="-36.9" y="-86.36666666666666" type="line"/>
    </contour>
  </outline>
</glyph>
<glyph name="asciicircum" format="2">
  <advance width="509.8666666666667"/>
  <unicode hex="005E"/>
  <outline>
    <contour>
      <point x="49.166666666666664" y="266.3666666666667" type="line"/>
      <point x="111.76666666666667" y="266.3666666666667" type="line"/>
      <point x="259.3" y="622.7333333333333" type="line"/>
      <point x="408.4666666666667" y="266.3666666666667" type="line"/>
      <point x="471.06666666666666" y="266.3666666666667" type="line"/>
      <point x="276.2" y="714.0" type="line"/>
      <point x="243.03333333333333" y="714.0" type="line"/>
    </contour>
  </outline>
</glyph>
<glyph name="underscore" format="2">
  <advance width="425.26666666666665"/>
  <unicode hex="005F"/>
  <outline>
    <contour>
      <point x="-86.6" y="-142.0" type="line"/>
      <point x="346.93333333333334" y="-142.0" type="line"/>
      <point x="359.93333333333334" y="-83.0" type="line"/>
      <point x="-73.6" y="-83.0" type="line"/>
    </contour>
  </outline>
</glyph>
<glyph name="braceleft" format="2">
  <advance width="397.93333333333334"/>
  <unicode hex="007B"/>
  <outline>
    <contour>
      <point x="215.86666666666667" y="-128.0" type="curve" smooth="yes"/>
      <point x="277.1" y="-128.0" type="line"/>
      <point x="286.1" y="-85.36666666666666" type="line"/>
      <point x="257.56666666666666" y="-85.36666666666666" type="line" smooth="yes"/>
      <point x="216.96666666666667" y="-85.36666666666666"/>
      <point x="198.8" y="-64.1"/>
      <point x="198.8" y="-24.2" type="curve" smooth="yes"/>
      <point x="198.8" y="-11.833333333333334"/>
      <point x="200.8" y="2.9000000000000004"/>
      <point x="204.16666666666666" y="19.633333333333333" type="curve" smooth="yes"/>
      <point x="240.8" y="188.33333333333334" type="line" smooth="yes"/>
      <point x="243.16666666666666" y="200.43333333333334"/>
      <point x="245.53333333333333" y="212.63333333333333"/>
      <point x="245.53333333333333" y="225.2" type="curve" smooth="yes"/>
      <point x="245.53333333333333" y="272.1"/>
      <point x="218.1" y="304.3666666666667"/>
      <point x="164.23333333333332" y="314.0" type="curve"/>
      <point x="164.23333333333332" y="317.6333333333333" type="line"/>
      <point x="238.1" y="330.26666666666665"/>
      <point x="279.1666666666667" y="373.6333333333333"/>
      <point x="293.1666666666667" y="440.0" type="curve" smooth="yes"/>
      <point x="329.43333333333334" y="609.4333333333333" type="line" smooth="yes"/>
      <point x="345.1666666666667" y="682.5666666666667"/>
      <point x="374.3333333333333" y="717.3666666666667"/>
      <point x="428.2" y="717.3666666666667" type="curve" smooth="yes"/>
      <point x="456.73333333333335" y="717.3666666666667" type="line"/>
      <point x="466.1" y="760.0" type="line"/>
      <point x="405.23333333333335" y="760.0" type="line" smooth="yes"/>
      <point x="291.06666666666666" y="760.0"/>
      <point x="256.56666666666666" y="706.9333333333333"/>
      <point x="236.46666666666667" y="616.0" type="curve" smooth="yes"/>
      <point x="198.73333333333335" y="443.0" type="line" smooth="yes"/>
      <point x="180.36666666666667" y="360.6333333333333"/>
      <point x="129.13333333333333" y="340.6333333333333"/>
      <point x="67.9" y="337.6333333333333" type="curve"/>
      <point x="58.9" y="296.3666666666667" type="line"/>
      <point x="110.13333333333334" y="294.3666666666667"/>
      <point x="149.1" y="277.3666666666667"/>
      <point x="149.1" y="223.83333333333334" type="curve" smooth="yes"/>
      <point x="149.1" y="213.1"/>
      <point x="148.1" y="202.0"/>
      <point x="145.1" y="189.63333333333333" type="curve" smooth="yes"/>
      <point x="109.93333333333334" y="22.333333333333332" type="line" smooth="yes"/>
      <point x="106.2" y="4.3999999999999995"/>
      <point x="103.46666666666667" y="-11.433333333333334"/>
      <point x="103.46666666666667" y="-28.1" type="curve" smooth="yes"/>
      <point x="103.46666666666667" y="-93.1"/>
      <point x="143.36666666666667" y="-128.0"/>
    </contour>
  </outline>
</glyph>
<glyph name="braceright" format="2">
  <advance width="397.56666666666666"/>
  <unicode hex="007D"/>
  <outline>
    <contour>
      <point x="-48.9" y="-128.36666666666667" type="line"/>
      <point x="11.966666666666667" y="-128.36666666666667" type="line" smooth="yes"/>
      <point x="128.7" y="-128.36666666666667"/>
      <point x="161.73333333333335" y="-74.93333333333334"/>
      <point x="181.1" y="15.633333333333333" type="curve" smooth="yes"/>
      <point x="218.1" y="189.63333333333333" type="line" smooth="yes"/>
      <point x="235.46666666666667" y="272.0"/>
      <point x="288.06666666666666" y="293.3666666666667"/>
      <point x="348.93333333333334" y="296.3666666666667" type="curve"/>
      <point x="358.3" y="337.6333333333333" type="line"/>
      <point x="307.06666666666666" y="339.6333333333333"/>
      <point x="267.73333333333335" y="355.26666666666665"/>
      <point x="267.73333333333335" y="409.1666666666667" type="curve" smooth="yes"/>
      <point x="267.73333333333335" y="420.6333333333333"/>
      <point x="269.1" y="430.6333333333333"/>
      <point x="272.1" y="443.0" type="curve" smooth="yes"/>
      <point x="308.73333333333335" y="617.3666666666667" type="line" smooth="yes"/>
      <point x="312.1" y="633.4666666666667"/>
      <point x="313.73333333333335" y="647.1"/>
      <point x="313.73333333333335" y="660.8333333333334" type="curve" smooth="yes"/>
      <point x="313.73333333333335" y="720.3333333333334"/>
      <point x="277.1333333333333" y="760.0"/>
      <point x="203.53333333333333" y="760.0" type="curve" smooth="yes"/>
      <point x="140.1" y="760.0" type="line"/>
      <point x="131.1" y="717.3666666666667" type="line"/>
      <point x="159.63333333333333" y="717.3666666666667" type="line" smooth="yes"/>
      <point x="200.23333333333332" y="717.3666666666667"/>
      <point x="218.4" y="696.8333333333334"/>
      <point x="218.4" y="658.7666666666667" type="curve" smooth="yes"/>
      <point x="218.4" y="642.7333333333333"/>
      <point x="216.4" y="628.7333333333333"/>
      <point x="213.03333333333333" y="612.0" type="curve" smooth="yes"/>
      <point x="176.4" y="443.56666666666666" type="line" smooth="yes"/>
      <point x="174.03333333333333" y="431.46666666666664"/>
      <point x="171.66666666666666" y="420.0"/>
      <point x="171.66666666666666" y="407.8" type="curve" smooth="yes"/>
      <point x="171.66666666666666" y="360.9"/>
      <point x="198.73333333333335" y="330.0"/>
      <point x="252.6" y="320.0" type="curve"/>
      <point x="252.6" y="316.0" type="line"/>
      <point x="179.1" y="303.3666666666667"/>
      <point x="137.66666666666666" y="259.0"/>
      <point x="123.66666666666667" y="193.0" type="curve" smooth="yes"/>
      <point x="86.66666666666667" y="19.633333333333333" type="line" smooth="yes"/>
      <point x="70.93333333333334" y="-52.03333333333333"/>
      <point x="43.6" y="-85.73333333333333"/>
      <point x="-11.0" y="-85.73333333333333" type="curve" smooth="yes"/>
      <point x="-39.9" y="-85.73333333333333" type="line"/>
    </contour>
  </outline>
</glyph>
<glyph name="asciitilde" format="2">
  <advance width="509.8666666666667"/>
  <unicode hex="007E"/>
  <outline>
    <contour>
      <point x="50.7" y="269.3666666666667" type="curve"/>
      <point x="107.86666666666667" y="269.3666666666667" type="line"/>
      <point x="114.5" y="348.46666666666664"/>
      <point x="130.03333333333333" y="386.46666666666664"/>
      <point x="166.46666666666667" y="386.46666666666664" type="curve" smooth="yes"/>
      <point x="193.8" y="386.46666666666664"/>
      <point x="214.13333333333333" y="364.93333333333334"/>
      <point x="244.4" y="333.1" type="curve" smooth="yes"/>
      <point x="285.06666666666666" y="289.4"/>
      <point x="316.6666666666667" y="269.3666666666667"/>
      <point x="357.43333333333334" y="269.3666666666667" type="curve" smooth="yes"/>
      <point x="443.0" y="269.3666666666667"/>
      <point x="463.3666666666667" y="370.23333333333335"/>
      <point x="470.6333333333333" y="444.0" type="curve"/>
      <point x="412.8333333333333" y="444.0" type="line"/>
      <point x="404.93333333333334" y="367.43333333333334"/>
      <point x="391.4" y="326.9"/>
      <point x="356.6" y="326.9" type="curve" smooth="yes"/>
      <point x="331.1666666666667" y="326.9"/>
      <point x="309.2" y="349.43333333333334"/>
      <point x="280.8333333333333" y="378.0" type="curve" smooth="yes"/>
      <point x="237.86666666666667" y="419.9"/>
      <point x="208.43333333333334" y="444.0"/>
      <point x="165.0" y="444.0" type="curve" smooth="yes"/>
      <point x="77.7" y="444.0"/>
      <point x="57.333333333333336" y="348.93333333333334"/>
    </contour>
  </outline>
</glyph>
<glyph name="twosuperior" format="2">
  <advance width="370.6666666666667"/>
  <unicode hex="00B2"/>
  <outline>
    <contour>
      <point x="58.1" y="386.0" type="line"/>
      <point x="340.2" y="386.0" type="line"/>
      <point x="367.8333333333333" y="503.9" type="line"/>
      <point x="336.03333333333336" y="503.9" type="line"/>
      <point x="328.4" y="482.9" type="line" smooth="yes"/>
      <point x="320.76666666666665" y="460.9"/>
      <point x="307.5" y="441.9"/>
      <point x="278.7" y="441.9" type="curve" smooth="yes"/>
      <point x="149.13333333333333" y="441.9" type="line"/>
      <point x="260.7" y="536.1666666666666" type="line" smooth="yes"/>
      <point x="364.6666666666667" y="624.7333333333333"/>
      <point x="394.6666666666667" y="671.1"/>
      <point x="394.6666666666667" y="730.4666666666667" type="curve" smooth="yes"/>
      <point x="394.6666666666667" y="786.7333333333333"/>
      <point x="348.06666666666666" y="824.0"/>
      <point x="274.3" y="824.0" type="curve" smooth="yes"/>
      <point x="186.26666666666668" y="824.0"/>
      <point x="132.93333333333334" y="781.8666666666667"/>
      <point x="132.93333333333334" y="733.7" type="curve" smooth="yes"/>
      <point x="132.93333333333334" y="706.0666666666667"/>
      <point x="154.73333333333332" y="686.8"/>
      <point x="191.06666666666666" y="686.8" type="curve"/>
      <point x="198.06666666666666" y="737.9"/>
      <point x="224.86666666666667" y="784.0"/>
      <point x="266.93333333333334" y="784.0" type="curve" smooth="yes"/>
      <point x="301.0" y="784.0"/>
      <point x="313.6333333333333" y="756.4666666666667"/>
      <point x="313.6333333333333" y="726.0" type="curve" smooth="yes"/>
      <point x="313.6333333333333" y="664.3"/>
      <point x="287.1666666666667" y="615.9333333333333"/>
      <point x="206.73333333333335" y="543.6333333333333" type="curve" smooth="yes"/>
      <point x="64.56666666666666" y="417.8333333333333" type="line"/>
    </contour>
  </outline>
</glyph>
<glyph name="threesuperior" format="2">
  <advance width="370.6666666666667"/>
  <unicode hex="00B3"/>
  <outline>
    <contour>
      <point x="200.1" y="380.0" type="curve" smooth="yes"/>
      <point x="305.3" y="380.0"/>
      <point x="380.9" y="428.73333333333335"/>
      <point x="380.9" y="518.0" type="curve" smooth="yes"/>
      <point x="380.9" y="571.1666666666666"/>
      <point x="344.93333333333334" y="603.3666666666667"/>
      <point x="289.06666666666666" y="610.3666666666667" type="curve"/>
      <point x="289.7" y="614.6333333333333" type="line"/>
      <point x="358.6666666666667" y="630.3666666666667"/>
      <point x="410.3666666666667" y="663.7333333333333"/>
      <point x="410.3666666666667" y="734.4666666666667" type="curve" smooth="yes"/>
      <point x="410.3666666666667" y="783.7333333333333"/>
      <point x="371.03333333333336" y="824.0"/>
      <point x="286.0" y="824.0" type="curve" smooth="yes"/>
      <point x="196.23333333333332" y="824.0"/>
      <point x="142.53333333333333" y="785.2666666666667"/>
      <point x="142.53333333333333" y="738.2666666666667" type="curve" smooth="yes"/>
      <point x="142.53333333333333" y="706.6333333333333"/>
      <point x="166.33333333333334" y="697.0"/>
      <point x="203.03333333333333" y="697.0" type="curve"/>
      <point x="212.4" y="743.0"/>
      <point x="233.46666666666667" y="783.6333333333333"/>
      <point x="281.53333333333336" y="783.6333333333333" type="curve" smooth="yes"/>
      <point x="310.9666666666667" y="783.6333333333333"/>
      <point x="325.7" y="764.3666666666667"/>
      <point x="325.7" y="735.1666666666666" type="curve" smooth="yes"/>
      <point x="325.7" y="669.3666666666667"/>
      <point x="273.9" y="630.0"/>
      <point x="219.83333333333334" y="630.0" type="curve" smooth="yes"/>
      <point x="189.03333333333333" y="630.0" type="line"/>
      <point x="181.03333333333333" y="589.3666666666667" type="line"/>
      <point x="211.46666666666667" y="589.3666666666667" type="line" smooth="yes"/>
      <point x="270.8" y="589.3666666666667"/>
      <point x="296.6" y="556.5666666666667"/>
      <point x="296.6" y="514.7333333333333" type="curve" smooth="yes"/>
      <point x="296.6" y="450.3666666666667"/>
      <point x="257.06666666666666" y="425.0"/>
      <point x="207.1" y="425.0" type="curve" smooth="yes"/>
      <point x="152.03333333333333" y="425.0"/>
      <point x="131.23333333333332" y="471.6333333333333"/>
      <point x="131.96666666666667" y="511.0" type="curve"/>
      <point x="101.43333333333334" y="511.0"/>
      <point x="77.16666666666667" y="492.26666666666665"/>
      <point x="77.16666666666667" y="456.6333333333333" type="curve" smooth="yes"/>
      <point x="77.16666666666667" y="410.73333333333335"/>
      <point x="120.5" y="380.0"/>
    </contour>
  </outline>
</glyph>
<glyph name="multiply" format="2">
  <advance width="509.8666666666667"/>
  <unicode hex="00D7"/>
  <outline>
    <contour>
      <point x="109.33333333333333" y="150.36666666666667" type="line"/>
      <point x="261.4" y="315.26666666666665" type="line"/>
      <point x="413.1" y="150.36666666666667" type="line"/>
      <point x="455.4666666666667" y="189.8" type="line"/>
      <point x="300.8333333333333" y="358.0" type="line"/>
      <point x="455.4666666666667" y="525.8333333333334" type="line"/>
      <point x="413.1" y="565.9" type="line"/>
      <point x="261.4" y="401.1" type="line"/>
      <point x="109.33333333333333" y="565.6333333333333" type="line"/>
      <point x="66.96666666666667" y="526.2" type="line"/>
      <point x="221.96666666666667" y="358.6333333333333" type="line"/>
      <point x="66.96666666666667" y="190.06666666666666" type="line"/>
    </contour>
  </outline>
</glyph>
<glyph name="divide" format="2">
  <advance width="509.8666666666667"/>
  <unicode hex="00F7"/>
  <outline>
    <contour>
      <point x="62.43333333333334" y="328.3666666666667" type="line"/>
      <point x="458.43333333333334" y="328.3666666666667" type="line"/>
      <point x="458.43333333333334" y="386.6333333333333" type="line"/>
      <point x="62.43333333333334" y="386.6333333333333" type="line"/>
    </contour>
    <contour>
      <point x="261.3" y="113.36666666666666" type="curve" smooth="yes"/>
      <point x="287.4666666666667" y="113.36666666666666"/>
      <point x="309.3666666666667" y="127.36666666666666"/>
      <point x="309.3666666666667" y="168.0" type="curve" smooth="yes"/>
      <point x="309.3666666666667" y="209.63333333333333"/>
      <point x="287.4666666666667" y="222.63333333333333"/>
      <point x="261.3" y="222.63333333333333" type="curve" smooth="yes"/>
      <point x="233.4" y="222.63333333333333"/>
      <point x="212.86666666666667" y="209.63333333333333"/>
      <point x="212.86666666666667" y="168.0" type="curve" smooth="yes"/>
      <point x="212.86666666666667" y="127.36666666666666"/>
      <point x="233.4" y="113.36666666666666"/>
    </contour>
    <contour>
      <point x="261.3" y="492.3666666666667" type="curve" smooth="yes"/>
      <point x="287.4666666666667" y="492.3666666666667"/>
      <point x="309.3666666666667" y="506.3666666666667"/>
      <point x="309.3666666666667" y="547.0" type="curve" smooth="yes"/>
      <point x="309.3666666666667" y="588.6333333333333"/>
      <point x="287.4666666666667" y="601.6333333333333"/>
      <point x="261.3" y="601.6333333333333" type="curve" smooth="yes"/>
      <point x="233.4" y="601.6333333333333"/>
      <point x="212.86666666666667" y="588.6333333333333"/>
      <point x="212.86666666666667" y="547.0" type="curve" smooth="yes"/>
      <point x="212.86666666666667" y="506.3666666666667"/>
      <point x="233.4" y="492.3666666666667"/>
    </contour>
  </outline>
</glyph>
<glyph name="udatta-deva" format="2">
  <unicode hex="0951"/>
  <anchor x="59.0" y="554.0" name="_vedic"/>
  <outline>
    <contour>
      <point x="110.1" y="913.8333333333334" type="line"/>
      <point x="161.63333333333333" y="913.8333333333334" type="line"/>
      <point x="202.63333333333333" y="1108.8333333333333" type="line"/>
      <point x="151.1" y="1108.8333333333333" type="line"/>
    </contour>
  </outline>
</glyph>
<glyph name="anudatta-deva" format="2">
  <unicode hex="0952"/>
  <anchor x="-59.0" y="0.0" name="_bottom"/>
  <outline>
    <contour>
      <point x="-377.76666666666665" y="-538.2" type="line"/>
      <point x="31.433333333333334" y="-538.2" type="line"/>
      <point x="45.43333333333334" y="-471.2" type="line"/>
      <point x="-363.76666666666665" y="-471.2" type="line"/>
    </contour>
  </outline>
</glyph>
<glyph name="danda-deva" format="2">
  <advance width="277.73333333333335"/>
  <unicode hex="0964"/>
  <outline>
    <contour>
      <point x="34.46666666666667" y="0.0" type="line"/>
      <point x="125.63333333333334" y="0.0" type="line"/>
      <point x="243.63333333333333" y="554.0" type="line"/>
      <point x="152.1" y="554.0" type="line"/>
    </contour>
  </outline>
</glyph>
<glyph name="dbldanda-deva" format="2">
  <advance width="498.3333333333333"/>
  <unicode hex="0965"/>
  <outline>
    <contour>
      <point x="255.06666666666666" y="0.0" type="line"/>
      <point x="346.23333333333335" y="0.0" type="line"/>
      <point x="464.23333333333335" y="554.0" type="line"/>
      <point x="372.7" y="554.0" type="line"/>
    </contour>
    <contour>
      <point x="34.46666666666667" y="0.0" type="line"/>
      <point x="125.63333333333334" y="0.0" type="line"/>
      <point x="243.63333333333333" y="554.0" type="line"/>
      <point x="152.1" y="554.0" type="line"/>
    </contour>
  </outline>
</glyph>
<glyph name="anusvara-tamil" format="2">
  <unicode hex="0B82"/>
  <note>
uni0B82
</note>
  <anchor x="59.0" y="554.0" name="_top"/>
  <outline>
    <contour>
      <point x="99.53333333333333" y="633.0" type="curve" smooth="yes"/>
      <point x="165.86666666666667" y="633.0"/>
      <point x="214.3" y="678.0666666666667"/>
      <point x="214.3" y="744.7666666666667" type="curve" smooth="yes"/>
      <point x="214.3" y="811.7333333333333"/>
      <point x="165.86666666666667" y="857.1666666666666"/>
      <point x="99.53333333333333" y="857.1666666666666" type="curve" smooth="yes"/>
      <point x="33.2" y="857.1666666666666"/>
      <point x="-15.233333333333334" y="811.7333333333333"/>
      <point x="-15.233333333333334" y="744.7666666666667" type="curve" smooth="yes"/>
      <point x="-15.233333333333334" y="678.0666666666667"/>
      <point x="33.2" y="633.0"/>
    </contour>
    <contour>
      <point x="99.53333333333333" y="687.0" type="curve" smooth="yes"/>
      <point x="66.2" y="687.0"/>
      <point x="43.13333333333333" y="710.4333333333333"/>
      <point x="43.13333333333333" y="744.7666666666667" type="curve" smooth="yes"/>
      <point x="43.13333333333333" y="779.7333333333333"/>
      <point x="66.2" y="803.1666666666666"/>
      <point x="99.53333333333333" y="803.1666666666666" type="curve" smooth="yes"/>
      <point x="132.86666666666667" y="803.1666666666666"/>
      <point x="155.93333333333334" y="779.7333333333333"/>
      <point x="155.93333333333334" y="744.7666666666667" type="curve" smooth="yes"/>
      <point x="155.93333333333334" y="710.4333333333333"/>
      <point x="132.86666666666667" y="687.0"/>
    </contour>
  </outline>
</glyph>
<glyph name="visarga-tamil" format="2">
  <advance width="806.2666666666667"/>
  <unicode hex="0B83"/>
  <note>
uni0B83
</note>
  <outline>
    <contour>
      <point x="157.46666666666667" y="0.0" type="curve" smooth="yes"/>
      <point x="258.26666666666665" y="0.0"/>
      <point x="344.0" y="92.1"/>
      <point x="344.3666666666667" y="220.6" type="curve" smooth="yes"/>
      <point x="344.73333333333335" y="321.0"/>
      <point x="286.0" y="369.0"/>
      <point x="209.06666666666666" y="369.0" type="curve" smooth="yes"/>
      <point x="99.2" y="369.0"/>
      <point x="30.066666666666666" y="252.0"/>
      <point x="30.066666666666666" y="148.26666666666668" type="curve" smooth="yes"/>
      <point x="30.066666666666666" y="63.03333333333333"/>
      <point x="75.66666666666667" y="0.0"/>
    </contour>
    <contour>
      <point x="152.4" y="50.833333333333336" type="curve" smooth="yes"/>
      <point x="101.1" y="50.833333333333336"/>
      <point x="77.7" y="92.06666666666666"/>
      <point x="77.7" y="151.73333333333335" type="curve" smooth="yes"/>
      <point x="77.7" y="225.53333333333333"/>
      <point x="121.03333333333333" y="318.8"/>
      <point x="196.6" y="318.8" type="curve" smooth="yes"/>
      <point x="243.63333333333333" y="318.8"/>
      <point x="273.3" y="289.6333333333333"/>
      <point x="273.3" y="226.86666666666667" type="curve" smooth="yes"/>
      <point x="273.3" y="134.3"/>
      <point x="225.9" y="50.833333333333336"/>
    </contour>
    <contour>
      <point x="548.3" y="0.0" type="curve" smooth="yes"/>
      <point x="649.1" y="0.0"/>
      <point x="734.8333333333334" y="92.1"/>
      <point x="735.2" y="220.6" type="curve" smooth="yes"/>
      <point x="735.5666666666667" y="321.0"/>
      <point x="676.8333333333334" y="369.0"/>
      <point x="599.9" y="369.0" type="curve" smooth="yes"/>
      <point x="490.03333333333336" y="369.0"/>
      <point x="420.9" y="252.0"/>
      <point x="420.9" y="148.26666666666668" type="curve" smooth="yes"/>
      <point x="420.9" y="63.03333333333333"/>
      <point x="466.5" y="0.0"/>
    </contour>
    <contour>
      <point x="543.2333333333333" y="50.833333333333336" type="curve" smooth="yes"/>
      <point x="491.93333333333334" y="50.833333333333336"/>
      <point x="468.53333333333336" y="92.06666666666666"/>
      <point x="468.53333333333336" y="151.73333333333335" type="curve" smooth="yes"/>
      <point x="468.53333333333336" y="225.53333333333333"/>
      <point x="511.8666666666667" y="318.8"/>
      <point x="587.4333333333334" y="318.8" type="curve" smooth="yes"/>
      <point x="634.4666666666667" y="318.8"/>
      <point x="664.1333333333333" y="289.6333333333333"/>
      <point x="664.1333333333333" y="226.86666666666667" type="curve" smooth="yes"/>
      <point x="664.1333333333333" y="134.3"/>
      <point x="616.7333333333333" y="50.833333333333336"/>
    </contour>
    <contour>
      <point x="438.3" y="412.0" type="curve" smooth="yes"/>
      <point x="539.1" y="412.0"/>
      <point x="624.8333333333334" y="504.1"/>
      <point x="625.2" y="632.6" type="curve" smooth="yes"/>
      <point x="625.5666666666667" y="733.0"/>
      <point x="566.8333333333334" y="781.0"/>
      <point x="489.9" y="781.0" type="curve" smooth="yes"/>
      <point x="380.03333333333336" y="781.0"/>
      <point x="310.9" y="664.0"/>
      <point x="310.9" y="560.2666666666667" type="curve" smooth="yes"/>
      <point x="310.9" y="475.03333333333336"/>
      <point x="356.5" y="412.0"/>
    </contour>
    <contour>
      <point x="433.23333333333335" y="462.8333333333333" type="curve" smooth="yes"/>
      <point x="381.93333333333334" y="462.8333333333333"/>
      <point x="358.53333333333336" y="504.06666666666666"/>
      <point x="358.53333333333336" y="563.7333333333333" type="curve" smooth="yes"/>
      <point x="358.53333333333336" y="637.5333333333333"/>
      <point x="401.8666666666667" y="730.8"/>
      <point x="477.43333333333334" y="730.8" type="curve" smooth="yes"/>
      <point x="524.4666666666667" y="730.8"/>
      <point x="554.1333333333333" y="701.6333333333333"/>
      <point x="554.1333333333333" y="638.8666666666667" type="curve" smooth="yes"/>
      <point x="554.1333333333333" y="546.3"/>
      <point x="506.73333333333335" y="462.8333333333333"/>
    </contour>
  </outline>
</glyph>
<glyph name="a-tamil" format="2">
  <advance width="1172.4333333333334"/>
  <unicode hex="0B85"/>
  <note>
uni0B85
</note>
  <anchor x="506.9" y="0.0" name="bottom"/>
  <anchor x="320.3" y="-122.0" name="nukta"/>
  <anchor x="626.4666666666667" y="554.0" name="top"/>
  <anchor x="627.2" y="554.0" name="vedic"/>
  <outline>
    <contour>
      <point x="892.1666666666666" y="-193.5" type="line"/>
      <point x="983.3333333333334" y="-193.5" type="line"/>
      <point x="1142.2333333333333" y="554.0" type="line"/>
      <point x="1051.0666666666666" y="554.0" type="line"/>
      <point x="969.7" y="171.0" type="line"/>
      <point x="88.1" y="171.0" type="line" smooth="yes"/>
      <point x="27.766666666666666" y="171.0"/>
      <point x="-3.833333333333333" y="135.9"/>
      <point x="-3.833333333333333" y="81.1" type="curve" smooth="yes"/>
      <point x="-3.833333333333333" y="-10.166666666666666"/>
      <point x="129.43333333333334" y="-122.0"/>
      <point x="336.1333333333333" y="-122.0" type="curve" smooth="yes"/>
      <point x="625.1666666666666" y="-122.0"/>
      <point x="853.3333333333334" y="24.833333333333332"/>
      <point x="853.3333333333334" y="303.53333333333336" type="curve" smooth="yes"/>
      <point x="853.3333333333334" y="474.1"/>
      <point x="736.3666666666667" y="559.0"/>
      <point x="590.5" y="559.0" type="curve" smooth="yes"/>
      <point x="463.56666666666666" y="559.0"/>
      <point x="359.06666666666666" y="481.1666666666667"/>
      <point x="359.06666666666666" y="367.7" type="curve" smooth="yes"/>
      <point x="359.06666666666666" y="304.26666666666665"/>
      <point x="401.2" y="247.0"/>
      <point x="485.3" y="247.0" type="curve" smooth="yes"/>
      <point x="574.0" y="247.0"/>
      <point x="634.9666666666667" y="301.03333333333336"/>
      <point x="634.9666666666667" y="391.1666666666667" type="curve" smooth="yes"/>
      <point x="634.9666666666667" y="452.3333333333333"/>
      <point x="593.7333333333333" y="505.1"/>
      <point x="544.2" y="518.2666666666667" type="curve"/>
      <point x="494.7" y="516.7333333333333" type="line"/>
      <point x="534.1" y="497.56666666666666"/>
      <point x="553.4666666666667" y="451.8333333333333"/>
      <point x="553.4666666666667" y="405.0" type="curve" smooth="yes"/>
      <point x="553.4666666666667" y="343.6666666666667"/>
      <point x="522.9333333333334" y="301.0"/>
      <point x="471.23333333333335" y="301.0" type="curve" smooth="yes"/>
      <point x="433.6333333333333" y="301.0"/>
      <point x="412.03333333333336" y="330.3666666666667"/>
      <point x="412.03333333333336" y="367.9" type="curve" smooth="yes"/>
      <point x="412.03333333333336" y="449.3333333333333"/>
      <point x="486.43333333333334" y="505.0"/>
      <point x="578.6666666666666" y="505.0" type="curve" smooth="yes"/>
      <point x="681.8333333333334" y="505.0"/>
      <point x="760.5333333333333" y="432.23333333333335"/>
      <point x="760.5333333333333" y="300.0" type="curve" smooth="yes"/>
      <point x="760.5333333333333" y="66.9"/>
      <point x="578.3" y="-68.0"/>
      <point x="340.5" y="-68.0" type="curve" smooth="yes"/>
      <point x="166.4" y="-68.0"/>
      <point x="52.333333333333336" y="20.466666666666665"/>
      <point x="52.333333333333336" y="82.46666666666667" type="curve" smooth="yes"/>
      <point x="52.333333333333336" y="104.46666666666667"/>
      <point x="61.43333333333334" y="117.0"/>
      <point x="88.03333333333333" y="117.0" type="curve" smooth="yes"/>
      <point x="958.7" y="117.0" type="line"/>
    </contour>
  </outline>
</glyph>
<glyph name="aa-tamil" format="2">
  <advance width="1321.9666666666667"/>
  <unicode hex="0B86"/>
  <note>
uni0B86
</note>
  <anchor x="583.9666666666667" y="0.0" name="bottom"/>
  <anchor x="319.2" y="-122.0" name="nukta"/>
  <anchor x="712.2333333333333" y="554.0" name="top"/>
  <anchor x="711.9666666666667" y="554.0" name="vedic"/>
  <outline>
    <contour>
      <point x="774.5333333333333" y="-430.53333333333336" type="curve" smooth="yes"/>
      <point x="991.2333333333333" y="-430.53333333333336"/>
      <point x="1220.5666666666666" y="-281.03333333333336"/>
      <point x="1220.5666666666666" y="-72.13333333333334" type="curve" smooth="yes"/>
      <point x="1220.5666666666666" y="9.0"/>
      <point x="1176.2666666666667" y="45.0"/>
      <point x="1119.1" y="45.0" type="curve" smooth="yes"/>
      <point x="1057.7666666666667" y="45.0"/>
      <point x="1001.5333333333333" y="-12.533333333333333"/>
      <point x="978.5333333333333" y="-99.86666666666667" type="curve"/>
      <point x="998.3333333333334" y="-110.4" type="line"/>
      <point x="1009.6" y="-58.8"/>
      <point x="1042.2" y="-34.166666666666664"/>
      <point x="1074.0" y="-34.166666666666664" type="curve" smooth="yes"/>
      <point x="1106.7" y="-34.166666666666664"/>
      <point x="1127.1333333333334" y="-53.43333333333334"/>
      <point x="1127.1333333333334" y="-94.56666666666666" type="curve" smooth="yes"/>
      <point x="1127.1333333333334" y="-251.36666666666667"/>
      <point x="937.8333333333334" y="-376.53333333333336"/>
      <point x="772.4666666666667" y="-376.53333333333336" type="curve" smooth="yes"/>
      <point x="673.9666666666667" y="-376.53333333333336"/>
      <point x="623.7666666666667" y="-341.3"/>
      <point x="623.7666666666667" y="-284.3333333333333" type="curve" smooth="yes"/>
      <point x="623.7666666666667" y="-234.16666666666666"/>
      <point x="670.5666666666667" y="-203.53333333333333"/>
      <point x="740.0666666666667" y="-189.7" type="curve"/>
      <point x="731.5" y="-137.43333333333334" type="line"/>
      <point x="634.9333333333334" y="-158.0"/>
      <point x="568.4" y="-207.16666666666666"/>
      <point x="568.4" y="-291.06666666666666" type="curve" smooth="yes"/>
      <point x="568.4" y="-373.4"/>
      <point x="642.8" y="-430.53333333333336"/>
    </contour>
    <component base="a-tamil"/>
  </outline>
</glyph>
<glyph name="i-tamil" format="2">
  <advance width="910.9666666666667"/>
  <unicode hex="0B87"/>
  <note>
uni0B87
</note>
  <anchor x="372.93333333333334" y="0.0" name="bottom"/>
  <anchor x="319.9" y="-263.1333333333333" name="nukta"/>
  <anchor x="525.5" y="823.8666666666667" name="top"/>
  <anchor x="474.1" y="554.0" name="vedic"/>
  <outline>
    <contour>
      <point x="112.76666666666667" y="-297.0" type="curve" smooth="yes"/>
      <point x="412.6" y="-297.0"/>
      <point x="694.2666666666667" y="28.333333333333332"/>
      <point x="694.2666666666667" y="330.8666666666667" type="curve" smooth="yes"/>
      <point x="694.2666666666667" y="483.4"/>
      <point x="605.2333333333333" y="559.0"/>
      <point x="472.8333333333333" y="559.0" type="curve" smooth="yes"/>
      <point x="353.8" y="559.0"/>
      <point x="254.6" y="470.76666666666665"/>
      <point x="254.6" y="360.3333333333333" type="curve" smooth="yes"/>
      <point x="254.6" y="292.8333333333333"/>
      <point x="303.1666666666667" y="248.0"/>
      <point x="373.23333333333335" y="248.0" type="curve" smooth="yes"/>
      <point x="458.06666666666666" y="248.0"/>
      <point x="521.6666666666666" y="302.56666666666666"/>
      <point x="521.6666666666666" y="390.43333333333334" type="curve" smooth="yes"/>
      <point x="521.6666666666666" y="446.56666666666666"/>
      <point x="494.03333333333336" y="499.8"/>
      <point x="434.4666666666667" y="517.0" type="curve"/>
      <point x="384.76666666666665" y="513.2666666666667" type="line"/>
      <point x="423.8" y="492.73333333333335"/>
      <point x="441.9" y="456.26666666666665"/>
      <point x="441.9" y="406.9" type="curve" smooth="yes"/>
      <point x="441.9" y="352.6333333333333"/>
      <point x="414.3666666666667" y="301.26666666666665"/>
      <point x="360.8666666666667" y="301.26666666666665" type="curve" smooth="yes"/>
      <point x="329.26666666666665" y="301.26666666666665"/>
      <point x="308.2" y="324.8"/>
      <point x="308.2" y="363.96666666666664" type="curve" smooth="yes"/>
      <point x="308.2" y="440.2"/>
      <point x="372.3" y="505.0"/>
      <point x="460.0" y="505.0" type="curve" smooth="yes"/>
      <point x="549.7333333333333" y="505.0"/>
      <point x="606.2" y="445.1333333333333"/>
      <point x="606.2" y="339.23333333333335" type="curve" smooth="yes"/>
      <point x="606.2" y="60.3"/>
      <point x="382.6" y="-243.0"/>
      <point x="124.73333333333333" y="-243.0" type="curve" smooth="yes"/>
      <point x="58.86666666666667" y="-243.0"/>
      <point x="18.3" y="-210.26666666666668"/>
      <point x="18.3" y="-153.56666666666666" type="curve" smooth="yes"/>
      <point x="18.3" y="-21.7"/>
      <point x="203.76666666666668" y="57.0"/>
      <point x="364.6333333333333" y="57.0" type="curve" smooth="yes"/>
      <point x="508.8333333333333" y="57.0"/>
      <point x="668.6333333333333" y="-4.533333333333333"/>
      <point x="668.6333333333333" y="-121.2" type="curve" smooth="yes"/>
      <point x="668.6333333333333" y="-206.8"/>
      <point x="609.1666666666666" y="-243.0"/>
      <point x="519.8666666666667" y="-243.0" type="curve" smooth="yes"/>
      <point x="321.23333333333335" y="-243.0"/>
      <point x="135.03333333333333" y="11.466666666666667"/>
      <point x="135.03333333333333" y="281.8666666666667" type="curve" smooth="yes"/>
      <point x="135.03333333333333" y="540.4"/>
      <point x="258.0" y="734.2333333333333"/>
      <point x="511.5" y="734.2333333333333" type="curve" smooth="yes"/>
      <point x="729.1333333333333" y="734.2333333333333"/>
      <point x="855.8" y="587.4333333333333"/>
      <point x="800.7333333333333" y="334.96666666666664" type="curve" smooth="yes"/>
      <point x="746.6" y="86.0" type="line"/>
      <point x="802.5" y="86.0" type="line"/>
      <point x="857.0" y="337.1666666666667" type="line" smooth="yes"/>
      <point x="922.8666666666667" y="640.2"/>
      <point x="790.4" y="823.8666666666667"/>
      <point x="525.5" y="823.8666666666667" type="curve" smooth="yes"/>
      <point x="238.2" y="823.8666666666667"/>
      <point x="73.96666666666667" y="594.3"/>
      <point x="73.96666666666667" y="289.3666666666667" type="curve" smooth="yes"/>
      <point x="73.96666666666667" y="-15.7"/>
      <point x="280.6666666666667" y="-297.0"/>
      <point x="534.6666666666666" y="-297.0" type="curve" smooth="yes"/>
      <point x="644.2333333333333" y="-297.0"/>
      <point x="731.7" y="-241.26666666666668"/>
      <point x="731.7" y="-123.2" type="curve" smooth="yes"/>
      <point x="731.7" y="31.833333333333336"/>
      <point x="551.1666666666666" y="110.0"/>
      <point x="368.8" y="110.0" type="curve" smooth="yes"/>
      <point x="161.53333333333333" y="110.0"/>
      <point x="-46.4" y="7.2666666666666675"/>
      <point x="-46.4" y="-165.0" type="curve" smooth="yes"/>
      <point x="-46.4" y="-246.06666666666666"/>
      <point x="15.0" y="-297.0"/>
    </contour>
  </outline>
</glyph>
<glyph name="ii-tamil" format="2">
  <advance width="691.0"/>
  <unicode hex="0B88"/>
  <note>
uni0B88
</note>
  <anchor x="301.9666666666667" y="0.0" name="bottom"/>
  <anchor x="302.3333333333333" y="0.0" name="nukta"/>
  <anchor x="421.6" y="554.0" name="top"/>
  <anchor x="421.9666666666667" y="554.0" name="vedic"/>
  <outline>
    <contour>
      <point x="30.566666666666666" y="0.0" type="line"/>
      <point x="88.36666666666667" y="0.0" type="line"/>
      <point x="194.36666666666667" y="500.0" type="line"/>
      <point x="433.23333333333335" y="500.0" type="line"/>
      <point x="326.6" y="0.0" type="line"/>
      <point x="417.76666666666665" y="0.0" type="line"/>
      <point x="523.7666666666667" y="500.0" type="line"/>
      <point x="690.4" y="500.0" type="line"/>
      <point x="702.4" y="554.0" type="line"/>
      <point x="148.2" y="554.0" type="line"/>
    </contour>
    <contour>
      <point x="261.53333333333336" y="212.1" type="curve" smooth="yes"/>
      <point x="291.1666666666667" y="212.1"/>
      <point x="314.1666666666667" y="236.36666666666667"/>
      <point x="314.1666666666667" y="264.0" type="curve" smooth="yes"/>
      <point x="314.1666666666667" y="291.6333333333333"/>
      <point x="291.1666666666667" y="315.6333333333333"/>
      <point x="261.53333333333336" y="315.6333333333333" type="curve" smooth="yes"/>
      <point x="231.9" y="315.6333333333333"/>
      <point x="208.9" y="291.6333333333333"/>
      <point x="208.9" y="264.0" type="curve" smooth="yes"/>
      <point x="208.9" y="236.36666666666667"/>
      <point x="231.9" y="212.1"/>
    </contour>
    <contour>
      <point x="590.6666666666666" y="212.1" type="curve" smooth="yes"/>
      <point x="620.3" y="212.1"/>
      <point x="643.3" y="236.36666666666667"/>
      <point x="643.3" y="264.0" type="curve" smooth="yes"/>
      <point x="643.3" y="291.6333333333333"/>
      <point x="620.3" y="315.6333333333333"/>
      <point x="590.6666666666666" y="315.6333333333333" type="curve" smooth="yes"/>
      <point x="561.0333333333333" y="315.6333333333333"/>
      <point x="538.0333333333333" y="291.6333333333333"/>
      <point x="538.0333333333333" y="264.0" type="curve" smooth="yes"/>
      <point x="538.0333333333333" y="236.36666666666667"/>
      <point x="561.0333333333333" y="212.1"/>
    </contour>
  </outline>
</glyph>
<glyph name="u-tamil" format="2">
  <advance width="904.3333333333334"/>
  <unicode hex="0B89"/>
  <note>
uni0B89
</note>
  <anchor x="423.56666666666666" y="0.0" name="bottom"/>
  <anchor x="423.93333333333334" y="0.0" name="nukta"/>
  <anchor x="544.3" y="554.0" name="top"/>
  <anchor x="544.5666666666667" y="554.0" name="vedic"/>
  <outline>
    <contour>
      <point x="90.3" y="0.0" type="curve" smooth="yes"/>
      <point x="823.0333333333333" y="0.0" type="line"/>
      <point x="834.6666666666666" y="54.0" type="line"/>
      <point x="94.76666666666667" y="54.0" type="line" smooth="yes"/>
      <point x="74.03333333333333" y="54.0"/>
      <point x="58.03333333333333" y="67.2"/>
      <point x="58.03333333333333" y="91.0" type="curve" smooth="yes"/>
      <point x="58.03333333333333" y="120.1"/>
      <point x="82.03333333333333" y="135.0"/>
      <point x="106.36666666666667" y="135.0" type="curve" smooth="yes"/>
      <point x="321.2" y="135.0" type="line" smooth="yes"/>
      <point x="478.6666666666667" y="135.0"/>
      <point x="603.8" y="212.76666666666668"/>
      <point x="603.8" y="364.03333333333336" type="curve" smooth="yes"/>
      <point x="603.8" y="495.73333333333335"/>
      <point x="500.8666666666667" y="559.0"/>
      <point x="377.53333333333336" y="559.0" type="curve" smooth="yes"/>
      <point x="251.6" y="559.0"/>
      <point x="142.43333333333334" y="477.03333333333336"/>
      <point x="142.43333333333334" y="368.4" type="curve" smooth="yes"/>
      <point x="142.43333333333334" y="306.23333333333335"/>
      <point x="181.5" y="247.0"/>
      <point x="267.2" y="247.0" type="curve" smooth="yes"/>
      <point x="354.23333333333335" y="247.0"/>
      <point x="418.2" y="301.2"/>
      <point x="418.2" y="388.6666666666667" type="curve" smooth="yes"/>
      <point x="418.2" y="449.1"/>
      <point x="380.06666666666666" y="499.46666666666664"/>
      <point x="333.53333333333336" y="519.0" type="curve"/>
      <point x="284.93333333333334" y="516.0" type="line"/>
      <point x="318.26666666666665" y="488.3"/>
      <point x="337.06666666666666" y="446.26666666666665"/>
      <point x="337.06666666666666" y="402.0" type="curve" smooth="yes"/>
      <point x="337.06666666666666" y="343.4"/>
      <point x="309.73333333333335" y="301.0"/>
      <point x="254.76666666666668" y="301.0" type="curve" smooth="yes"/>
      <point x="212.83333333333334" y="301.0"/>
      <point x="195.76666666666668" y="334.3333333333333"/>
      <point x="195.76666666666668" y="371.1333333333333" type="curve" smooth="yes"/>
      <point x="195.76666666666668" y="446.5"/>
      <point x="274.1" y="505.0"/>
      <point x="363.1666666666667" y="505.0" type="curve" smooth="yes"/>
      <point x="449.8" y="505.0"/>
      <point x="513.0" y="460.46666666666664"/>
      <point x="513.0" y="363.8666666666667" type="curve" smooth="yes"/>
      <point x="513.0" y="253.23333333333332"/>
      <point x="434.5" y="188.0"/>
      <point x="319.56666666666666" y="188.0" type="curve" smooth="yes"/>
      <point x="113.26666666666667" y="188.0" type="line" smooth="yes"/>
      <point x="46.03333333333333" y="188.0"/>
      <point x="1.8666666666666671" y="144.63333333333333"/>
      <point x="1.8666666666666671" y="83.73333333333333" type="curve" smooth="yes"/>
      <point x="1.8666666666666671" y="36.56666666666666"/>
      <point x="37.2" y="0.0"/>
    </contour>
  </outline>
</glyph>
<glyph name="uu-tamil" format="2">
  <advance width="1534.4"/>
  <unicode hex="0B8A"/>
  <note>
uni0B8A
</note>
  <anchor x="738.4333333333334" y="0.0" name="bottom"/>
  <anchor x="739.0666666666667" y="0.0" name="nukta"/>
  <anchor x="860.0666666666667" y="554.0" name="top"/>
  <anchor x="859.4333333333334" y="554.0" name="vedic"/>
  <outline>
    <contour>
      <point x="90.3" y="0.0" type="curve" smooth="yes"/>
      <point x="1452.5" y="0.0" type="line"/>
      <point x="1464.1333333333334" y="54.0" type="line"/>
      <point x="94.76666666666667" y="54.0" type="line" smooth="yes"/>
      <point x="74.03333333333333" y="54.0"/>
      <point x="58.03333333333333" y="67.2"/>
      <point x="58.03333333333333" y="91.0" type="curve" smooth="yes"/>
      <point x="58.03333333333333" y="120.1"/>
      <point x="82.03333333333333" y="135.0"/>
      <point x="106.36666666666667" y="135.0" type="curve" smooth="yes"/>
      <point x="321.2" y="135.0" type="line" smooth="yes"/>
      <point x="478.6666666666667" y="135.0"/>
      <point x="603.8" y="212.76666666666668"/>
      <point x="603.8" y="364.03333333333336" type="curve" smooth="yes"/>
      <point x="603.8" y="495.73333333333335"/>
      <point x="500.8666666666667" y="559.0"/>
      <point x="377.53333333333336" y="559.0" type="curve" smooth="yes"/>
      <point x="251.6" y="559.0"/>
      <point x="142.43333333333334" y="477.03333333333336"/>
      <point x="142.43333333333334" y="368.4" type="curve" smooth="yes"/>
      <point x="142.43333333333334" y="306.23333333333335"/>
      <point x="181.5" y="247.0"/>
      <point x="267.2" y="247.0" type="curve" smooth="yes"/>
      <point x="354.23333333333335" y="247.0"/>
      <point x="418.2" y="301.2"/>
      <point x="418.2" y="388.6666666666667" type="curve" smooth="yes"/>
      <point x="418.2" y="449.1"/>
      <point x="380.06666666666666" y="499.46666666666664"/>
      <point x="333.53333333333336" y="519.0" type="curve"/>
      <point x="284.93333333333334" y="516.0" type="line"/>
      <point x="318.26666666666665" y="488.3"/>
      <point x="337.06666666666666" y="446.26666666666665"/>
      <point x="337.06666666666666" y="402.0" type="curve" smooth="yes"/>
      <point x="337.06666666666666" y="343.4"/>
      <point x="309.73333333333335" y="301.0"/>
      <point x="254.76666666666668" y="301.0" type="curve" smooth="yes"/>
      <point x="212.83333333333334" y="301.0"/>
      <point x="195.76666666666668" y="334.3333333333333"/>
      <point x="195.76666666666668" y="371.1333333333333" type="curve" smooth="yes"/>
      <point x="195.76666666666668" y="446.5"/>
      <point x="274.1" y="505.0"/>
      <point x="363.1666666666667" y="505.0" type="curve" smooth="yes"/>
      <point x="449.8" y="505.0"/>
      <point x="513.0" y="460.46666666666664"/>
      <point x="513.0" y="363.8666666666667" type="curve" smooth="yes"/>
      <point x="513.0" y="253.23333333333332"/>
      <point x="434.5" y="188.0"/>
      <point x="319.56666666666666" y="188.0" type="curve" smooth="yes"/>
      <point x="113.26666666666667" y="188.0" type="line" smooth="yes"/>
      <point x="46.03333333333333" y="188.0"/>
      <point x="1.8666666666666671" y="144.63333333333333"/>
      <point x="1.8666666666666671" y="83.73333333333333" type="curve" smooth="yes"/>
      <point x="1.8666666666666671" y="36.56666666666666"/>
      <point x="37.2" y="0.0"/>
    </contour>
    <contour>
      <point x="815.5" y="103.0" type="curve" smooth="yes"/>
      <point x="908.5333333333333" y="103.0"/>
      <point x="981.2333333333333" y="166.06666666666666"/>
      <point x="981.2333333333333" y="269.5" type="curve" smooth="yes"/>
      <point x="981.2333333333333" y="346.6666666666667"/>
      <point x="931.1666666666666" y="390.0"/>
      <point x="863.9666666666667" y="390.0" type="curve" smooth="yes"/>
      <point x="791.2333333333333" y="390.0"/>
      <point x="732.6" y="327.3"/>
      <point x="704.6333333333333" y="245.3" type="curve"/>
      <point x="717.0666666666667" y="210.56666666666666" type="line"/>
      <point x="738.2" y="274.3"/>
      <point x="780.1333333333333" y="327.0"/>
      <point x="830.4333333333334" y="327.0" type="curve" smooth="yes"/>
      <point x="870.9333333333334" y="327.0"/>
      <point x="895.0" y="299.6666666666667"/>
      <point x="895.0" y="255.3" type="curve" smooth="yes"/>
      <point x="895.0" y="200.66666666666666"/>
      <point x="861.2" y="156.0"/>
      <point x="806.2333333333333" y="156.0" type="curve" smooth="yes"/>
      <point x="754.4" y="156.0"/>
      <point x="723.5666666666667" y="202.5"/>
      <point x="723.5666666666667" y="269.93333333333334" type="curve" smooth="yes"/>
      <point x="723.5666666666667" y="401.06666666666666"/>
      <point x="811.1666666666666" y="505.0"/>
      <point x="934.0333333333333" y="505.0" type="curve" smooth="yes"/>
      <point x="1044.0333333333333" y="505.0"/>
      <point x="1105.6333333333334" y="421.1"/>
      <point x="1079.8333333333333" y="298.3333333333333" type="curve"/>
      <point x="1122.3" y="298.3333333333333" type="line"/>
      <point x="1153.2" y="456.3333333333333"/>
      <point x="1073.8" y="559.0"/>
      <point x="930.9" y="559.0" type="curve" smooth="yes"/>
      <point x="781.1333333333333" y="559.0"/>
      <point x="668.7666666666667" y="429.6333333333333"/>
      <point x="668.7666666666667" y="268.8333333333333" type="curve" smooth="yes"/>
      <point x="668.7666666666667" y="178.33333333333334"/>
      <point x="723.4666666666667" y="103.0"/>
    </contour>
    <contour>
      <point x="1039.0" y="107.0" type="line"/>
      <point x="1129.4333333333334" y="107.0" type="line"/>
      <point x="1213.0666666666666" y="502.0" type="line"/>
      <point x="1373.3666666666668" y="502.0" type="line"/>
      <point x="1289.3666666666668" y="107.0" type="line"/>
      <point x="1379.4333333333334" y="107.0" type="line"/>
      <point x="1463.4333333333334" y="502.0" type="line"/>
      <point x="1559.1333333333334" y="502.0" type="line"/>
      <point x="1570.1333333333334" y="554.0" type="line"/>
      <point x="1141.3" y="554.0" type="line"/>
      <point x="1104.3" y="379.0" type="line"/>
      <point x="1096.0" y="375.0" type="line"/>
    </contour>
  </outline>
</glyph>
<glyph name="e-tamil" format="2">
  <advance width="830.1333333333333"/>
  <unicode hex="0B8E"/>
  <note>
uni0B8E
</note>
  <anchor x="383.2" y="0.0" name="bottom"/>
  <anchor x="384.2" y="0.0" name="nukta"/>
  <anchor x="502.93333333333334" y="554.0" name="top"/>
  <anchor x="504.2" y="554.0" name="vedic"/>
  <outline>
    <contour>
      <point x="219.1" y="-5.0" type="curve" smooth="yes"/>
      <point x="312.03333333333336" y="-5.0"/>
      <point x="392.93333333333334" y="59.03333333333333"/>
      <point x="392.93333333333334" y="168.93333333333334" type="curve" smooth="yes"/>
      <point x="392.93333333333334" y="245.6"/>
      <point x="341.4" y="303.0"/>
      <point x="260.03333333333336" y="303.0" type="curve" smooth="yes"/>
      <point x="172.36666666666667" y="303.0"/>
      <point x="105.86666666666667" y="231.93333333333334"/>
      <point x="80.03333333333333" y="130.7" type="curve"/>
      <point x="104.93333333333334" y="103.33333333333333" type="line"/>
      <point x="125.66666666666667" y="187.3"/>
      <point x="172.06666666666666" y="236.0"/>
      <point x="228.93333333333334" y="236.0" type="curve" smooth="yes"/>
      <point x="275.6" y="236.0"/>
      <point x="301.8666666666667" y="202.66666666666666"/>
      <point x="301.8666666666667" y="155.1" type="curve" smooth="yes"/>
      <point x="301.8666666666667" y="94.2"/>
      <point x="266.7" y="49.0"/>
      <point x="207.73333333333335" y="49.0" type="curve" smooth="yes"/>
      <point x="143.16666666666666" y="49.0"/>
      <point x="96.63333333333334" y="106.43333333333334"/>
      <point x="96.63333333333334" y="211.03333333333333" type="curve" smooth="yes"/>
      <point x="96.63333333333334" y="371.4666666666667"/>
      <point x="209.13333333333333" y="500.0"/>
      <point x="398.93333333333334" y="500.0" type="curve" smooth="yes"/>
      <point x="617.8333333333334" y="500.0" type="line"/>
      <point x="511.83333333333337" y="0.0" type="line"/>
      <point x="603.0" y="0.0" type="line"/>
      <point x="709.0" y="500.0" type="line"/>
      <point x="857.6666666666666" y="500.0" type="line"/>
      <point x="868.6666666666666" y="554.0" type="line"/>
      <point x="399.8666666666667" y="554.0" type="line" smooth="yes"/>
      <point x="177.36666666666667" y="554.0"/>
      <point x="41.2" y="397.56666666666666"/>
      <point x="41.2" y="207.5" type="curve" smooth="yes"/>
      <point x="41.2" y="75.86666666666667"/>
      <point x="114.53333333333333" y="-5.0"/>
    </contour>
  </outline>
</glyph>
<glyph name="ai-tamil" format="2">
  <advance width="882.6666666666666"/>
  <unicode hex="0B90"/>
  <note>
uni0B90
</note>
  <anchor x="382.0" y="0.0" name="bottom"/>
  <anchor x="311.8333333333333" y="-296.0" name="nukta"/>
  <anchor x="508.1" y="554.0" name="top"/>
  <anchor x="505.26666666666665" y="554.0" name="vedic"/>
  <outline>
    <contour>
      <point x="154.13333333333333" y="-296.0" type="curve" smooth="yes"/>
      <point x="246.73333333333335" y="-296.0"/>
      <point x="322.6666666666667" y="-252.06666666666666"/>
      <point x="361.9" y="-180.06666666666666" type="curve"/>
      <point x="371.6" y="-247.06666666666666"/>
      <point x="432.7" y="-296.0"/>
      <point x="529.3666666666667" y="-296.0" type="curve" smooth="yes"/>
      <point x="665.0333333333333" y="-296.0"/>
      <point x="756.4333333333334" y="-211.4"/>
      <point x="756.4333333333334" y="-68.06666666666666" type="curve" smooth="yes"/>
      <point x="756.4333333333334" y="-15.8"/>
      <point x="741.5333333333333" y="33.1"/>
      <point x="721.3" y="73.06666666666666" type="curve"/>
      <point x="672.2" y="47.36666666666667" type="line"/>
      <point x="689.9" y="13.466666666666667"/>
      <point x="700.9" y="-29.7"/>
      <point x="700.9" y="-67.6" type="curve" smooth="yes"/>
      <point x="700.9" y="-174.93333333333334"/>
      <point x="631.1666666666666" y="-235.0"/>
      <point x="531.6666666666666" y="-235.0" type="curve" smooth="yes"/>
      <point x="445.3666666666667" y="-235.0"/>
      <point x="412.06666666666666" y="-179.63333333333333"/>
      <point x="431.43333333333334" y="-82.73333333333333" type="curve" smooth="yes"/>
      <point x="439.8" y="-41.0" type="line"/>
      <point x="348.9" y="-41.0" type="line"/>
      <point x="340.26666666666665" y="-79.26666666666667" type="line" smooth="yes"/>
      <point x="317.6333333333333" y="-180.26666666666668"/>
      <point x="254.1" y="-241.0"/>
      <point x="167.16666666666666" y="-241.0" type="curve" smooth="yes"/>
      <point x="101.7" y="-241.0"/>
      <point x="59.93333333333334" y="-200.73333333333332"/>
      <point x="59.93333333333334" y="-127.7" type="curve" smooth="yes"/>
      <point x="59.93333333333334" y="40.333333333333336"/>
      <point x="213.16666666666666" y="58.833333333333336"/>
      <point x="427.8" y="80.93333333333334" type="curve" smooth="yes"/>
      <point x="650.1333333333333" y="104.6"/>
      <point x="840.6333333333333" y="174.5"/>
      <point x="840.6333333333333" y="388.4" type="curve" smooth="yes"/>
      <point x="840.6333333333333" y="505.6333333333333"/>
      <point x="759.8" y="559.0"/>
      <point x="671.0333333333333" y="559.0" type="curve" smooth="yes"/>
      <point x="593.0" y="559.0"/>
      <point x="528.7" y="518.2"/>
      <point x="487.26666666666665" y="439.56666666666666" type="curve"/>
      <point x="467.93333333333334" y="520.0"/>
      <point x="394.53333333333336" y="559.0"/>
      <point x="309.6" y="559.0" type="curve" smooth="yes"/>
      <point x="166.5" y="559.0"/>
      <point x="60.3" y="453.96666666666664"/>
      <point x="60.3" y="308.8" type="curve" smooth="yes"/>
      <point x="60.3" y="228.1"/>
      <point x="105.56666666666666" y="156.0"/>
      <point x="189.16666666666666" y="156.0" type="curve" smooth="yes"/>
      <point x="267.76666666666665" y="156.0"/>
      <point x="339.6333333333333" y="209.5"/>
      <point x="339.6333333333333" y="302.03333333333336" type="curve" smooth="yes"/>
      <point x="339.6333333333333" y="371.76666666666665"/>
      <point x="294.76666666666665" y="412.0"/>
      <point x="235.0" y="412.0" type="curve" smooth="yes"/>
      <point x="177.76666666666668" y="412.0"/>
      <point x="119.73333333333333" y="373.23333333333335"/>
      <point x="88.03333333333333" y="271.53333333333336" type="curve"/>
      <point x="102.73333333333333" y="235.36666666666667" type="line"/>
      <point x="131.63333333333333" y="324.2"/>
      <point x="166.76666666666668" y="350.53333333333336"/>
      <point x="201.2" y="350.53333333333336" type="curve" smooth="yes"/>
      <point x="232.7" y="350.53333333333336"/>
      <point x="254.23333333333335" y="329.8333333333333"/>
      <point x="254.23333333333335" y="292.1" type="curve" smooth="yes"/>
      <point x="254.23333333333335" y="246.56666666666666"/>
      <point x="227.33333333333334" y="210.0"/>
      <point x="182.73333333333335" y="210.0" type="curve" smooth="yes"/>
      <point x="142.56666666666666" y="210.0"/>
      <point x="114.46666666666667" y="247.2"/>
      <point x="114.46666666666667" y="305.06666666666666" type="curve" smooth="yes"/>
      <point x="114.46666666666667" y="414.6666666666667"/>
      <point x="189.53333333333333" y="505.0"/>
      <point x="300.6666666666667" y="505.0" type="curve" smooth="yes"/>
      <point x="402.3333333333333" y="505.0"/>
      <point x="443.8333333333333" y="439.1333333333333"/>
      <point x="421.56666666666666" y="335.3666666666667" type="curve" smooth="yes"/>
      <point x="395.6333333333333" y="215.0" type="line"/>
      <point x="486.53333333333336" y="215.0" type="line"/>
      <point x="516.5333333333333" y="362.9" type="line" smooth="yes"/>
      <point x="532.2666666666667" y="441.1"/>
      <point x="577.4666666666667" y="505.0"/>
      <point x="653.3" y="505.0" type="curve" smooth="yes"/>
      <point x="720.3666666666667" y="505.0"/>
      <point x="749.7333333333333" y="460.9"/>
      <point x="749.7333333333333" y="391.23333333333335" type="curve" smooth="yes"/>
      <point x="749.7333333333333" y="190.9"/>
      <point x="598.6666666666666" y="143.03333333333333"/>
      <point x="377.8333333333333" y="120.36666666666666" type="curve" smooth="yes"/>
      <point x="145.63333333333333" y="96.8"/>
      <point x="-30.333333333333332" y="63.1"/>
      <point x="-30.333333333333332" y="-125.86666666666666" type="curve" smooth="yes"/>
      <point x="-30.333333333333332" y="-233.36666666666667"/>
      <point x="46.233333333333334" y="-296.0"/>
    </contour>
  </outline>
</glyph>
<glyph name="o-tamil" format="2">
  <advance width="899.2333333333333"/>
  <unicode hex="0B92"/>
  <note>
uni0B92
</note>
  <anchor x="400.6" y="0.0" name="bottom"/>
  <anchor x="327.6" y="-335.0" name="nukta"/>
  <anchor x="498.93333333333334" y="554.0" name="top"/>
  <anchor x="502.73333333333335" y="554.0" name="vedic"/>
  <outline>
    <contour>
      <point x="219.13333333333333" y="-321.8666666666667" type="curve" smooth="yes"/>
      <point x="391.53333333333336" y="-321.8666666666667"/>
      <point x="453.6666666666667" y="-141.96666666666667"/>
      <point x="607.3333333333334" y="-141.96666666666667" type="curve" smooth="yes"/>
      <point x="639.3333333333334" y="-141.96666666666667" type="line"/>
      <point x="650.7" y="-88.6" type="line"/>
      <point x="615.0333333333333" y="-88.6" type="line" smooth="yes"/>
      <point x="458.2" y="-88.6"/>
      <point x="419.6" y="70.63333333333334"/>
      <point x="535.0333333333333" y="200.3" type="curve"/>
      <point x="539.4" y="196.66666666666666" type="line"/>
      <point x="482.1" y="96.26666666666667"/>
      <point x="509.76666666666665" y="-5.0"/>
      <point x="619.8666666666667" y="-5.0" type="curve" smooth="yes"/>
      <point x="744.3333333333334" y="-5.0"/>
      <point x="839.1" y="94.43333333333334"/>
      <point x="839.1" y="245.26666666666665" type="curve" smooth="yes"/>
      <point x="839.1" y="461.2"/>
      <point x="655.2" y="559.0"/>
      <point x="462.73333333333335" y="559.0" type="curve" smooth="yes"/>
      <point x="232.9" y="559.0"/>
      <point x="39.93333333333334" y="407.6666666666667"/>
      <point x="39.93333333333334" y="209.33333333333334" type="curve" smooth="yes"/>
      <point x="39.93333333333334" y="77.7"/>
      <point x="113.26666666666667" y="-5.0"/>
      <point x="217.1" y="-5.0" type="curve" smooth="yes"/>
      <point x="310.4" y="-5.0"/>
      <point x="389.4666666666667" y="59.03333333333333"/>
      <point x="389.4666666666667" y="168.93333333333334" type="curve" smooth="yes"/>
      <point x="389.4666666666667" y="245.6"/>
      <point x="339.03333333333336" y="303.0"/>
      <point x="257.6666666666667" y="303.0" type="curve" smooth="yes"/>
      <point x="170.0" y="303.0"/>
      <point x="104.6" y="231.93333333333334"/>
      <point x="78.76666666666667" y="130.7" type="curve"/>
      <point x="103.66666666666667" y="103.33333333333333" type="line"/>
      <point x="124.4" y="187.3"/>
      <point x="169.7" y="236.0"/>
      <point x="226.56666666666666" y="236.0" type="curve" smooth="yes"/>
      <point x="273.23333333333335" y="236.0"/>
      <point x="298.4" y="202.66666666666666"/>
      <point x="298.4" y="155.1" type="curve" smooth="yes"/>
      <point x="298.4" y="94.2"/>
      <point x="264.3333333333333" y="49.0"/>
      <point x="205.73333333333335" y="49.0" type="curve" smooth="yes"/>
      <point x="141.9" y="49.0"/>
      <point x="95.36666666666667" y="108.26666666666667"/>
      <point x="95.36666666666667" y="212.86666666666667" type="curve" smooth="yes"/>
      <point x="95.36666666666667" y="378.3"/>
      <point x="258.1666666666667" y="505.0"/>
      <point x="452.9" y="505.0" type="curve" smooth="yes"/>
      <point x="609.8" y="505.0"/>
      <point x="750.3" y="415.3333333333333"/>
      <point x="750.3" y="252.33333333333334" type="curve" smooth="yes"/>
      <point x="750.3" y="145.96666666666667"/>
      <point x="701.8" y="49.0"/>
      <point x="617.0333333333333" y="49.0" type="curve" smooth="yes"/>
      <point x="530.4" y="49.0"/>
      <point x="550.2666666666667" y="167.76666666666668"/>
      <point x="621.0666666666667" y="255.96666666666667" type="curve"/>
      <point x="572.0333333333333" y="294.46666666666664" type="line"/>
      <point x="410.9666666666667" y="169.1"/>
      <point x="358.3666666666667" y="-36.2"/>
      <point x="502.76666666666665" y="-109.33333333333333" type="curve"/>
      <point x="501.76666666666665" y="-114.33333333333333" type="line"/>
      <point x="375.8666666666667" y="-131.53333333333333"/>
      <point x="320.9666666666667" y="-256.23333333333335"/>
      <point x="209.23333333333335" y="-256.23333333333335" type="curve" smooth="yes"/>
      <point x="166.16666666666666" y="-256.23333333333335"/>
      <point x="140.0" y="-227.06666666666666"/>
      <point x="140.0" y="-189.63333333333333" type="curve" smooth="yes"/>
      <point x="140.0" y="-145.13333333333333"/>
      <point x="162.7" y="-123.5"/>
      <point x="205.03333333333333" y="-90.33333333333333" type="curve"/>
      <point x="174.4" y="-52.06666666666667" type="line"/>
      <point x="119.26666666666667" y="-95.13333333333334"/>
      <point x="82.83333333333334" y="-131.4"/>
      <point x="82.83333333333334" y="-198.53333333333333" type="curve" smooth="yes"/>
      <point x="82.83333333333334" y="-267.6"/>
      <point x="135.0" y="-321.8666666666667"/>
    </contour>
  </outline>
</glyph>
<glyph name="oo-tamil" format="2">
  <advance width="899.2333333333333"/>
  <unicode hex="0B93"/>
  <note>
uni0B93
</note>
  <anchor x="385.56666666666666" y="0.0" name="bottom"/>
  <anchor x="319.8666666666667" y="-298.8666666666667" name="nukta"/>
  <anchor x="497.4666666666667" y="554.0" name="top"/>
  <anchor x="501.26666666666665" y="554.0" name="vedic"/>
  <outline>
    <contour>
      <point x="202.83333333333334" y="-332.9666666666667" type="curve" smooth="yes"/>
      <point x="380.93333333333334" y="-332.9666666666667"/>
      <point x="453.03333333333336" y="-141.96666666666667"/>
      <point x="606.7" y="-141.96666666666667" type="curve" smooth="yes"/>
      <point x="628.5666666666667" y="-141.96666666666667" type="line"/>
      <point x="639.9333333333334" y="-88.6" type="line"/>
      <point x="614.4" y="-88.6" type="line" smooth="yes"/>
      <point x="457.56666666666666" y="-88.6"/>
      <point x="418.3333333333333" y="70.63333333333334"/>
      <point x="534.4" y="199.66666666666666" type="curve"/>
      <point x="539.4" y="196.66666666666666" type="line"/>
      <point x="482.1" y="96.26666666666667"/>
      <point x="509.76666666666665" y="-5.0"/>
      <point x="619.8666666666667" y="-5.0" type="curve" smooth="yes"/>
      <point x="744.3333333333334" y="-5.0"/>
      <point x="839.1" y="94.43333333333334"/>
      <point x="839.1" y="245.26666666666665" type="curve" smooth="yes"/>
      <point x="839.1" y="461.2"/>
      <point x="655.2" y="559.0"/>
      <point x="462.73333333333335" y="559.0" type="curve" smooth="yes"/>
      <point x="232.9" y="559.0"/>
      <point x="39.93333333333334" y="407.6666666666667"/>
      <point x="39.93333333333334" y="209.33333333333334" type="curve" smooth="yes"/>
      <point x="39.93333333333334" y="77.7"/>
      <point x="113.26666666666667" y="-5.0"/>
      <point x="217.1" y="-5.0" type="curve" smooth="yes"/>
      <point x="310.4" y="-5.0"/>
      <point x="389.4666666666667" y="59.03333333333333"/>
      <point x="389.4666666666667" y="168.93333333333334" type="curve" smooth="yes"/>
      <point x="389.4666666666667" y="245.6"/>
      <point x="339.03333333333336" y="303.0"/>
      <point x="257.6666666666667" y="303.0" type="curve" smooth="yes"/>
      <point x="170.0" y="303.0"/>
      <point x="104.6" y="231.93333333333334"/>
      <point x="78.76666666666667" y="130.7" type="curve"/>
      <point x="103.66666666666667" y="103.33333333333333" type="line"/>
      <point x="124.4" y="187.3"/>
      <point x="169.7" y="236.0"/>
      <point x="226.56666666666666" y="236.0" type="curve" smooth="yes"/>
      <point x="273.23333333333335" y="236.0"/>
      <point x="298.4" y="202.66666666666666"/>
      <point x="298.4" y="155.1" type="curve" smooth="yes"/>
      <point x="298.4" y="94.2"/>
      <point x="264.3333333333333" y="49.0"/>
      <point x="205.73333333333335" y="49.0" type="curve" smooth="yes"/>
      <point x="141.9" y="49.0"/>
      <point x="95.36666666666667" y="108.26666666666667"/>
      <point x="95.36666666666667" y="212.86666666666667" type="curve" smooth="yes"/>
      <point x="95.36666666666667" y="378.3"/>
      <point x="258.1666666666667" y="505.0"/>
      <point x="452.9" y="505.0" type="curve" smooth="yes"/>
      <point x="609.8" y="505.0"/>
      <point x="750.3" y="415.3333333333333"/>
      <point x="750.3" y="252.33333333333334" type="curve" smooth="yes"/>
      <point x="750.3" y="145.96666666666667"/>
      <point x="701.8" y="49.0"/>
      <point x="617.0333333333333" y="49.0" type="curve" smooth="yes"/>
      <point x="530.4" y="49.0"/>
      <point x="550.2666666666667" y="167.76666666666668"/>
      <point x="621.0666666666667" y="255.96666666666667" type="curve"/>
      <point x="572.0333333333333" y="294.46666666666664" type="line"/>
      <point x="409.06666666666666" y="169.1"/>
      <point x="357.73333333333335" y="-36.2"/>
      <point x="502.1333333333333" y="-109.33333333333333" type="curve"/>
      <point x="501.1333333333333" y="-114.33333333333333" type="line"/>
      <point x="375.23333333333335" y="-131.53333333333333"/>
      <point x="303.4" y="-268.8"/>
      <point x="191.66666666666666" y="-268.8" type="curve" smooth="yes"/>
      <point x="143.6" y="-268.8"/>
      <point x="122.26666666666667" y="-239.8"/>
      <point x="122.26666666666667" y="-203.0" type="curve" smooth="yes"/>
      <point x="122.26666666666667" y="-159.86666666666667"/>
      <point x="153.76666666666668" y="-133.86666666666667"/>
      <point x="189.36666666666667" y="-133.86666666666667" type="curve" smooth="yes"/>
      <point x="222.33333333333334" y="-133.86666666666667"/>
      <point x="246.3" y="-151.13333333333333"/>
      <point x="255.0" y="-184.5" type="curve"/>
      <point x="286.4" y="-173.5"/>
      <point x="315.53333333333336" y="-149.4"/>
      <point x="315.53333333333336" y="-116.06666666666666" type="curve" smooth="yes"/>
      <point x="315.53333333333336" y="-75.53333333333333"/>
      <point x="276.56666666666666" y="-55.166666666666664"/>
      <point x="230.23333333333335" y="-55.166666666666664" type="curve" smooth="yes"/>
      <point x="142.06666666666666" y="-55.166666666666664"/>
      <point x="68.03333333333333" y="-118.76666666666667"/>
      <point x="68.03333333333333" y="-209.9" type="curve" smooth="yes"/>
      <point x="68.03333333333333" y="-281.23333333333335"/>
      <point x="124.5" y="-332.9666666666667"/>
    </contour>
  </outline>
</glyph>
<glyph name="nga-tamil" format="2">
  <advance width="912.8"/>
  <unicode hex="0B99"/>
  <note>
uni0B99
</note>
  <anchor x="397.26666666666665" y="0.0" name="bottom"/>
  <anchor x="558.6333333333333" y="554.0" name="imatra"/>
  <anchor x="397.26666666666665" y="0.0" name="nukta"/>
  <anchor x="514.5333333333333" y="554.0" name="top"/>
  <anchor x="514.9" y="554.0" name="vedic"/>
  <outline>
    <contour>
      <point x="30.566666666666666" y="0.0" type="line"/>
      <point x="89.83333333333333" y="0.0" type="line"/>
      <point x="195.83333333333334" y="500.0" type="line"/>
      <point x="343.0" y="500.0" type="line"/>
      <point x="278.0" y="196.0" type="line"/>
      <point x="367.7" y="196.0" type="line"/>
      <point x="375.53333333333336" y="231.06666666666666" type="line" smooth="yes"/>
      <point x="385.53333333333336" y="277.3333333333333"/>
      <point x="417.4666666666667" y="314.9"/>
      <point x="459.76666666666665" y="314.9" type="curve" smooth="yes"/>
      <point x="498.0" y="314.9"/>
      <point x="524.4" y="290.46666666666664"/>
      <point x="524.4" y="239.86666666666667" type="curve" smooth="yes"/>
      <point x="524.4" y="135.43333333333334"/>
      <point x="440.3" y="54.0"/>
      <point x="349.26666666666665" y="54.0" type="curve" smooth="yes"/>
      <point x="248.0" y="54.0" type="line"/>
      <point x="236.0" y="0.0" type="line"/>
      <point x="764.6" y="0.0" type="line"/>
      <point x="881.9666666666667" y="554.0" type="line"/>
      <point x="790.4333333333334" y="554.0" type="line"/>
      <point x="684.4333333333334" y="54.0" type="line"/>
      <point x="461.3666666666667" y="54.0" type="line"/>
      <point x="541.7" y="84.83333333333333"/>
      <point x="616.8333333333334" y="153.23333333333332"/>
      <point x="616.8333333333334" y="257.23333333333335" type="curve" smooth="yes"/>
      <point x="616.8333333333334" y="339.56666666666666"/>
      <point x="564.9" y="379.0"/>
      <point x="503.1333333333333" y="379.0" type="curve" smooth="yes"/>
      <point x="448.56666666666666" y="379.0"/>
      <point x="414.9666666666667" y="348.56666666666666"/>
      <point x="395.26666666666665" y="319.7" type="curve"/>
      <point x="433.43333333333334" y="500.0" type="line"/>
      <point x="571.7" y="500.0" type="line"/>
      <point x="583.3333333333334" y="554.0" type="line"/>
      <point x="148.2" y="554.0" type="line"/>
    </contour>
  </outline>
</glyph>
<glyph name="ca-tamil" format="2">
  <advance width="645.6"/>
  <unicode hex="0B9A"/>
  <note>
uni0B9A
</note>
  <anchor x="279.3333333333333" y="0.0" name="bottom"/>
  <anchor x="592.0" y="554.0" name="imatra"/>
  <anchor x="275.1666666666667" y="0.0" name="nukta"/>
  <anchor x="450.4" y="554.0" name="top"/>
  <anchor x="401.53333333333336" y="554.0" name="vedic"/>
  <outline>
    <contour>
      <point x="202.63333333333333" y="-4.0" type="curve" smooth="yes"/>
      <point x="324.93333333333334" y="-4.0"/>
      <point x="392.9666666666667" y="59.46666666666667"/>
      <point x="420.23333333333335" y="187.26666666666668" type="curve" smooth="yes"/>
      <point x="436.23333333333335" y="263.0" type="line"/>
      <point x="586.9666666666667" y="263.0" type="line"/>
      <point x="597.3333333333334" y="317.0" type="line"/>
      <point x="447.6" y="317.0" type="line"/>
      <point x="486.6" y="500.0" type="line"/>
      <point x="636.9666666666667" y="500.0" type="line"/>
      <point x="648.3333333333334" y="554.0" type="line"/>
      <point x="211.26666666666668" y="554.0" type="line"/>
      <point x="154.26666666666668" y="286.0" type="line"/>
      <point x="212.06666666666666" y="286.0" type="line"/>
      <point x="257.06666666666666" y="500.0" type="line"/>
      <point x="395.06666666666666" y="500.0" type="line"/>
      <point x="356.43333333333334" y="317.0" type="line"/>
      <point x="222.96666666666667" y="317.0" type="line" smooth="yes"/>
      <point x="108.4" y="317.0"/>
      <point x="27.4" y="248.0"/>
      <point x="27.4" y="144.33333333333334" type="curve" smooth="yes"/>
      <point x="27.4" y="55.56666666666666"/>
      <point x="99.96666666666667" y="-4.0"/>
    </contour>
    <contour>
      <point x="197.9" y="49.0" type="curve" smooth="yes"/>
      <point x="134.13333333333333" y="49.0"/>
      <point x="89.46666666666667" y="87.2"/>
      <point x="89.46666666666667" y="150.6" type="curve" smooth="yes"/>
      <point x="89.46666666666667" y="220.93333333333334"/>
      <point x="138.46666666666667" y="263.0"/>
      <point x="218.23333333333335" y="263.0" type="curve" smooth="yes"/>
      <point x="345.06666666666666" y="263.0" type="line"/>
      <point x="327.3333333333333" y="178.8" type="line" smooth="yes"/>
      <point x="307.3333333333333" y="83.26666666666667"/>
      <point x="266.2" y="49.0"/>
    </contour>
  </outline>
</glyph>
<glyph name="ja-tamil" format="2">
  <advance width="877.6666666666666"/>
  <unicode hex="0B9C"/>
  <note>
uni0B9C
</note>
  <anchor x="384.0" y="0.0" name="bottom"/>
  <anchor x="313.8333333333333" y="-296.0" name="nukta"/>
  <anchor x="505.56666666666666" y="554.0" name="top"/>
  <anchor x="503.4666666666667" y="554.0" name="vedic"/>
  <outline>
    <contour>
      <point x="130.23333333333335" y="-296.0" type="curve" smooth="yes"/>
      <point x="325.26666666666665" y="-296.0"/>
      <point x="408.4" y="-18.466666666666665"/>
      <point x="564.9" y="-18.466666666666665" type="curve" smooth="yes"/>
      <point x="623.9333333333334" y="-18.466666666666665"/>
      <point x="653.5333333333333" y="-56.9"/>
      <point x="653.5333333333333" y="-111.26666666666667" type="curve" smooth="yes"/>
      <point x="653.5333333333333" y="-187.06666666666666"/>
      <point x="610.2" y="-245.16666666666666"/>
      <point x="532.7" y="-245.16666666666666" type="curve" smooth="yes"/>
      <point x="504.7" y="-245.16666666666666"/>
      <point x="476.73333333333335" y="-237.16666666666666"/>
      <point x="447.03333333333336" y="-219.0" type="curve"/>
      <point x="421.03333333333336" y="-259.8333333333333" type="line"/>
      <point x="456.73333333333335" y="-283.6333333333333"/>
      <point x="496.23333333333335" y="-296.0"/>
      <point x="545.6" y="-296.0" type="curve" smooth="yes"/>
      <point x="650.4666666666667" y="-296.0"/>
      <point x="745.0666666666667" y="-229.6"/>
      <point x="745.0666666666667" y="-110.9" type="curve" smooth="yes"/>
      <point x="745.0666666666667" y="-8.033333333333333"/>
      <point x="675.9" y="37.0"/>
      <point x="584.8333333333334" y="37.0" type="curve" smooth="yes"/>
      <point x="385.03333333333336" y="37.0"/>
      <point x="296.03333333333336" y="-241.16666666666666"/>
      <point x="148.9" y="-241.16666666666666" type="curve" smooth="yes"/>
      <point x="83.96666666666667" y="-241.16666666666666"/>
      <point x="59.93333333333334" y="-197.2"/>
      <point x="59.93333333333334" y="-126.0" type="curve" smooth="yes"/>
      <point x="59.93333333333334" y="23.633333333333333"/>
      <point x="192.13333333333333" y="55.43333333333334"/>
      <point x="420.3333333333333" y="80.73333333333333" type="curve" smooth="yes"/>
      <point x="658.6" y="107.5"/>
      <point x="841.9" y="175.76666666666665"/>
      <point x="841.9" y="388.4" type="curve" smooth="yes"/>
      <point x="841.9" y="505.6333333333333"/>
      <point x="761.0666666666667" y="559.0"/>
      <point x="672.3" y="559.0" type="curve" smooth="yes"/>
      <point x="594.2666666666667" y="559.0"/>
      <point x="529.9666666666667" y="518.2"/>
      <point x="488.53333333333336" y="439.56666666666666" type="curve"/>
      <point x="469.2" y="520.0"/>
      <point x="395.8" y="559.0"/>
      <point x="310.8666666666667" y="559.0" type="curve" smooth="yes"/>
      <point x="167.76666666666668" y="559.0"/>
      <point x="61.56666666666666" y="453.96666666666664"/>
      <point x="61.56666666666666" y="308.8" type="curve" smooth="yes"/>
      <point x="61.56666666666666" y="228.1"/>
      <point x="106.83333333333334" y="156.0"/>
      <point x="190.43333333333334" y="156.0" type="curve" smooth="yes"/>
      <point x="269.03333333333336" y="156.0"/>
      <point x="340.9" y="209.5"/>
      <point x="340.9" y="302.03333333333336" type="curve" smooth="yes"/>
      <point x="340.9" y="371.76666666666665"/>
      <point x="296.03333333333336" y="412.0"/>
      <point x="236.26666666666668" y="412.0" type="curve" smooth="yes"/>
      <point x="179.03333333333333" y="412.0"/>
      <point x="121.0" y="373.23333333333335"/>
      <point x="89.3" y="271.53333333333336" type="curve"/>
      <point x="104.0" y="235.36666666666667" type="line"/>
      <point x="132.9" y="324.2"/>
      <point x="168.03333333333333" y="350.53333333333336"/>
      <point x="202.46666666666667" y="350.53333333333336" type="curve" smooth="yes"/>
      <point x="233.96666666666667" y="350.53333333333336"/>
      <point x="255.5" y="329.8333333333333"/>
      <point x="255.5" y="292.1" type="curve" smooth="yes"/>
      <point x="255.5" y="246.56666666666666"/>
      <point x="228.6" y="210.0"/>
      <point x="184.0" y="210.0" type="curve" smooth="yes"/>
      <point x="143.83333333333334" y="210.0"/>
      <point x="115.73333333333333" y="247.2"/>
      <point x="115.73333333333333" y="305.06666666666666" type="curve" smooth="yes"/>
      <point x="115.73333333333333" y="414.6666666666667"/>
      <point x="190.8" y="505.0"/>
      <point x="301.93333333333334" y="505.0" type="curve" smooth="yes"/>
      <point x="403.6" y="505.0"/>
      <point x="445.1" y="439.1333333333333"/>
      <point x="422.8333333333333" y="335.3666666666667" type="curve" smooth="yes"/>
      <point x="396.9" y="215.0" type="line"/>
      <point x="487.8" y="215.0" type="line"/>
      <point x="517.8" y="362.9" type="line" smooth="yes"/>
      <point x="533.5333333333333" y="441.1"/>
      <point x="578.7333333333333" y="505.0"/>
      <point x="654.5666666666667" y="505.0" type="curve" smooth="yes"/>
      <point x="721.6333333333333" y="505.0"/>
      <point x="751.0" y="460.9"/>
      <point x="751.0" y="391.23333333333335" type="curve" smooth="yes"/>
      <point x="751.0" y="192.16666666666666"/>
      <point x="604.9333333333334" y="144.46666666666667"/>
      <point x="374.03333333333336" y="120.16666666666667" type="curve" smooth="yes"/>
      <point x="124.6" y="93.4"/>
      <point x="-29.966666666666665" y="44.56666666666666"/>
      <point x="-29.966666666666665" y="-126.0" type="curve" smooth="yes"/>
      <point x="-29.966666666666665" y="-231.3"/>
      <point x="23.5" y="-296.0"/>
    </contour>
  </outline>
</glyph>
<glyph name="nya-tamil" format="2">
  <advance width="1173.7666666666667"/>
  <unicode hex="0B9E"/>
  <note>
uni0B9E
</note>
  <anchor x="561.9333333333334" y="0.0" name="bottom"/>
  <anchor x="998.3333333333334" y="554.0" name="imatra"/>
  <anchor x="501.76666666666665" y="-331.8666666666667" name="nukta"/>
  <anchor x="680.1" y="554.0" name="top"/>
  <anchor x="658.5666666666667" y="554.0" name="vedic"/>
  <outline>
    <contour>
      <point x="499.93333333333334" y="-331.8666666666667" type="curve" smooth="yes"/>
      <point x="839.8" y="-331.8666666666667"/>
      <point x="1096.2666666666667" y="-105.23333333333333"/>
      <point x="1096.2666666666667" y="182.73333333333332" type="curve" smooth="yes"/>
      <point x="1096.2666666666667" y="282.93333333333334"/>
      <point x="1048.4" y="345.0"/>
      <point x="963.4666666666667" y="345.0" type="curve" smooth="yes"/>
      <point x="879.2666666666667" y="345.0"/>
      <point x="828.6333333333333" y="280.0"/>
      <point x="810.1" y="192.7" type="curve" smooth="yes"/>
      <point x="800.1" y="145.7" type="line"/>
      <point x="824.9" y="145.7" type="line"/>
      <point x="834.9" y="193.86666666666667" type="line" smooth="yes"/>
      <point x="845.5333333333333" y="243.56666666666666"/>
      <point x="872.6333333333333" y="284.53333333333336"/>
      <point x="926.7333333333333" y="284.53333333333336" type="curve" smooth="yes"/>
      <point x="975.6" y="284.53333333333336"/>
      <point x="1002.1" y="248.26666666666668"/>
      <point x="1002.1" y="180.8" type="curve" smooth="yes"/>
      <point x="1002.1" y="-68.8"/>
      <point x="798.2" y="-277.8666666666667"/>
      <point x="503.2" y="-277.8666666666667" type="curve" smooth="yes"/>
      <point x="270.9666666666667" y="-277.8666666666667"/>
      <point x="87.66666666666667" y="-122.63333333333334"/>
      <point x="87.66666666666667" y="136.6" type="curve" smooth="yes"/>
      <point x="87.66666666666667" y="341.6666666666667"/>
      <point x="189.0" y="494.26666666666665"/>
      <point x="346.2" y="622.2333333333333" type="curve"/>
      <point x="314.73333333333335" y="661.7333333333333" type="line"/>
      <point x="147.2" y="525.8"/>
      <point x="32.5" y="354.8"/>
      <point x="32.5" y="130.6" type="curve" smooth="yes"/>
      <point x="32.5" y="-148.5"/>
      <point x="235.83333333333334" y="-331.8666666666667"/>
    </contour>
    <component base="e-tamil" xOffset="195.23333333333335"/>
  </outline>
</glyph>
<glyph name="tta-tamil" format="2">
  <advance width="806.6"/>
  <unicode hex="0B9F"/>
  <note>
uni0B9F
</note>
  <anchor x="376.76666666666665" y="0.0" name="bottom"/>
  <anchor x="376.76666666666665" y="0.0" name="nukta"/>
  <anchor x="496.9666666666667" y="554.0" name="top"/>
  <anchor x="499.53333333333336" y="554.0" name="vedic"/>
  <outline>
    <contour>
      <point x="30.566666666666666" y="0.0" type="line"/>
      <point x="732.5" y="0.0" type="line"/>
      <point x="744.1333333333333" y="54.0" type="line"/>
      <point x="132.73333333333335" y="54.0" type="line"/>
      <point x="239.1" y="554.0" type="line"/>
      <point x="148.2" y="554.0" type="line"/>
    </contour>
  </outline>
</glyph>
<glyph name="ta-tamil" format="2">
  <advance width="760.7333333333333"/>
  <unicode hex="0BA4"/>
  <note>
uni0BA4
</note>
  <anchor x="306.8666666666667" y="0.0" name="bottom"/>
  <anchor x="572.7666666666667" y="554.0" name="imatra"/>
  <anchor x="281.26666666666665" y="-140.0" name="nukta"/>
  <anchor x="438.0" y="554.0" name="top"/>
  <anchor x="432.4666666666667" y="554.0" name="vedic"/>
  <outline>
    <contour>
      <point x="50.46666666666667" y="-243.5" type="curve"/>
      <point x="65.1" y="-174.86666666666667"/>
      <point x="91.63333333333334" y="-134.5"/>
      <point x="176.66666666666666" y="-134.5" type="curve" smooth="yes"/>
      <point x="324.6666666666667" y="-134.5" type="line" smooth="yes"/>
      <point x="532.4666666666667" y="-134.5"/>
      <point x="675.7333333333333" y="-49.3"/>
      <point x="675.7333333333333" y="135.9" type="curve" smooth="yes"/>
      <point x="675.7333333333333" y="248.86666666666667"/>
      <point x="598.3333333333334" y="317.0"/>
      <point x="475.2" y="317.0" type="curve" smooth="yes"/>
      <point x="448.23333333333335" y="317.0" type="line"/>
      <point x="487.23333333333335" y="500.0" type="line"/>
      <point x="637.6" y="500.0" type="line"/>
      <point x="648.9666666666667" y="554.0" type="line"/>
      <point x="211.9" y="554.0" type="line"/>
      <point x="154.9" y="286.0" type="line"/>
      <point x="212.7" y="286.0" type="line"/>
      <point x="257.7" y="500.0" type="line"/>
      <point x="395.7" y="500.0" type="line"/>
      <point x="357.06666666666666" y="317.0" type="line"/>
      <point x="223.6" y="317.0" type="line" smooth="yes"/>
      <point x="109.03333333333333" y="317.0"/>
      <point x="28.033333333333335" y="248.0"/>
      <point x="28.033333333333335" y="144.33333333333334" type="curve" smooth="yes"/>
      <point x="28.033333333333335" y="55.56666666666666"/>
      <point x="100.6" y="-4.0"/>
      <point x="203.26666666666668" y="-4.0" type="curve" smooth="yes"/>
      <point x="325.56666666666666" y="-4.0"/>
      <point x="393.6" y="59.46666666666667"/>
      <point x="420.8666666666667" y="187.26666666666668" type="curve" smooth="yes"/>
      <point x="436.8666666666667" y="263.0" type="line"/>
      <point x="464.4666666666667" y="263.0" type="line" smooth="yes"/>
      <point x="538.9" y="263.0"/>
      <point x="583.4666666666667" y="216.8"/>
      <point x="583.4666666666667" y="133.2" type="curve" smooth="yes"/>
      <point x="583.4666666666667" y="-2.4000000000000004"/>
      <point x="490.26666666666665" y="-86.23333333333333"/>
      <point x="308.6666666666667" y="-86.23333333333333" type="curve" smooth="yes"/>
      <point x="151.93333333333334" y="-86.23333333333333" type="line" smooth="yes"/>
      <point x="50.833333333333336" y="-86.23333333333333"/>
      <point x="-19.866666666666667" y="-112.33333333333333"/>
      <point x="-19.866666666666667" y="-183.23333333333332" type="curve" smooth="yes"/>
      <point x="-19.866666666666667" y="-223.13333333333333"/>
      <point x="5.033333333333334" y="-243.5"/>
    </contour>
    <contour>
      <point x="198.53333333333333" y="49.0" type="curve" smooth="yes"/>
      <point x="134.76666666666668" y="49.0"/>
      <point x="90.1" y="87.2"/>
      <point x="90.1" y="150.6" type="curve" smooth="yes"/>
      <point x="90.1" y="220.93333333333334"/>
      <point x="139.1" y="263.0"/>
      <point x="218.86666666666667" y="263.0" type="curve" smooth="yes"/>
      <point x="345.7" y="263.0" type="line"/>
      <point x="327.9666666666667" y="178.8" type="line" smooth="yes"/>
      <point x="307.9666666666667" y="83.26666666666667"/>
      <point x="266.8333333333333" y="49.0"/>
    </contour>
  </outline>
</glyph>
<glyph name="na-tamil" format="2">
  <advance width="715.2333333333333"/>
  <unicode hex="0BA8"/>
  <note>
uni0BA8
</note>
  <anchor x="292.5" y="0.0" name="bottom"/>
  <anchor x="534.5666666666667" y="554.0" name="imatra"/>
  <anchor x="262.3666666666667" y="-181.0" name="nukta"/>
  <anchor x="412.6" y="554.0" name="top"/>
  <anchor x="422.6" y="554.0" name="vedic"/>
  <outline>
    <contour>
      <point x="47.666666666666664" y="-248.63333333333333" type="curve"/>
      <point x="62.3" y="-180.0"/>
      <point x="90.3" y="-139.63333333333333"/>
      <point x="175.33333333333334" y="-139.63333333333333" type="curve" smooth="yes"/>
      <point x="278.3333333333333" y="-139.63333333333333" type="line" smooth="yes"/>
      <point x="479.23333333333335" y="-139.63333333333333"/>
      <point x="641.6333333333333" y="-19.166666666666668"/>
      <point x="641.6333333333333" y="189.9" type="curve" smooth="yes"/>
      <point x="641.6333333333333" y="288.23333333333335"/>
      <point x="594.8666666666667" y="345.0"/>
      <point x="512.7666666666667" y="345.0" type="curve" smooth="yes"/>
      <point x="457.56666666666666" y="345.0"/>
      <point x="420.7" y="312.1333333333333"/>
      <point x="401.8" y="284.3333333333333" type="curve"/>
      <point x="447.7" y="500.0" type="line"/>
      <point x="580.1" y="500.0" type="line"/>
      <point x="592.1" y="554.0" type="line"/>
      <point x="147.2" y="554.0" type="line"/>
      <point x="30.200000000000003" y="0.0" type="line"/>
      <point x="88.0" y="0.0" type="line"/>
      <point x="194.0" y="500.0" type="line"/>
      <point x="357.1666666666667" y="500.0" type="line"/>
      <point x="250.8" y="0.0" type="line"/>
      <point x="341.3333333333333" y="0.0" type="line"/>
      <point x="382.8" y="195.33333333333334" type="line" smooth="yes"/>
      <point x="393.06666666666666" y="243.93333333333334"/>
      <point x="428.4666666666667" y="283.06666666666666"/>
      <point x="473.93333333333334" y="283.06666666666666" type="curve" smooth="yes"/>
      <point x="520.2333333333333" y="283.06666666666666"/>
      <point x="547.1" y="252.46666666666667"/>
      <point x="547.1" y="187.23333333333332" type="curve" smooth="yes"/>
      <point x="547.1" y="15.533333333333331"/>
      <point x="446.43333333333334" y="-91.36666666666666"/>
      <point x="268.2" y="-91.36666666666666" type="curve" smooth="yes"/>
      <point x="150.6" y="-91.36666666666666" type="line" smooth="yes"/>
      <point x="49.5" y="-91.36666666666666"/>
      <point x="-22.666666666666668" y="-117.46666666666667"/>
      <point x="-22.666666666666668" y="-188.36666666666667" type="curve" smooth="yes"/>
      <point x="-22.666666666666668" y="-228.26666666666668"/>
      <point x="2.2333333333333334" y="-248.63333333333333"/>
    </contour>
  </outline>
</glyph>
<glyph name="nnna-tamil" format="2">
  <advance width="1184.5666666666666"/>
  <unicode hex="0BA9"/>
  <note>
uni0BA9
</note>
  <anchor x="531.5666666666667" y="0.0" name="bottom"/>
  <anchor x="1100.2" y="554.0" name="imatra"/>
  <anchor x="531.5666666666667" y="0.0" name="nukta"/>
  <anchor x="673.2" y="554.0" name="top"/>
  <anchor x="669.3" y="554.0" name="vedic"/>
  <outline>
    <contour>
      <point x="217.1" y="-5.0" type="curve" smooth="yes"/>
      <point x="310.03333333333336" y="-5.0"/>
      <point x="390.93333333333334" y="59.03333333333333"/>
      <point x="390.93333333333334" y="168.93333333333334" type="curve" smooth="yes"/>
      <point x="390.93333333333334" y="245.6"/>
      <point x="339.4" y="303.0"/>
      <point x="258.03333333333336" y="303.0" type="curve" smooth="yes"/>
      <point x="170.36666666666667" y="303.0"/>
      <point x="103.86666666666667" y="231.93333333333334"/>
      <point x="78.03333333333333" y="130.7" type="curve"/>
      <point x="102.93333333333334" y="103.33333333333333" type="line"/>
      <point x="123.66666666666667" y="187.3"/>
      <point x="170.06666666666666" y="236.0"/>
      <point x="226.93333333333334" y="236.0" type="curve" smooth="yes"/>
      <point x="273.6" y="236.0"/>
      <point x="299.8666666666667" y="202.66666666666666"/>
      <point x="299.8666666666667" y="155.1" type="curve" smooth="yes"/>
      <point x="299.8666666666667" y="94.2"/>
      <point x="264.7" y="49.0"/>
      <point x="205.73333333333335" y="49.0" type="curve" smooth="yes"/>
      <point x="141.16666666666666" y="49.0"/>
      <point x="94.63333333333334" y="106.43333333333334"/>
      <point x="94.63333333333334" y="211.03333333333333" type="curve" smooth="yes"/>
      <point x="94.63333333333334" y="369.5"/>
      <point x="237.7" y="505.0"/>
      <point x="413.3333333333333" y="505.0" type="curve" smooth="yes"/>
      <point x="580.9333333333334" y="505.0"/>
      <point x="694.5333333333333" y="378.0"/>
      <point x="694.5333333333333" y="226.1" type="curve" smooth="yes"/>
      <point x="694.5333333333333" y="121.86666666666666"/>
      <point x="649.4" y="50.9"/>
      <point x="577.5333333333333" y="50.9" type="curve" smooth="yes"/>
      <point x="532.5" y="50.9"/>
      <point x="508.3666666666667" y="88.86666666666667"/>
      <point x="508.3666666666667" y="162.36666666666667" type="curve" smooth="yes"/>
      <point x="508.3666666666667" y="333.3"/>
      <point x="684.8666666666667" y="500.0"/>
      <point x="878.1333333333333" y="500.0" type="curve" smooth="yes"/>
      <point x="1212.1" y="500.0" type="line"/>
      <point x="1223.7333333333333" y="554.0" type="line"/>
      <point x="887.4" y="554.0" type="line" smooth="yes"/>
      <point x="659.4" y="554.0"/>
      <point x="453.4666666666667" y="364.93333333333334"/>
      <point x="453.4666666666667" y="157.9" type="curve" smooth="yes"/>
      <point x="453.4666666666667" y="64.63333333333334"/>
      <point x="495.43333333333334" y="-5.0"/>
      <point x="590.3333333333334" y="-5.0" type="curve" smooth="yes"/>
      <point x="699.1666666666666" y="-5.0"/>
      <point x="786.3333333333334" y="84.93333333333334"/>
      <point x="786.3333333333334" y="222.96666666666667" type="curve" smooth="yes"/>
      <point x="786.3333333333334" y="431.1666666666667"/>
      <point x="623.6" y="559.0"/>
      <point x="420.23333333333335" y="559.0" type="curve" smooth="yes"/>
      <point x="213.53333333333333" y="559.0"/>
      <point x="39.2" y="398.8666666666667"/>
      <point x="39.2" y="207.5" type="curve" smooth="yes"/>
      <point x="39.2" y="75.86666666666667"/>
      <point x="112.53333333333333" y="-5.0"/>
    </contour>
    <contour>
      <point x="866.2666666666667" y="0.0" type="line"/>
      <point x="957.0666666666667" y="0.0" type="line"/>
      <point x="1069.7" y="529.0" type="line"/>
      <point x="978.9" y="529.0" type="line"/>
    </contour>
  </outline>
</glyph>
<glyph name="pa-tamil" format="2">
  <advance width="805.0666666666667"/>
  <unicode hex="0BAA"/>
  <note>
uni0BAA
</note>
  <anchor x="344.5" y="0.0" name="bottom"/>
  <anchor x="766.7" y="554.0" name="imatra"/>
  <anchor x="344.5" y="0.0" name="nukta"/>
  <anchor x="461.76666666666665" y="554.0" name="top"/>
  <anchor x="462.5" y="554.0" name="vedic"/>
  <outline>
    <contour>
      <point x="30.566666666666666" y="0.0" type="line"/>
      <point x="656.8666666666667" y="0.0" type="line"/>
      <point x="774.8666666666667" y="554.0" type="line"/>
      <point x="684.0666666666667" y="554.0" type="line"/>
      <point x="577.7" y="54.0" type="line"/>
      <point x="132.73333333333335" y="54.0" type="line"/>
      <point x="239.1" y="554.0" type="line"/>
      <point x="148.2" y="554.0" type="line"/>
    </contour>
  </outline>
</glyph>
<glyph name="ya-tamil" format="2">
  <advance width="873.8333333333334"/>
  <unicode hex="0BAF"/>
  <note>
uni0BAF
</note>
  <anchor x="388.3333333333333" y="0.0" name="bottom"/>
  <anchor x="836.2" y="554.0" name="imatra"/>
  <anchor x="389.43333333333334" y="0.0" name="nukta"/>
  <anchor x="503.23333333333335" y="554.0" name="top"/>
  <anchor x="498.2" y="554.0" name="vedic"/>
  <outline>
    <contour>
      <point x="166.46666666666667" y="-5.0" type="curve" smooth="yes"/>
      <point x="232.96666666666667" y="-5.0"/>
      <point x="272.56666666666666" y="37.5"/>
      <point x="286.93333333333334" y="59.5" type="curve"/>
      <point x="274.03333333333336" y="0.0" type="line"/>
      <point x="725.6333333333333" y="0.0" type="line"/>
      <point x="843.0" y="554.0" type="line"/>
      <point x="751.4666666666667" y="554.0" type="line"/>
      <point x="645.4666666666667" y="54.0" type="line"/>
      <point x="369.93333333333334" y="54.0" type="line"/>
      <point x="475.93333333333334" y="554.0" type="line"/>
      <point x="386.03333333333336" y="554.0" type="line"/>
      <point x="300.93333333333334" y="153.4" type="line" smooth="yes"/>
      <point x="288.3" y="94.13333333333334"/>
      <point x="255.86666666666667" y="56.0"/>
      <point x="205.3" y="56.0" type="curve" smooth="yes"/>
      <point x="160.16666666666666" y="56.0"/>
      <point x="134.83333333333334" y="93.43333333333334"/>
      <point x="147.83333333333334" y="154.8" type="curve" smooth="yes"/>
      <point x="232.93333333333334" y="554.0" type="line"/>
      <point x="142.66666666666666" y="554.0" type="line"/>
      <point x="60.56666666666666" y="168.86666666666667" type="line" smooth="yes"/>
      <point x="37.93333333333334" y="63.6"/>
      <point x="83.26666666666667" y="-5.0"/>
    </contour>
  </outline>
</glyph>
<glyph name="ra-tamil" format="2">
  <advance width="587.1"/>
  <unicode hex="0BB0"/>
  <note>
uni0BB0
</note>
  <anchor x="236.3" y="0.0" name="bottom"/>
  <anchor x="565.8" y="554.0" name="imatra"/>
  <anchor x="193.66666666666666" y="-199.0" name="nukta"/>
  <anchor x="379.8" y="554.0" name="top"/>
  <anchor x="387.9" y="554.0" name="vedic"/>
  <outline>
    <contour>
      <point x="100.6" y="-226.16666666666666" type="line"/>
      <point x="364.9666666666667" y="18.666666666666668" type="line"/>
      <point x="465.9666666666667" y="500.0" type="line"/>
      <point x="614.6333333333333" y="500.0" type="line"/>
      <point x="625.6333333333333" y="554.0" type="line"/>
      <point x="148.2" y="554.0" type="line"/>
      <point x="30.566666666666666" y="0.0" type="line"/>
      <point x="89.1" y="0.0" type="line"/>
      <point x="195.1" y="500.0" type="line"/>
      <point x="375.43333333333334" y="500.0" type="line"/>
      <point x="270.43333333333334" y="6.433333333333334" type="line"/>
      <point x="64.7" y="-185.46666666666667" type="line"/>
    </contour>
  </outline>
</glyph>
<glyph name="rra-tamil" format="2">
  <advance width="768.2666666666667"/>
  <unicode hex="0BB1"/>
  <note>
uni0BB1
</note>
  <anchor x="328.4666666666667" y="0.0" name="bottom"/>
  <anchor x="274.6" y="-199.0" name="nukta"/>
  <anchor x="417.53333333333336" y="554.0" name="top"/>
  <anchor x="448.8666666666667" y="554.0" name="vedic"/>
  <outline>
    <contour>
      <point x="50.46666666666667" y="-243.13333333333333" type="curve"/>
      <point x="65.1" y="-174.5"/>
      <point x="93.1" y="-135.4"/>
      <point x="178.13333333333333" y="-135.4" type="curve" smooth="yes"/>
      <point x="285.03333333333336" y="-135.4" type="line" smooth="yes"/>
      <point x="566.2666666666667" y="-135.4"/>
      <point x="714.1666666666666" y="54.96666666666667"/>
      <point x="714.1666666666666" y="339.6333333333333" type="curve" smooth="yes"/>
      <point x="714.1666666666666" y="474.03333333333336"/>
      <point x="650.3666666666667" y="559.0"/>
      <point x="537.3" y="559.0" type="curve" smooth="yes"/>
      <point x="458.73333333333335" y="559.0"/>
      <point x="406.1666666666667" y="508.23333333333335"/>
      <point x="382.43333333333334" y="471.8666666666667" type="curve"/>
      <point x="372.43333333333334" y="506.8666666666667"/>
      <point x="338.4666666666667" y="558.0"/>
      <point x="263.8" y="558.0" type="curve" smooth="yes"/>
      <point x="188.96666666666667" y="558.0"/>
      <point x="131.9" y="503.96666666666664"/>
      <point x="113.26666666666667" y="415.43333333333334" type="curve" smooth="yes"/>
      <point x="24.8" y="0.0" type="line"/>
      <point x="82.6" y="0.0" type="line"/>
      <point x="170.06666666666666" y="413.23333333333335" type="line" smooth="yes"/>
      <point x="182.33333333333334" y="472.56666666666666"/>
      <point x="213.2" y="504.0"/>
      <point x="259.1666666666667" y="504.0" type="curve" smooth="yes"/>
      <point x="316.73333333333335" y="504.0"/>
      <point x="333.53333333333336" y="453.8666666666667"/>
      <point x="320.9" y="393.8" type="curve" smooth="yes"/>
      <point x="237.06666666666666" y="0.0" type="line"/>
      <point x="328.23333333333335" y="0.0" type="line"/>
      <point x="413.1666666666667" y="397.56666666666666" type="line" smooth="yes"/>
      <point x="427.7" y="463.96666666666664"/>
      <point x="474.0" y="505.0"/>
      <point x="528.3" y="505.0" type="curve" smooth="yes"/>
      <point x="591.8666666666667" y="505.0"/>
      <point x="624.1" y="454.56666666666666"/>
      <point x="624.1" y="355.93333333333334" type="curve" smooth="yes"/>
      <point x="624.1" y="101.1"/>
      <point x="514.8" y="-83.96666666666667"/>
      <point x="289.8666666666667" y="-83.96666666666667" type="curve" smooth="yes"/>
      <point x="153.4" y="-83.96666666666667" type="line" smooth="yes"/>
      <point x="52.3" y="-83.96666666666667"/>
      <point x="-19.866666666666667" y="-111.96666666666667"/>
      <point x="-19.866666666666667" y="-182.86666666666667" type="curve" smooth="yes"/>
      <point x="-19.866666666666667" y="-222.76666666666668"/>
      <point x="5.033333333333334" y="-243.13333333333333"/>
    </contour>
  </outline>
</glyph>
<glyph name="la-tamil" format="2">
  <advance width="943.7666666666667"/>
  <unicode hex="0BB2"/>
  <note>
uni0BB2
</note>
  <anchor x="414.23333333333335" y="0.0" name="bottom"/>
  <anchor x="414.23333333333335" y="0.0" name="nukta"/>
  <anchor x="554.9666666666667" y="554.0" name="top"/>
  <anchor x="529.3333333333334" y="554.0" name="vedic"/>
  <outline>
    <contour>
      <point x="218.73333333333335" y="-5.0" type="curve" smooth="yes"/>
      <point x="311.6666666666667" y="-5.0"/>
      <point x="392.56666666666666" y="59.03333333333333"/>
      <point x="392.56666666666666" y="168.93333333333334" type="curve" smooth="yes"/>
      <point x="392.56666666666666" y="245.6"/>
      <point x="341.03333333333336" y="303.0"/>
      <point x="259.6666666666667" y="303.0" type="curve" smooth="yes"/>
      <point x="172.0" y="303.0"/>
      <point x="105.5" y="231.93333333333334"/>
      <point x="79.66666666666667" y="130.7" type="curve"/>
      <point x="104.56666666666666" y="103.33333333333333" type="line"/>
      <point x="125.3" y="187.3"/>
      <point x="171.7" y="236.0"/>
      <point x="228.56666666666666" y="236.0" type="curve" smooth="yes"/>
      <point x="275.23333333333335" y="236.0"/>
      <point x="301.5" y="202.66666666666666"/>
      <point x="301.5" y="155.1" type="curve" smooth="yes"/>
      <point x="301.5" y="94.2"/>
      <point x="266.3333333333333" y="49.0"/>
      <point x="207.36666666666667" y="49.0" type="curve" smooth="yes"/>
      <point x="142.8" y="49.0"/>
      <point x="96.26666666666667" y="106.43333333333334"/>
      <point x="96.26666666666667" y="211.03333333333333" type="curve" smooth="yes"/>
      <point x="96.26666666666667" y="365.8333333333333"/>
      <point x="204.46666666666667" y="505.0"/>
      <point x="371.2" y="505.0" type="curve" smooth="yes"/>
      <point x="490.03333333333336" y="505.0"/>
      <point x="550.1" y="425.8333333333333"/>
      <point x="523.1" y="305.76666666666665" type="curve" smooth="yes"/>
      <point x="495.43333333333334" y="183.2" type="line" smooth="yes"/>
      <point x="472.9" y="83.9"/>
      <point x="514.1666666666666" y="0.0"/>
      <point x="624.7333333333333" y="0.0" type="curve" smooth="yes"/>
      <point x="780.8333333333334" y="0.0"/>
      <point x="900.1" y="155.06666666666666"/>
      <point x="900.1" y="354.26666666666665" type="curve" smooth="yes"/>
      <point x="900.1" y="434.6666666666667"/>
      <point x="875.8666666666667" y="502.26666666666665"/>
      <point x="840.1" y="559.6333333333333" type="curve"/>
      <point x="793.1666666666666" y="530.3" type="line"/>
      <point x="820.8666666666667" y="483.6333333333333"/>
      <point x="847.3666666666667" y="420.8666666666667"/>
      <point x="847.3666666666667" y="350.3333333333333" type="curve" smooth="yes"/>
      <point x="847.3666666666667" y="190.76666666666668"/>
      <point x="753.9" y="59.0"/>
      <point x="644.5" y="59.0" type="curve" smooth="yes"/>
      <point x="581.9333333333334" y="59.0"/>
      <point x="571.3333333333334" y="113.23333333333333"/>
      <point x="586.6" y="182.2" type="curve" smooth="yes"/>
      <point x="613.6333333333333" y="304.8666666666667" type="line" smooth="yes"/>
      <point x="648.2666666666667" y="463.3666666666667"/>
      <point x="553.6333333333333" y="559.0"/>
      <point x="381.4" y="559.0" type="curve" smooth="yes"/>
      <point x="180.3" y="559.0"/>
      <point x="40.833333333333336" y="395.2"/>
      <point x="40.833333333333336" y="207.5" type="curve" smooth="yes"/>
      <point x="40.833333333333336" y="75.86666666666667"/>
      <point x="114.16666666666667" y="-5.0"/>
    </contour>
  </outline>
</glyph>
<glyph name="va-tamil" format="2">
  <advance width="1027.3666666666668"/>
  <unicode hex="0BB5"/>
  <note>
uni0BB5
</note>
  <anchor x="499.4666666666667" y="0.0" name="bottom"/>
  <anchor x="919.5666666666667" y="554.0" name="imatra"/>
  <anchor x="499.4666666666667" y="0.0" name="nukta"/>
  <anchor x="570.8666666666667" y="554.0" name="top"/>
  <anchor x="556.5666666666667" y="554.0" name="vedic"/>
  <outline>
    <contour>
      <point x="217.1" y="-5.0" type="curve" smooth="yes"/>
      <point x="310.03333333333336" y="-5.0"/>
      <point x="390.93333333333334" y="59.03333333333333"/>
      <point x="390.93333333333334" y="168.93333333333334" type="curve" smooth="yes"/>
      <point x="390.93333333333334" y="245.6"/>
      <point x="339.4" y="303.0"/>
      <point x="258.03333333333336" y="303.0" type="curve" smooth="yes"/>
      <point x="170.36666666666667" y="303.0"/>
      <point x="103.86666666666667" y="231.93333333333334"/>
      <point x="78.03333333333333" y="130.7" type="curve"/>
      <point x="102.93333333333334" y="103.33333333333333" type="line"/>
      <point x="123.66666666666667" y="187.3"/>
      <point x="170.06666666666666" y="236.0"/>
      <point x="226.93333333333334" y="236.0" type="curve" smooth="yes"/>
      <point x="273.6" y="236.0"/>
      <point x="299.8666666666667" y="202.66666666666666"/>
      <point x="299.8666666666667" y="155.1" type="curve" smooth="yes"/>
      <point x="299.8666666666667" y="94.2"/>
      <point x="264.7" y="49.0"/>
      <point x="205.73333333333335" y="49.0" type="curve" smooth="yes"/>
      <point x="141.16666666666666" y="49.0"/>
      <point x="94.63333333333334" y="106.43333333333334"/>
      <point x="94.63333333333334" y="211.03333333333333" type="curve" smooth="yes"/>
      <point x="94.63333333333334" y="359.5"/>
      <point x="227.6" y="505.0"/>
      <point x="387.43333333333334" y="505.0" type="curve" smooth="yes"/>
      <point x="519.5333333333333" y="505.0"/>
      <point x="589.0666666666667" y="425.5"/>
      <point x="589.0666666666667" y="307.26666666666665" type="curve" smooth="yes"/>
      <point x="589.0666666666667" y="205.26666666666665"/>
      <point x="541.9" y="123.83333333333333"/>
      <point x="468.56666666666666" y="41.9" type="curve"/>
      <point x="476.56666666666666" y="0.0" type="line"/>
      <point x="879.1666666666666" y="0.0" type="line"/>
      <point x="997.1666666666666" y="554.0" type="line"/>
      <point x="906.0" y="554.0" type="line"/>
      <point x="799.3666666666667" y="54.0" type="line"/>
      <point x="551.0666666666667" y="54.0" type="line"/>
      <point x="622.6333333333333" y="121.16666666666667"/>
      <point x="681.7666666666667" y="204.93333333333334"/>
      <point x="681.7666666666667" y="321.0" type="curve" smooth="yes"/>
      <point x="681.7666666666667" y="475.06666666666666"/>
      <point x="562.8" y="559.0"/>
      <point x="399.43333333333334" y="559.0" type="curve" smooth="yes"/>
      <point x="200.16666666666666" y="559.0"/>
      <point x="39.2" y="385.7"/>
      <point x="39.2" y="207.5" type="curve" smooth="yes"/>
      <point x="39.2" y="75.86666666666667"/>
      <point x="112.53333333333333" y="-5.0"/>
    </contour>
  </outline>
</glyph>
<glyph name="sha-tamil" format="2">
  <advance width="1005.5"/>
  <unicode hex="0BB6"/>
  <note>
uni0BB6
</note>
  <anchor x="452.8666666666667" y="0.0" name="bottom"/>
  <anchor x="834.8333333333334" y="554.0" name="imatra"/>
  <anchor x="452.8666666666667" y="0.0" name="nukta"/>
  <anchor x="572.1333333333333" y="554.0" name="top"/>
  <anchor x="575.4" y="554.0" name="vedic"/>
  <outline>
    <contour>
      <point x="226.13333333333333" y="-5.0" type="curve" smooth="yes"/>
      <point x="325.43333333333334" y="-5.0"/>
      <point x="402.56666666666666" y="46.06666666666667"/>
      <point x="432.1" y="185.73333333333335" type="curve" smooth="yes"/>
      <point x="498.6666666666667" y="500.0" type="line"/>
      <point x="620.2666666666667" y="500.0" type="line"/>
      <point x="547.8" y="158.96666666666667" type="line" smooth="yes"/>
      <point x="527.5333333333333" y="60.93333333333333"/>
      <point x="575.1" y="-5.0"/>
      <point x="672.8666666666667" y="-5.0" type="curve" smooth="yes"/>
      <point x="850.6666666666666" y="-5.0"/>
      <point x="972.5" y="227.56666666666666"/>
      <point x="972.5" y="422.1666666666667" type="curve" smooth="yes"/>
      <point x="972.5" y="511.5"/>
      <point x="928.0666666666667" y="554.0"/>
      <point x="844.0666666666667" y="554.0" type="curve" smooth="yes"/>
      <point x="453.4" y="554.0" type="line"/>
      <point x="376.4666666666667" y="189.63333333333333" type="line" smooth="yes"/>
      <point x="354.4" y="83.93333333333334"/>
      <point x="301.2" y="54.0"/>
      <point x="244.33333333333334" y="54.0" type="curve" smooth="yes"/>
      <point x="168.66666666666666" y="54.0"/>
      <point x="141.73333333333335" y="113.53333333333333"/>
      <point x="158.36666666666667" y="198.3" type="curve" smooth="yes"/>
      <point x="234.56666666666666" y="554.0" type="line"/>
      <point x="142.66666666666666" y="554.0" type="line"/>
      <point x="68.73333333333333" y="202.73333333333335" type="line" smooth="yes"/>
      <point x="42.56666666666666" y="83.33333333333333"/>
      <point x="106.36666666666667" y="-5.0"/>
    </contour>
    <contour>
      <point x="694.6" y="54.0" type="curve" smooth="yes"/>
      <point x="637.8333333333334" y="54.0"/>
      <point x="626.4333333333334" y="99.1"/>
      <point x="639.3333333333334" y="158.7" type="curve" smooth="yes"/>
      <point x="712.0666666666667" y="500.0" type="line"/>
      <point x="830.1666666666666" y="500.0" type="line" smooth="yes"/>
      <point x="892.2666666666667" y="500.0"/>
      <point x="914.7" y="472.76666666666665"/>
      <point x="914.7" y="417.1666666666667" type="curve" smooth="yes"/>
      <point x="914.7" y="271.6666666666667"/>
      <point x="815.6666666666666" y="54.0"/>
    </contour>
  </outline>
</glyph>
<glyph name="sa-tamil" format="2">
  <advance width="1219.0333333333333"/>
  <unicode hex="0BB8"/>
  <note>
uni0BB8
</note>
  <anchor x="554.6666666666666" y="0.0" name="bottom"/>
  <anchor x="554.6666666666666" y="0.0" name="nukta"/>
  <anchor x="656.9666666666667" y="554.0" name="top"/>
  <anchor x="670.0333333333333" y="554.0" name="vedic"/>
  <outline>
    <contour>
      <point x="478.8" y="0.0" type="line"/>
      <point x="569.9666666666667" y="0.0" type="line"/>
      <point x="658.7" y="417.1333333333333" type="line" smooth="yes"/>
      <point x="670.3333333333334" y="469.6666666666667"/>
      <point x="700.8333333333334" y="504.0"/>
      <point x="751.8" y="504.0" type="curve" smooth="yes"/>
      <point x="800.7666666666667" y="504.0"/>
      <point x="831.9" y="469.0"/>
      <point x="818.3666666666667" y="405.96666666666664" type="curve" smooth="yes"/>
      <point x="770.7" y="183.2" type="line" smooth="yes"/>
      <point x="748.8" y="83.9"/>
      <point x="789.4333333333334" y="0.0"/>
      <point x="900.0" y="0.0" type="curve" smooth="yes"/>
      <point x="1056.1" y="0.0"/>
      <point x="1175.3666666666668" y="155.06666666666666"/>
      <point x="1175.3666666666668" y="354.26666666666665" type="curve" smooth="yes"/>
      <point x="1175.3666666666668" y="434.6666666666667"/>
      <point x="1154.3" y="501.0"/>
      <point x="1119.8" y="559.0" type="curve"/>
      <point x="1071.6" y="530.9333333333333" type="line"/>
      <point x="1098.6666666666667" y="483.6333333333333"/>
      <point x="1122.6333333333334" y="420.8666666666667"/>
      <point x="1122.6333333333334" y="350.3333333333333" type="curve" smooth="yes"/>
      <point x="1122.6333333333334" y="190.76666666666668"/>
      <point x="1029.1666666666667" y="59.0"/>
      <point x="919.7666666666667" y="59.0" type="curve" smooth="yes"/>
      <point x="857.2" y="59.0"/>
      <point x="846.6" y="112.6"/>
      <point x="861.8666666666667" y="182.2" type="curve" smooth="yes"/>
      <point x="906.1666666666666" y="390.3333333333333" type="line" smooth="yes"/>
      <point x="927.6" y="490.7"/>
      <point x="871.9666666666667" y="559.0"/>
      <point x="772.0" y="559.0" type="curve" smooth="yes"/>
      <point x="680.8" y="559.0"/>
      <point x="625.7" y="496.5"/>
      <point x="609.7" y="423.5" type="curve" smooth="yes"/>
      <point x="591.0666666666667" y="338.06666666666666" type="line"/>
      <point x="550.2666666666667" y="338.06666666666666" type="line"/>
    </contour>
    <contour>
      <point x="219.36666666666667" y="-5.0" type="curve" smooth="yes"/>
      <point x="312.3" y="-5.0"/>
      <point x="393.2" y="59.03333333333333"/>
      <point x="393.2" y="168.93333333333334" type="curve" smooth="yes"/>
      <point x="393.2" y="245.6"/>
      <point x="341.6666666666667" y="303.0"/>
      <point x="260.3" y="303.0" type="curve" smooth="yes"/>
      <point x="172.63333333333333" y="303.0"/>
      <point x="106.13333333333333" y="231.93333333333334"/>
      <point x="80.3" y="130.7" type="curve"/>
      <point x="105.2" y="103.33333333333333" type="line"/>
      <point x="125.93333333333334" y="187.3"/>
      <point x="172.33333333333334" y="236.0"/>
      <point x="229.2" y="236.0" type="curve" smooth="yes"/>
      <point x="275.8666666666667" y="236.0"/>
      <point x="302.1333333333333" y="202.66666666666666"/>
      <point x="302.1333333333333" y="155.1" type="curve" smooth="yes"/>
      <point x="302.1333333333333" y="94.2"/>
      <point x="266.9666666666667" y="49.0"/>
      <point x="208.0" y="49.0" type="curve" smooth="yes"/>
      <point x="143.43333333333334" y="49.0"/>
      <point x="96.9" y="106.43333333333334"/>
      <point x="96.9" y="211.03333333333333" type="curve" smooth="yes"/>
      <point x="96.9" y="365.8333333333333"/>
      <point x="198.76666666666668" y="505.0"/>
      <point x="365.5" y="505.0" type="curve" smooth="yes"/>
      <point x="482.3333333333333" y="505.0"/>
      <point x="571.8" y="438.2"/>
      <point x="542.3666666666667" y="300.46666666666664" type="curve"/>
      <point x="599.8" y="305.46666666666664" type="line"/>
      <point x="631.7" y="468.53333333333336"/>
      <point x="521.9666666666667" y="559.0"/>
      <point x="375.7" y="559.0" type="curve" smooth="yes"/>
      <point x="174.6" y="559.0"/>
      <point x="41.46666666666667" y="395.2"/>
      <point x="41.46666666666667" y="207.5" type="curve" smooth="yes"/>
      <point x="41.46666666666667" y="75.86666666666667"/>
      <point x="114.8" y="-5.0"/>
    </contour>
  </outline>
</glyph>
<glyph name="ha-tamil" format="2">
  <advance width="1470.0333333333333"/>
  <unicode hex="0BB9"/>
  <note>
uni0BB9
</note>
  <anchor x="688.8" y="0.0" name="bottom"/>
  <anchor x="656.1666666666666" y="-152.0" name="nukta"/>
  <anchor x="813.7333333333333" y="554.0" name="top"/>
  <anchor x="796.2" y="554.0" name="vedic"/>
  <outline>
    <contour>
      <point x="91.9" y="-251.3" type="curve"/>
      <point x="106.53333333333333" y="-182.66666666666666"/>
      <point x="134.53333333333333" y="-144.3"/>
      <point x="219.56666666666666" y="-144.3" type="curve" smooth="yes"/>
      <point x="934.8" y="-144.3" type="line" smooth="yes"/>
      <point x="1233.6333333333334" y="-144.3"/>
      <point x="1418.2" y="48.63333333333333"/>
      <point x="1418.2" y="339.6333333333333" type="curve" smooth="yes"/>
      <point x="1418.2" y="474.03333333333336"/>
      <point x="1354.4" y="559.0"/>
      <point x="1241.3333333333333" y="559.0" type="curve" smooth="yes"/>
      <point x="1162.7666666666667" y="559.0"/>
      <point x="1110.2" y="508.23333333333335"/>
      <point x="1086.4666666666667" y="471.8666666666667" type="curve"/>
      <point x="1076.4666666666667" y="506.8666666666667"/>
      <point x="1042.5" y="558.0"/>
      <point x="967.8333333333334" y="558.0" type="curve" smooth="yes"/>
      <point x="893.0" y="558.0"/>
      <point x="836.5666666666667" y="503.96666666666664"/>
      <point x="817.3" y="415.43333333333334" type="curve" smooth="yes"/>
      <point x="739.2" y="54.0" type="line"/>
      <point x="551.0666666666667" y="54.0" type="line"/>
      <point x="622.6333333333333" y="121.16666666666667"/>
      <point x="681.7666666666667" y="202.4"/>
      <point x="681.7666666666667" y="318.46666666666664" type="curve" smooth="yes"/>
      <point x="681.7666666666667" y="472.53333333333336"/>
      <point x="567.2333333333333" y="559.0"/>
      <point x="396.9" y="559.0" type="curve" smooth="yes"/>
      <point x="197.63333333333333" y="559.0"/>
      <point x="39.2" y="387.6"/>
      <point x="39.2" y="207.5" type="curve" smooth="yes"/>
      <point x="39.2" y="75.86666666666667"/>
      <point x="112.53333333333333" y="-5.0"/>
      <point x="217.1" y="-5.0" type="curve" smooth="yes"/>
      <point x="310.03333333333336" y="-5.0"/>
      <point x="390.93333333333334" y="59.03333333333333"/>
      <point x="390.93333333333334" y="168.93333333333334" type="curve" smooth="yes"/>
      <point x="390.93333333333334" y="245.6"/>
      <point x="339.4" y="303.0"/>
      <point x="258.03333333333336" y="303.0" type="curve" smooth="yes"/>
      <point x="170.36666666666667" y="303.0"/>
      <point x="103.86666666666667" y="231.93333333333334"/>
      <point x="78.03333333333333" y="130.7" type="curve"/>
      <point x="102.93333333333334" y="103.33333333333333" type="line"/>
      <point x="123.66666666666667" y="187.3"/>
      <point x="170.06666666666666" y="236.0"/>
      <point x="226.93333333333334" y="236.0" type="curve" smooth="yes"/>
      <point x="273.6" y="236.0"/>
      <point x="299.8666666666667" y="202.66666666666666"/>
      <point x="299.8666666666667" y="155.1" type="curve" smooth="yes"/>
      <point x="299.8666666666667" y="94.2"/>
      <point x="264.7" y="49.0"/>
      <point x="205.73333333333335" y="49.0" type="curve" smooth="yes"/>
      <point x="141.16666666666666" y="49.0"/>
      <point x="94.63333333333334" y="106.43333333333334"/>
      <point x="94.63333333333334" y="211.03333333333333" type="curve" smooth="yes"/>
      <point x="94.63333333333334" y="359.5"/>
      <point x="227.6" y="505.0"/>
      <point x="387.43333333333334" y="505.0" type="curve" smooth="yes"/>
      <point x="513.2" y="505.0"/>
      <point x="589.0666666666667" y="422.96666666666664"/>
      <point x="589.0666666666667" y="304.73333333333335" type="curve" smooth="yes"/>
      <point x="589.0666666666667" y="202.73333333333332"/>
      <point x="541.9" y="123.83333333333333"/>
      <point x="468.56666666666666" y="41.9" type="curve"/>
      <point x="476.56666666666666" y="0.0" type="line"/>
      <point x="786.6333333333333" y="0.0" type="line"/>
      <point x="874.1" y="413.23333333333335" type="line" smooth="yes"/>
      <point x="886.3666666666667" y="472.56666666666666"/>
      <point x="917.2333333333333" y="504.0"/>
      <point x="963.2" y="504.0" type="curve" smooth="yes"/>
      <point x="1020.7666666666667" y="504.0"/>
      <point x="1037.5666666666666" y="453.8666666666667"/>
      <point x="1024.9333333333334" y="393.8" type="curve" smooth="yes"/>
      <point x="941.1" y="0.0" type="line"/>
      <point x="1032.2666666666667" y="0.0" type="line"/>
      <point x="1117.2" y="397.56666666666666" type="line" smooth="yes"/>
      <point x="1131.7333333333333" y="463.96666666666664"/>
      <point x="1178.0333333333333" y="505.0"/>
      <point x="1232.3333333333333" y="505.0" type="curve" smooth="yes"/>
      <point x="1295.9" y="505.0"/>
      <point x="1328.1333333333334" y="454.56666666666666"/>
      <point x="1328.1333333333334" y="355.93333333333334" type="curve" smooth="yes"/>
      <point x="1328.1333333333334" y="94.76666666666667"/>
      <point x="1182.1666666666667" y="-91.4"/>
      <point x="939.6333333333333" y="-91.4" type="curve" smooth="yes"/>
      <point x="194.83333333333334" y="-91.4" type="line" smooth="yes"/>
      <point x="93.73333333333333" y="-91.4"/>
      <point x="21.566666666666666" y="-120.13333333333334"/>
      <point x="21.566666666666666" y="-191.03333333333333" type="curve" smooth="yes"/>
      <point x="21.566666666666666" y="-230.93333333333334"/>
      <point x="46.46666666666667" y="-251.3"/>
    </contour>
  </outline>
</glyph>
<glyph name="aaMatra-tamil" format="2">
  <advance width="603.8666666666667"/>
  <unicode hex="0BBE"/>
  <note>
uni0BBE
</note>
  <anchor x="270.5" y="0.0" name="bottom"/>
  <anchor x="269.5" y="0.0" name="nukta"/>
  <anchor x="381.5" y="554.0" name="top"/>
  <anchor x="381.5" y="554.0" name="vedic"/>
  <outline>
    <contour>
      <point x="30.566666666666666" y="0.0" type="line"/>
      <point x="89.1" y="0.0" type="line"/>
      <point x="195.1" y="500.0" type="line"/>
      <point x="389.03333333333336" y="500.0" type="line"/>
      <point x="282.4" y="0.0" type="line"/>
      <point x="373.56666666666666" y="0.0" type="line"/>
      <point x="479.56666666666666" y="500.0" type="line"/>
      <point x="631.4" y="500.0" type="line"/>
      <point x="643.0333333333333" y="554.0" type="line"/>
      <point x="148.2" y="554.0" type="line"/>
    </contour>
  </outline>
</glyph>
<glyph name="iMatra-tamil" format="2">
  <advance width="209.4"/>
  <unicode hex="0BBF"/>
  <note>
uni0BBF
</note>
  <anchor x="-22.133333333333333" y="827.0333333333333" name="top"/>
  <outline>
    <contour>
      <point x="6.7666666666666675" y="0.0" type="line"/>
      <point x="64.56666666666666" y="0.0" type="line"/>
      <point x="183.5" y="556.8333333333334" type="line" smooth="yes"/>
      <point x="217.3" y="716.5666666666667"/>
      <point x="138.4" y="827.0333333333333"/>
      <point x="-22.133333333333333" y="827.0333333333333" type="curve" smooth="yes"/>
      <point x="-149.73333333333335" y="827.0333333333333"/>
      <point x="-239.86666666666667" y="740.6666666666666"/>
      <point x="-239.86666666666667" y="632.1333333333333" type="curve" smooth="yes"/>
      <point x="-239.86666666666667" y="555.0"/>
      <point x="-189.96666666666667" y="500.0"/>
      <point x="-125.63333333333334" y="500.0" type="curve" smooth="yes"/>
      <point x="-120.63333333333334" y="500.0" type="line"/>
      <point x="-109.26666666666667" y="554.0" type="line"/>
      <point x="-114.26666666666667" y="554.0" type="line" smooth="yes"/>
      <point x="-152.96666666666667" y="554.0"/>
      <point x="-178.7" y="582.5333333333333"/>
      <point x="-178.7" y="625.4333333333333" type="curve" smooth="yes"/>
      <point x="-178.7" y="693.0333333333333"/>
      <point x="-113.76666666666667" y="739.4"/>
      <point x="-29.6" y="739.4" type="curve" smooth="yes"/>
      <point x="85.53333333333333" y="739.4"/>
      <point x="149.03333333333333" y="667.3333333333334"/>
      <point x="121.6" y="539.1666666666666" type="curve" smooth="yes"/>
    </contour>
  </outline>
</glyph>
<glyph name="iiMatra-tamil" format="2">
  <unicode hex="0BC0"/>
  <note>
uni0BC0
</note>
  <anchor x="59.0" y="554.0" name="_imatra"/>
  <anchor x="115.23333333333333" y="882.0" name="top"/>
  <outline>
    <contour>
      <point x="33.733333333333334" y="505.0" type="curve" smooth="yes"/>
      <point x="49.0" y="505.0" type="line"/>
      <point x="59.0" y="554.0" type="line"/>
      <point x="44.833333333333336" y="554.0" type="line" smooth="yes"/>
      <point x="-14.233333333333334" y="554.0"/>
      <point x="-57.43333333333334" y="594.9333333333333"/>
      <point x="-57.43333333333334" y="667.9" type="curve" smooth="yes"/>
      <point x="-57.43333333333334" y="750.3666666666667"/>
      <point x="4.466666666666667" y="828.0"/>
      <point x="107.96666666666667" y="828.0" type="curve" smooth="yes"/>
      <point x="167.46666666666667" y="828.0"/>
      <point x="204.76666666666668" y="796.4333333333333"/>
      <point x="204.76666666666668" y="743.3" type="curve" smooth="yes"/>
      <point x="204.76666666666668" y="691.4"/>
      <point x="172.9" y="656.0"/>
      <point x="124.83333333333333" y="656.0" type="curve" smooth="yes"/>
      <point x="45.9" y="656.0"/>
      <point x="50.5" y="765.2"/>
      <point x="111.36666666666666" y="851.0" type="curve"/>
      <point x="70.73333333333333" y="855.0" type="line"/>
      <point x="-19.566666666666666" y="734.4"/>
      <point x="1.5333333333333334" y="602.0"/>
      <point x="132.1" y="602.0" type="curve" smooth="yes"/>
      <point x="217.03333333333333" y="602.0"/>
      <point x="284.2" y="657.4666666666667"/>
      <point x="284.2" y="744.1" type="curve" smooth="yes"/>
      <point x="284.2" y="831.6333333333333"/>
      <point x="212.63333333333333" y="882.0"/>
      <point x="115.23333333333333" y="882.0" type="curve" smooth="yes"/>
      <point x="-18.96666666666667" y="882.0"/>
      <point x="-113.96666666666667" y="778.0333333333333"/>
      <point x="-113.96666666666667" y="662.2666666666667" type="curve" smooth="yes"/>
      <point x="-113.96666666666667" y="561.9333333333333"/>
      <point x="-48.3" y="505.0"/>
    </contour>
  </outline>
</glyph>
<glyph name="uMatra-tamil" format="2">
  <advance width="492.03333333333336"/>
  <unicode hex="0BC1"/>
  <note>
uni0BC1
</note>
  <anchor x="268.43333333333334" y="554.0" name="top"/>
  <outline>
    <contour>
      <point x="301.53333333333336" y="214.0" type="curve" smooth="yes"/>
      <point x="390.9" y="214.0"/>
      <point x="465.4" y="262.1333333333333"/>
      <point x="488.3" y="366.3" type="curve" smooth="yes"/>
      <point x="529.0333333333333" y="554.0" type="line"/>
      <point x="-173.96666666666667" y="554.0" type="line"/>
      <point x="-141.36666666666667" y="500.0" type="line"/>
      <point x="426.8666666666667" y="500.0" type="line"/>
      <point x="396.8666666666667" y="362.96666666666664" type="line" smooth="yes"/>
      <point x="383.6" y="303.06666666666666"/>
      <point x="347.93333333333334" y="269.1"/>
      <point x="294.53333333333336" y="269.1" type="curve" smooth="yes"/>
      <point x="234.6" y="269.1"/>
      <point x="210.63333333333333" y="317.6"/>
      <point x="227.53333333333333" y="394.93333333333334" type="curve" smooth="yes"/>
      <point x="255.0" y="523.0" type="line"/>
      <point x="197.2" y="523.0" type="line"/>
      <point x="170.36666666666667" y="399.2" type="line" smooth="yes"/>
      <point x="146.36666666666667" y="289.8333333333333"/>
      <point x="196.46666666666667" y="214.0"/>
    </contour>
  </outline>
</glyph>
<glyph name="eMatra-tamil" format="2">
  <advance width="776.0333333333333"/>
  <unicode hex="0BC6"/>
  <note>
uni0BC6
</note>
  <outline>
    <contour>
      <point x="271.23333333333335" y="-5.0" type="curve" smooth="yes"/>
      <point x="366.0" y="-5.0"/>
      <point x="446.7" y="60.3"/>
      <point x="446.7" y="170.2" type="curve" smooth="yes"/>
      <point x="446.7" y="249.4"/>
      <point x="395.9" y="308.0"/>
      <point x="313.06666666666666" y="308.0" type="curve" smooth="yes"/>
      <point x="225.4" y="308.0"/>
      <point x="159.26666666666668" y="234.0"/>
      <point x="133.43333333333334" y="132.76666666666668" type="curve"/>
      <point x="157.06666666666666" y="105.4" type="line"/>
      <point x="177.8" y="189.36666666666667"/>
      <point x="225.83333333333334" y="241.0"/>
      <point x="282.7" y="241.0" type="curve" smooth="yes"/>
      <point x="329.3666666666667" y="241.0"/>
      <point x="355.6333333333333" y="205.4"/>
      <point x="355.6333333333333" y="156.36666666666667" type="curve" smooth="yes"/>
      <point x="355.6333333333333" y="95.46666666666667"/>
      <point x="318.8333333333333" y="49.0"/>
      <point x="259.1333333333333" y="49.0" type="curve" smooth="yes"/>
      <point x="194.56666666666666" y="49.0"/>
      <point x="132.03333333333333" y="111.16666666666667"/>
      <point x="132.03333333333333" y="266.53333333333336" type="curve" smooth="yes"/>
      <point x="132.03333333333333" y="511.3666666666667"/>
      <point x="269.0" y="733.8666666666667"/>
      <point x="484.4666666666667" y="733.8666666666667" type="curve" smooth="yes"/>
      <point x="633.0333333333333" y="733.8666666666667"/>
      <point x="711.0333333333333" y="644.4666666666667"/>
      <point x="673.9666666666667" y="470.6666666666667" type="curve" smooth="yes"/>
      <point x="573.7666666666667" y="0.0" type="line"/>
      <point x="631.5666666666667" y="0.0" type="line"/>
      <point x="732.6" y="476.9" type="line" smooth="yes"/>
      <point x="776.4666666666667" y="684.4333333333333"/>
      <point x="684.7" y="823.8666666666667"/>
      <point x="496.93333333333334" y="823.8666666666667" type="curve" smooth="yes"/>
      <point x="231.0" y="823.8666666666667"/>
      <point x="77.33333333333333" y="543.2333333333333"/>
      <point x="77.33333333333333" y="264.46666666666664" type="curve" smooth="yes"/>
      <point x="77.33333333333333" y="84.6"/>
      <point x="166.3" y="-5.0"/>
    </contour>
  </outline>
</glyph>
<glyph name="eeMatra-tamil" format="2">
  <advance width="577.0"/>
  <unicode hex="0BC7"/>
  <note>
uni0BC7
</note>
  <outline>
    <contour>
      <point x="312.2" y="-5.0" type="curve" smooth="yes"/>
      <point x="414.3333333333333" y="-5.0"/>
      <point x="502.56666666666666" y="56.6"/>
      <point x="502.56666666666666" y="175.2" type="curve" smooth="yes"/>
      <point x="502.56666666666666" y="258.46666666666664"/>
      <point x="444.1666666666667" y="309.9"/>
      <point x="371.76666666666665" y="309.9" type="curve" smooth="yes"/>
      <point x="274.6333333333333" y="309.9"/>
      <point x="203.5" y="215.9"/>
      <point x="174.53333333333333" y="97.46666666666667" type="curve"/>
      <point x="204.0" y="73.36666666666666" type="line"/>
      <point x="231.13333333333333" y="172.9"/>
      <point x="276.3" y="242.26666666666668"/>
      <point x="335.7" y="242.26666666666668" type="curve" smooth="yes"/>
      <point x="382.3666666666667" y="242.26666666666668"/>
      <point x="411.5" y="214.1"/>
      <point x="411.5" y="159.56666666666666" type="curve" smooth="yes"/>
      <point x="411.5" y="95.13333333333333"/>
      <point x="367.0" y="49.0"/>
      <point x="304.4666666666667" y="49.0" type="curve" smooth="yes"/>
      <point x="209.56666666666666" y="49.0"/>
      <point x="129.56666666666666" y="163.93333333333334"/>
      <point x="129.56666666666666" y="332.03333333333336" type="curve" smooth="yes"/>
      <point x="129.56666666666666" y="514.0333333333333"/>
      <point x="260.8" y="770.2333333333333"/>
      <point x="435.1666666666667" y="770.2333333333333" type="curve" smooth="yes"/>
      <point x="494.53333333333336" y="770.2333333333333"/>
      <point x="525.2333333333333" y="735.0"/>
      <point x="525.2333333333333" y="684.7333333333333" type="curve" smooth="yes"/>
      <point x="525.2333333333333" y="623.6666666666666"/>
      <point x="490.0" y="576.9666666666667"/>
      <point x="431.2" y="576.9666666666667" type="curve" smooth="yes"/>
      <point x="362.26666666666665" y="576.9666666666667"/>
      <point x="343.3333333333333" y="666.1333333333333"/>
      <point x="350.2" y="766.2333333333333" type="curve"/>
      <point x="312.26666666666665" y="742.7666666666667" type="line"/>
      <point x="299.5" y="622.1666666666666"/>
      <point x="337.9" y="509.6"/>
      <point x="449.6333333333333" y="509.6" type="curve" smooth="yes"/>
      <point x="539.8" y="509.6"/>
      <point x="614.3" y="578.5666666666667"/>
      <point x="614.3" y="677.8333333333334" type="curve" smooth="yes"/>
      <point x="614.3" y="774.7"/>
      <point x="548.5333333333333" y="823.8666666666667"/>
      <point x="450.26666666666665" y="823.8666666666667" type="curve" smooth="yes"/>
      <point x="231.96666666666667" y="823.8666666666667"/>
      <point x="73.76666666666667" y="548.8333333333334"/>
      <point x="73.76666666666667" y="327.4" type="curve" smooth="yes"/>
      <point x="73.76666666666667" y="129.1"/>
      <point x="176.03333333333333" y="-5.0"/>
    </contour>
  </outline>
</glyph>
<glyph name="aiMatra-tamil" format="2">
  <advance width="1163.5"/>
  <unicode hex="0BC8"/>
  <note>
uni0BC8
</note>
  <outline>
    <contour>
      <point x="898.1666666666666" y="-5.466666666666667" type="line"/>
      <point x="1032.0666666666666" y="68.5"/>
      <point x="1117.4666666666667" y="168.6"/>
      <point x="1117.4666666666667" y="308.3" type="curve" smooth="yes"/>
      <point x="1117.4666666666667" y="462.06666666666666"/>
      <point x="1008.0" y="559.0"/>
      <point x="835.1" y="559.0" type="curve" smooth="yes"/>
      <point x="622.8" y="559.0"/>
      <point x="449.6666666666667" y="351.0"/>
      <point x="449.6666666666667" y="163.6" type="curve" smooth="yes"/>
      <point x="449.6666666666667" y="70.33333333333333"/>
      <point x="487.2" y="-5.0"/>
      <point x="585.2666666666667" y="-5.0" type="curve" smooth="yes"/>
      <point x="691.5666666666667" y="-5.0"/>
      <point x="785.0666666666667" y="88.73333333333333"/>
      <point x="785.0666666666667" y="226.76666666666668" type="curve" smooth="yes"/>
      <point x="785.0666666666667" y="443.2"/>
      <point x="633.1" y="559.0"/>
      <point x="431.6333333333333" y="559.0" type="curve" smooth="yes"/>
      <point x="219.23333333333335" y="559.0"/>
      <point x="39.2" y="398.23333333333335"/>
      <point x="39.2" y="207.5" type="curve" smooth="yes"/>
      <point x="39.2" y="73.33333333333333"/>
      <point x="108.1" y="-5.0"/>
      <point x="212.66666666666666" y="-5.0" type="curve" smooth="yes"/>
      <point x="305.6" y="-5.0"/>
      <point x="390.93333333333334" y="59.03333333333333"/>
      <point x="390.93333333333334" y="168.93333333333334" type="curve" smooth="yes"/>
      <point x="390.93333333333334" y="245.6"/>
      <point x="339.4" y="303.0"/>
      <point x="258.03333333333336" y="303.0" type="curve" smooth="yes"/>
      <point x="170.36666666666667" y="303.0"/>
      <point x="103.86666666666667" y="231.93333333333334"/>
      <point x="78.03333333333333" y="130.7" type="curve"/>
      <point x="102.93333333333334" y="103.33333333333333" type="line"/>
      <point x="123.66666666666667" y="187.3"/>
      <point x="170.06666666666666" y="236.0"/>
      <point x="226.93333333333334" y="236.0" type="curve" smooth="yes"/>
      <point x="273.6" y="236.0"/>
      <point x="299.8666666666667" y="202.66666666666666"/>
      <point x="299.8666666666667" y="155.1" type="curve" smooth="yes"/>
      <point x="299.8666666666667" y="94.2"/>
      <point x="260.26666666666665" y="49.0"/>
      <point x="201.3" y="49.0" type="curve" smooth="yes"/>
      <point x="136.73333333333335" y="49.0"/>
      <point x="94.63333333333334" y="103.9"/>
      <point x="94.63333333333334" y="211.03333333333333" type="curve" smooth="yes"/>
      <point x="94.63333333333334" y="368.8666666666667"/>
      <point x="244.03333333333333" y="505.0"/>
      <point x="424.73333333333335" y="505.0" type="curve" smooth="yes"/>
      <point x="590.4333333333334" y="505.0"/>
      <point x="693.2666666666667" y="390.03333333333336"/>
      <point x="693.2666666666667" y="229.9" type="curve" smooth="yes"/>
      <point x="693.2666666666667" y="125.66666666666667"/>
      <point x="642.4333333333334" y="50.9"/>
      <point x="572.4666666666667" y="50.9" type="curve" smooth="yes"/>
      <point x="524.9" y="50.9"/>
      <point x="504.56666666666666" y="95.83333333333333"/>
      <point x="504.56666666666666" y="168.06666666666666" type="curve" smooth="yes"/>
      <point x="504.56666666666666" y="318.73333333333335"/>
      <point x="647.7333333333333" y="505.0"/>
      <point x="826.4666666666667" y="505.0" type="curve" smooth="yes"/>
      <point x="958.0333333333333" y="505.0"/>
      <point x="1024.1333333333334" y="427.43333333333334"/>
      <point x="1024.1333333333334" y="312.93333333333334" type="curve" smooth="yes"/>
      <point x="1024.1333333333334" y="198.26666666666665"/>
      <point x="970.6" y="107.13333333333333"/>
      <point x="875.9666666666667" y="30.8" type="curve"/>
    </contour>
  </outline>
</glyph>
<glyph name="halant-tamil" format="2">
  <unicode hex="0BCD"/>
  <note>
uni0BCD
</note>
  <anchor x="59.0" y="554.0" name="_top"/>
  <outline>
    <contour>
      <point x="88.53333333333333" y="632.6" type="curve" smooth="yes"/>
      <point x="121.43333333333334" y="632.6"/>
      <point x="147.7" y="659.5"/>
      <point x="147.7" y="690.4" type="curve" smooth="yes"/>
      <point x="147.7" y="721.3"/>
      <point x="121.43333333333334" y="748.5666666666667"/>
      <point x="88.53333333333333" y="748.5666666666667" type="curve" smooth="yes"/>
      <point x="55.63333333333333" y="748.5666666666667"/>
      <point x="29.366666666666667" y="721.3"/>
      <point x="29.366666666666667" y="690.4" type="curve" smooth="yes"/>
      <point x="29.366666666666667" y="659.5"/>
      <point x="55.63333333333333" y="632.6"/>
    </contour>
  </outline>
</glyph>
<glyph name="om-tamil" format="2">
  <advance width="899.2333333333333"/>
  <unicode hex="0BD0"/>
  <note>
uni0BD0
</note>
  <outline>
    <contour>
      <point x="198.63333333333333" y="-372.23333333333335" type="curve" smooth="yes"/>
      <point x="432.6333333333333" y="-372.23333333333335"/>
      <point x="467.9666666666667" y="-141.96666666666667"/>
      <point x="625.3" y="-141.96666666666667" type="curve" smooth="yes"/>
      <point x="653.6333333333333" y="-141.96666666666667" type="line"/>
      <point x="665.0" y="-88.6" type="line"/>
      <point x="633.0" y="-88.6" type="line" smooth="yes"/>
      <point x="475.06666666666666" y="-88.6"/>
      <point x="421.6" y="72.0"/>
      <point x="535.6666666666666" y="200.3" type="curve"/>
      <point x="540.0333333333333" y="196.66666666666666" type="line"/>
      <point x="483.4666666666667" y="99.2"/>
      <point x="508.93333333333334" y="-5.0"/>
      <point x="620.5" y="-5.0" type="curve" smooth="yes"/>
      <point x="744.9666666666667" y="-5.0"/>
      <point x="839.7333333333333" y="98.23333333333333"/>
      <point x="839.7333333333333" y="249.06666666666666" type="curve" smooth="yes"/>
      <point x="839.7333333333333" y="460.56666666666666"/>
      <point x="658.3666666666667" y="559.0"/>
      <point x="465.9" y="559.0" type="curve" smooth="yes"/>
      <point x="239.86666666666667" y="559.0"/>
      <point x="41.3" y="405.6333333333333"/>
      <point x="41.3" y="219.33333333333334" type="curve" smooth="yes"/>
      <point x="41.3" y="87.7"/>
      <point x="109.56666666666666" y="5.0"/>
      <point x="213.4" y="5.0" type="curve" smooth="yes"/>
      <point x="306.7" y="5.0"/>
      <point x="388.93333333333334" y="70.3"/>
      <point x="388.93333333333334" y="180.2" type="curve" smooth="yes"/>
      <point x="388.93333333333334" y="259.4"/>
      <point x="338.5" y="313.0"/>
      <point x="260.3" y="313.0" type="curve" smooth="yes"/>
      <point x="172.63333333333333" y="313.0"/>
      <point x="102.8" y="241.93333333333334"/>
      <point x="76.96666666666667" y="140.7" type="curve"/>
      <point x="101.86666666666667" y="113.33333333333333" type="line"/>
      <point x="122.6" y="197.3"/>
      <point x="172.33333333333334" y="246.0"/>
      <point x="229.2" y="246.0" type="curve" smooth="yes"/>
      <point x="274.6" y="246.0"/>
      <point x="297.8666666666667" y="215.2"/>
      <point x="297.8666666666667" y="166.36666666666667" type="curve" smooth="yes"/>
      <point x="297.8666666666667" y="105.46666666666667"/>
      <point x="260.6333333333333" y="59.0"/>
      <point x="202.03333333333333" y="59.0" type="curve" smooth="yes"/>
      <point x="138.2" y="59.0"/>
      <point x="96.73333333333333" y="118.26666666666667"/>
      <point x="96.73333333333333" y="222.86666666666667" type="curve" smooth="yes"/>
      <point x="96.73333333333333" y="376.26666666666665"/>
      <point x="265.1333333333333" y="505.0"/>
      <point x="456.06666666666666" y="505.0" type="curve" smooth="yes"/>
      <point x="612.9666666666667" y="505.0"/>
      <point x="750.9333333333334" y="412.8"/>
      <point x="750.9333333333334" y="256.1333333333333" type="curve" smooth="yes"/>
      <point x="750.9333333333334" y="149.76666666666668"/>
      <point x="702.4333333333334" y="49.0"/>
      <point x="617.6666666666666" y="49.0" type="curve" smooth="yes"/>
      <point x="530.3" y="49.0"/>
      <point x="551.6333333333333" y="169.23333333333332"/>
      <point x="621.7" y="255.96666666666667" type="curve"/>
      <point x="572.6666666666666" y="294.46666666666664" type="line"/>
      <point x="416.9666666666667" y="175.1"/>
      <point x="371.93333333333334" y="-35.1"/>
      <point x="520.7333333333333" y="-109.33333333333333" type="curve"/>
      <point x="519.7333333333333" y="-114.33333333333333" type="line"/>
      <point x="400.1666666666667" y="-137.86666666666667"/>
      <point x="363.03333333333336" y="-308.43333333333334"/>
      <point x="187.56666666666666" y="-308.43333333333334" type="curve" smooth="yes"/>
      <point x="89.5" y="-308.43333333333334"/>
      <point x="38.8" y="-255.46666666666667"/>
      <point x="73.03333333333333" y="-161.46666666666667" type="curve"/>
      <point x="21.6" y="-152.56666666666666" type="line"/>
      <point x="-24.1" y="-286.93333333333334"/>
      <point x="61.333333333333336" y="-372.23333333333335"/>
    </contour>
    <contour>
      <point x="102.1" y="-240.36666666666667" type="line"/>
      <point x="143.26666666666668" y="-240.36666666666667" type="line"/>
      <point x="175.26666666666668" y="-88.36666666666667" type="line"/>
      <point x="134.1" y="-88.36666666666667" type="line"/>
    </contour>
    <contour>
      <point x="118.53333333333333" y="-240.36666666666667" type="line"/>
      <point x="290.8666666666667" y="-240.36666666666667" type="line"/>
      <point x="298.8666666666667" y="-201.1" type="line"/>
      <point x="126.53333333333333" y="-201.1" type="line"/>
    </contour>
    <contour>
      <point x="185.93333333333334" y="-240.36666666666667" type="line"/>
      <point x="224.46666666666667" y="-240.36666666666667" type="line"/>
      <point x="244.2" y="-150.33333333333334" type="line" smooth="yes"/>
      <point x="247.2" y="-136.06666666666666"/>
      <point x="254.73333333333335" y="-125.0"/>
      <point x="269.8" y="-125.0" type="curve" smooth="yes"/>
      <point x="286.3333333333333" y="-125.0"/>
      <point x="292.1333333333333" y="-137.63333333333333"/>
      <point x="288.5" y="-154.8" type="curve" smooth="yes"/>
      <point x="270.1333333333333" y="-240.36666666666667" type="line"/>
      <point x="312.03333333333336" y="-240.36666666666667" type="line"/>
      <point x="329.4" y="-160.33333333333334" type="line" smooth="yes"/>
      <point x="340.56666666666666" y="-109.66666666666667"/>
      <point x="310.6333333333333" y="-86.0"/>
      <point x="275.1666666666667" y="-86.0" type="curve" smooth="yes"/>
      <point x="244.16666666666669" y="-86.0"/>
      <point x="214.93333333333334" y="-105.1"/>
      <point x="204.66666666666666" y="-152.06666666666666" type="curve" smooth="yes"/>
    </contour>
    <contour>
      <point x="243.2" y="-73.66666666666667" type="curve" smooth="yes"/>
      <point x="261.1" y="-73.66666666666667"/>
      <point x="275.3666666666667" y="-58.766666666666666"/>
      <point x="275.3666666666667" y="-42.5" type="curve" smooth="yes"/>
      <point x="275.3666666666667" y="-27.233333333333334"/>
      <point x="261.1" y="-12.333333333333334"/>
      <point x="243.2" y="-12.333333333333334" type="curve" smooth="yes"/>
      <point x="225.3" y="-12.333333333333334"/>
      <point x="211.03333333333333" y="-27.233333333333334"/>
      <point x="211.03333333333333" y="-42.5" type="curve" smooth="yes"/>
      <point x="211.03333333333333" y="-58.766666666666666"/>
      <point x="225.3" y="-73.66666666666667"/>
    </contour>
  </outline>
</glyph>
<glyph name="zero-tamil" format="2">
  <advance width="555.9333333333334"/>
  <unicode hex="0BE6"/>
  <note>
uni0BE6
</note>
  <outline>
    <contour>
      <point x="236.1" y="-5.0" type="curve" smooth="yes"/>
      <point x="390.1666666666667" y="-5.0"/>
      <point x="510.9" y="145.66666666666666"/>
      <point x="510.9" y="331.46666666666664" type="curve" smooth="yes"/>
      <point x="510.9" y="484.2"/>
      <point x="431.6333333333333" y="559.0"/>
      <point x="313.53333333333336" y="559.0" type="curve" smooth="yes"/>
      <point x="150.5" y="559.0"/>
      <point x="44.666666666666664" y="385.2"/>
      <point x="44.666666666666664" y="219.5" type="curve" smooth="yes"/>
      <point x="44.666666666666664" y="94.26666666666667"/>
      <point x="112.53333333333333" y="-5.0"/>
    </contour>
    <contour>
      <point x="222.86666666666667" y="57.833333333333336" type="curve" smooth="yes"/>
      <point x="140.86666666666667" y="57.833333333333336"/>
      <point x="103.3" y="130.3"/>
      <point x="103.3" y="223.13333333333333" type="curve" smooth="yes"/>
      <point x="103.3" y="348.6333333333333"/>
      <point x="171.43333333333334" y="496.53333333333336"/>
      <point x="294.0" y="496.53333333333336" type="curve" smooth="yes"/>
      <point x="369.8333333333333" y="496.53333333333336"/>
      <point x="419.73333333333335" y="441.3"/>
      <point x="419.73333333333335" y="338.73333333333335" type="curve" smooth="yes"/>
      <point x="419.73333333333335" y="197.8"/>
      <point x="347.06666666666666" y="57.833333333333336"/>
    </contour>
  </outline>
</glyph>
<glyph name="one-tamil" format="2">
  <advance width="765.4666666666667"/>
  <unicode hex="0BE7"/>
  <note>
uni0BE7
</note>
  <outline>
    <contour>
      <point x="202.63333333333333" y="-4.0" type="curve" smooth="yes"/>
      <point x="324.93333333333334" y="-4.0"/>
      <point x="392.9666666666667" y="59.46666666666667"/>
      <point x="420.23333333333335" y="187.26666666666668" type="curve" smooth="yes"/>
      <point x="436.23333333333335" y="263.0" type="line"/>
      <point x="502.1" y="263.0" type="line" smooth="yes"/>
      <point x="562.8333333333334" y="263.0"/>
      <point x="595.0666666666667" y="230.0"/>
      <point x="595.0666666666667" y="172.03333333333333" type="curve" smooth="yes"/>
      <point x="595.0666666666667" y="102.6"/>
      <point x="551.4" y="51.0"/>
      <point x="479.43333333333334" y="51.0" type="curve" smooth="yes"/>
      <point x="434.6666666666667" y="51.0"/>
      <point x="400.73333333333335" y="71.8"/>
      <point x="377.5" y="106.96666666666667" type="curve"/>
      <point x="339.23333333333335" y="67.6" type="line"/>
      <point x="373.0" y="21.9"/>
      <point x="421.03333333333336" y="-5.0"/>
      <point x="485.1666666666667" y="-5.0" type="curve" smooth="yes"/>
      <point x="599.5" y="-5.0"/>
      <point x="687.3333333333334" y="63.13333333333333"/>
      <point x="687.3333333333334" y="173.93333333333334" type="curve" smooth="yes"/>
      <point x="687.3333333333334" y="268.0"/>
      <point x="626.1" y="317.0"/>
      <point x="512.8333333333334" y="317.0" type="curve" smooth="yes"/>
      <point x="447.6" y="317.0" type="line"/>
      <point x="486.6" y="500.0" type="line"/>
      <point x="636.9666666666667" y="500.0" type="line"/>
      <point x="648.3333333333334" y="554.0" type="line"/>
      <point x="211.26666666666668" y="554.0" type="line"/>
      <point x="154.26666666666668" y="286.0" type="line"/>
      <point x="212.06666666666666" y="286.0" type="line"/>
      <point x="257.06666666666666" y="500.0" type="line"/>
      <point x="395.06666666666666" y="500.0" type="line"/>
      <point x="356.43333333333334" y="317.0" type="line"/>
      <point x="222.96666666666667" y="317.0" type="line" smooth="yes"/>
      <point x="108.4" y="317.0"/>
      <point x="27.4" y="248.0"/>
      <point x="27.4" y="144.33333333333334" type="curve" smooth="yes"/>
      <point x="27.4" y="55.56666666666666"/>
      <point x="99.96666666666667" y="-4.0"/>
    </contour>
    <contour>
      <point x="197.9" y="49.0" type="curve" smooth="yes"/>
      <point x="134.13333333333333" y="49.0"/>
      <point x="89.46666666666667" y="87.2"/>
      <point x="89.46666666666667" y="150.6" type="curve" smooth="yes"/>
      <point x="89.46666666666667" y="220.93333333333334"/>
      <point x="138.46666666666667" y="263.0"/>
      <point x="218.23333333333335" y="263.0" type="curve" smooth="yes"/>
      <point x="345.06666666666666" y="263.0" type="line"/>
      <point x="327.3333333333333" y="178.8" type="line" smooth="yes"/>
      <point x="307.3333333333333" y="83.26666666666667"/>
      <point x="266.2" y="49.0"/>
    </contour>
  </outline>
</glyph>
<glyph name="two-tamil" format="2">
  <advance width="839.7666666666667"/>
  <unicode hex="0BE8"/>
  <note>
uni0BE8
</note>
  <outline>
    <contour>
      <point x="92.13333333333334" y="0.0" type="curve" smooth="yes"/>
      <point x="762.5666666666667" y="0.0" type="line"/>
      <point x="773.5666666666667" y="54.0" type="line"/>
      <point x="96.6" y="54.0" type="line" smooth="yes"/>
      <point x="75.86666666666667" y="54.0"/>
      <point x="59.86666666666667" y="67.2"/>
      <point x="59.86666666666667" y="91.0" type="curve" smooth="yes"/>
      <point x="59.86666666666667" y="120.1"/>
      <point x="83.86666666666667" y="135.0"/>
      <point x="108.2" y="135.0" type="curve" smooth="yes"/>
      <point x="320.53333333333336" y="135.0" type="line" smooth="yes"/>
      <point x="479.03333333333336" y="135.0"/>
      <point x="604.6333333333333" y="217.46666666666667"/>
      <point x="604.6333333333333" y="365.56666666666666" type="curve" smooth="yes"/>
      <point x="604.6333333333333" y="495.8"/>
      <point x="508.1666666666667" y="559.0"/>
      <point x="372.93333333333334" y="559.0" type="curve" smooth="yes"/>
      <point x="221.8" y="559.0"/>
      <point x="113.0" y="448.3"/>
      <point x="113.0" y="327.1333333333333" type="curve" smooth="yes"/>
      <point x="113.0" y="208.53333333333333"/>
      <point x="198.1" y="149.0"/>
      <point x="308.9" y="149.0" type="curve"/>
      <point x="317.9" y="188.0" type="line"/>
      <point x="218.76666666666668" y="188.0"/>
      <point x="170.63333333333333" y="242.9"/>
      <point x="170.63333333333333" y="324.8666666666667" type="curve" smooth="yes"/>
      <point x="170.63333333333333" y="423.0"/>
      <point x="248.6" y="505.0"/>
      <point x="362.73333333333335" y="505.0" type="curve" smooth="yes"/>
      <point x="455.1666666666667" y="505.0"/>
      <point x="515.1" y="461.9"/>
      <point x="515.1" y="369.23333333333335" type="curve" smooth="yes"/>
      <point x="515.1" y="255.96666666666667"/>
      <point x="432.8333333333333" y="188.0"/>
      <point x="318.53333333333336" y="188.0" type="curve" smooth="yes"/>
      <point x="115.1" y="188.0" type="line" smooth="yes"/>
      <point x="47.86666666666667" y="188.0"/>
      <point x="3.7" y="144.63333333333333"/>
      <point x="3.7" y="83.73333333333333" type="curve" smooth="yes"/>
      <point x="3.7" y="36.56666666666666"/>
      <point x="39.03333333333333" y="0.0"/>
    </contour>
  </outline>
</glyph>
<glyph name="three-tamil" format="2">
  <advance width="802.5"/>
  <unicode hex="0BE9"/>
  <note>
uni0BE9
</note>
  <outline>
    <contour>
      <point x="30.566666666666666" y="0.0" type="line"/>
      <point x="89.83333333333333" y="0.0" type="line"/>
      <point x="195.83333333333334" y="500.0" type="line"/>
      <point x="343.0" y="500.0" type="line"/>
      <point x="278.0" y="196.0" type="line"/>
      <point x="367.7" y="196.0" type="line"/>
      <point x="375.53333333333336" y="231.06666666666666" type="line" smooth="yes"/>
      <point x="385.53333333333336" y="277.3333333333333"/>
      <point x="419.6666666666667" y="314.9"/>
      <point x="459.76666666666665" y="314.9" type="curve" smooth="yes"/>
      <point x="498.0" y="314.9"/>
      <point x="524.4" y="290.46666666666664"/>
      <point x="524.4" y="239.86666666666667" type="curve" smooth="yes"/>
      <point x="524.4" y="135.43333333333334"/>
      <point x="440.3" y="54.0"/>
      <point x="349.26666666666665" y="54.0" type="curve" smooth="yes"/>
      <point x="248.0" y="54.0" type="line"/>
      <point x="236.0" y="0.0" type="line"/>
      <point x="722.0333333333333" y="0.0" type="line"/>
      <point x="733.4" y="54.0" type="line"/>
      <point x="461.3666666666667" y="54.0" type="line"/>
      <point x="541.7" y="84.83333333333333"/>
      <point x="616.8333333333334" y="153.23333333333332"/>
      <point x="616.8333333333334" y="257.23333333333335" type="curve" smooth="yes"/>
      <point x="616.8333333333334" y="339.56666666666666"/>
      <point x="564.9" y="379.0"/>
      <point x="503.1333333333333" y="379.0" type="curve" smooth="yes"/>
      <point x="448.56666666666666" y="379.0"/>
      <point x="414.9666666666667" y="348.56666666666666"/>
      <point x="395.26666666666665" y="319.7" type="curve"/>
      <point x="433.43333333333334" y="500.0" type="line"/>
      <point x="571.7" y="500.0" type="line"/>
      <point x="583.3333333333334" y="554.0" type="line"/>
      <point x="148.2" y="554.0" type="line"/>
    </contour>
  </outline>
</glyph>
